<mxfile host="65bd71144e">
    <diagram id="MonpL3S-e2NrNmF9f76L" name="UI">
        <mxGraphModel dx="3406" dy="1031" grid="1" gridSize="10" guides="1" tooltips="1" connect="1" arrows="1" fold="1" page="1" pageScale="1" pageWidth="583" pageHeight="827" math="0" shadow="0">
            <root>
                <mxCell id="0"/>
                <mxCell id="1" parent="0"/>
                <mxCell id="127" style="edgeStyle=orthogonalEdgeStyle;rounded=0;orthogonalLoop=1;jettySize=auto;html=1;entryX=0.5;entryY=0;entryDx=0;entryDy=0;" parent="1" source="2" target="125" edge="1">
                    <mxGeometry relative="1" as="geometry"/>
                </mxCell>
                <mxCell id="136" style="edgeStyle=orthogonalEdgeStyle;rounded=0;orthogonalLoop=1;jettySize=auto;html=1;entryX=0.75;entryY=0;entryDx=0;entryDy=0;" parent="1" source="2" target="135" edge="1">
                    <mxGeometry relative="1" as="geometry"/>
                </mxCell>
                <mxCell id="157" style="edgeStyle=orthogonalEdgeStyle;rounded=0;orthogonalLoop=1;jettySize=auto;html=1;entryX=0.5;entryY=0;entryDx=0;entryDy=0;" parent="1" source="2" target="156" edge="1">
                    <mxGeometry relative="1" as="geometry"/>
                </mxCell>
                <mxCell id="159" style="edgeStyle=orthogonalEdgeStyle;rounded=0;orthogonalLoop=1;jettySize=auto;html=1;entryX=0.5;entryY=0;entryDx=0;entryDy=0;" parent="1" source="2" target="158" edge="1">
                    <mxGeometry relative="1" as="geometry"/>
                </mxCell>
                <mxCell id="163" style="edgeStyle=orthogonalEdgeStyle;rounded=0;orthogonalLoop=1;jettySize=auto;html=1;entryX=0.5;entryY=0;entryDx=0;entryDy=0;" parent="1" source="2" target="162" edge="1">
                    <mxGeometry relative="1" as="geometry"/>
                </mxCell>
                <mxCell id="2" value="&lt;font color=&quot;#ffffff&quot;&gt;APP&lt;/font&gt;" style="rounded=1;whiteSpace=wrap;html=1;fillColor=none;" parent="1" vertex="1">
                    <mxGeometry x="310" y="20" width="120" height="60" as="geometry"/>
                </mxCell>
                <mxCell id="17" style="edgeStyle=orthogonalEdgeStyle;rounded=0;orthogonalLoop=1;jettySize=auto;html=1;entryX=0.5;entryY=0;entryDx=0;entryDy=0;" parent="1" source="3" target="15" edge="1">
                    <mxGeometry relative="1" as="geometry"/>
                </mxCell>
                <mxCell id="22" style="edgeStyle=orthogonalEdgeStyle;rounded=0;orthogonalLoop=1;jettySize=auto;html=1;entryX=0.5;entryY=0;entryDx=0;entryDy=0;" parent="1" source="3" target="20" edge="1">
                    <mxGeometry relative="1" as="geometry"/>
                </mxCell>
                <mxCell id="25" style="edgeStyle=orthogonalEdgeStyle;rounded=0;orthogonalLoop=1;jettySize=auto;html=1;entryX=0.5;entryY=0;entryDx=0;entryDy=0;" parent="1" source="3" target="23" edge="1">
                    <mxGeometry relative="1" as="geometry"/>
                </mxCell>
                <mxCell id="29" style="edgeStyle=orthogonalEdgeStyle;rounded=0;orthogonalLoop=1;jettySize=auto;html=1;entryX=0.5;entryY=0;entryDx=0;entryDy=0;" parent="1" source="3" target="28" edge="1">
                    <mxGeometry relative="1" as="geometry"/>
                </mxCell>
                <mxCell id="72" style="edgeStyle=orthogonalEdgeStyle;rounded=0;orthogonalLoop=1;jettySize=auto;html=1;entryX=0.5;entryY=0;entryDx=0;entryDy=0;" parent="1" source="3" target="67" edge="1">
                    <mxGeometry relative="1" as="geometry"/>
                </mxCell>
                <mxCell id="3" value="&lt;font color=&quot;#6666ff&quot;&gt;&amp;lt;SideBar /&amp;gt;&lt;/font&gt;" style="rounded=1;whiteSpace=wrap;html=1;fillColor=none;" parent="1" vertex="1">
                    <mxGeometry x="-270" y="1180" width="120" height="60" as="geometry"/>
                </mxCell>
                <mxCell id="103" style="edgeStyle=orthogonalEdgeStyle;rounded=0;orthogonalLoop=1;jettySize=auto;html=1;entryX=0;entryY=0.5;entryDx=0;entryDy=0;" parent="1" source="15" target="54" edge="1">
                    <mxGeometry relative="1" as="geometry">
                        <mxPoint x="-110" y="2040" as="targetPoint"/>
                        <Array as="points">
                            <mxPoint x="-380" y="2180"/>
                        </Array>
                    </mxGeometry>
                </mxCell>
                <mxCell id="15" value="&lt;font color=&quot;#ffff99&quot;&gt;&amp;lt;HeaderSideBar /&amp;gt;&lt;/font&gt;" style="rounded=1;whiteSpace=wrap;html=1;fillColor=none;" parent="1" vertex="1">
                    <mxGeometry x="-520" y="1300" width="140" height="60" as="geometry"/>
                </mxCell>
                <mxCell id="217" style="edgeStyle=orthogonalEdgeStyle;rounded=0;orthogonalLoop=1;jettySize=auto;html=1;" parent="1" source="20" edge="1">
                    <mxGeometry relative="1" as="geometry">
                        <mxPoint x="-380" y="1720" as="targetPoint"/>
                        <Array as="points">
                            <mxPoint x="-320" y="1410"/>
                            <mxPoint x="-380" y="1410"/>
                        </Array>
                    </mxGeometry>
                </mxCell>
                <mxCell id="20" value="&lt;font color=&quot;#ffff99&quot;&gt;&amp;lt;Avatar /&amp;gt;&lt;/font&gt;" style="rounded=1;whiteSpace=wrap;html=1;fillColor=none;" parent="1" vertex="1">
                    <mxGeometry x="-360" y="1290" width="80" height="60" as="geometry"/>
                </mxCell>
                <mxCell id="27" style="edgeStyle=orthogonalEdgeStyle;rounded=0;orthogonalLoop=1;jettySize=auto;html=1;entryX=0.454;entryY=0.006;entryDx=0;entryDy=0;entryPerimeter=0;" parent="1" source="23" target="54" edge="1">
                    <mxGeometry relative="1" as="geometry">
                        <Array as="points">
                            <mxPoint x="-226" y="1620"/>
                            <mxPoint x="-270" y="1620"/>
                            <mxPoint x="-270" y="1630"/>
                            <mxPoint x="-310" y="1630"/>
                            <mxPoint x="-310" y="2070"/>
                            <mxPoint x="-120" y="2070"/>
                            <mxPoint x="-120" y="2150"/>
                        </Array>
                        <mxPoint x="-120" y="2140" as="targetPoint"/>
                    </mxGeometry>
                </mxCell>
                <mxCell id="23" value="&lt;font color=&quot;#ffff99&quot;&gt;&amp;lt;Descripton /&amp;gt;&lt;/font&gt;" style="rounded=1;whiteSpace=wrap;html=1;fillColor=none;" parent="1" vertex="1">
                    <mxGeometry x="-261" y="1290" width="81" height="60" as="geometry"/>
                </mxCell>
                <mxCell id="28" value="&lt;font color=&quot;#ffff99&quot;&gt;&amp;lt;Social /&amp;gt;&lt;/font&gt;" style="rounded=1;whiteSpace=wrap;html=1;fillColor=none;" parent="1" vertex="1">
                    <mxGeometry x="-155" y="1290" width="70" height="60" as="geometry"/>
                </mxCell>
                <mxCell id="48" style="edgeStyle=orthogonalEdgeStyle;rounded=0;orthogonalLoop=1;jettySize=auto;html=1;entryX=0.5;entryY=0;entryDx=0;entryDy=0;exitX=0.25;exitY=1;exitDx=0;exitDy=0;" parent="1" source="28" target="33" edge="1">
                    <mxGeometry relative="1" as="geometry">
                        <mxPoint x="-170" y="1540" as="sourcePoint"/>
                    </mxGeometry>
                </mxCell>
                <mxCell id="33" value="&lt;font color=&quot;#00cc66&quot;&gt;&amp;lt;a .../&amp;gt;&lt;br&gt;&lt;/font&gt;" style="rounded=1;whiteSpace=wrap;html=1;fillColor=none;" parent="1" vertex="1">
                    <mxGeometry x="-240" y="1656" width="80" height="50" as="geometry"/>
                </mxCell>
                <mxCell id="36" value="&lt;font color=&quot;#00cc66&quot;&gt;&amp;lt;a .../&amp;gt;&lt;br&gt;&lt;/font&gt;" style="rounded=1;whiteSpace=wrap;html=1;fillColor=none;" parent="1" vertex="1">
                    <mxGeometry x="-140" y="1656" width="80" height="50" as="geometry"/>
                </mxCell>
                <mxCell id="49" style="edgeStyle=orthogonalEdgeStyle;rounded=0;orthogonalLoop=1;jettySize=auto;html=1;entryX=0.5;entryY=0;entryDx=0;entryDy=0;exitX=0.5;exitY=1;exitDx=0;exitDy=0;" parent="1" source="28" target="36" edge="1">
                    <mxGeometry relative="1" as="geometry">
                        <mxPoint x="-70" y="1540" as="sourcePoint"/>
                    </mxGeometry>
                </mxCell>
                <mxCell id="54" value="&lt;font color=&quot;#ff99cc&quot;&gt;&amp;lt;Common/&amp;gt;&lt;/font&gt;" style="rounded=1;whiteSpace=wrap;html=1;fillColor=none;" parent="1" vertex="1">
                    <mxGeometry x="-168" y="2150" width="120" height="60" as="geometry"/>
                </mxCell>
                <mxCell id="75" style="edgeStyle=orthogonalEdgeStyle;rounded=0;orthogonalLoop=1;jettySize=auto;html=1;entryX=0.574;entryY=0.016;entryDx=0;entryDy=0;entryPerimeter=0;" parent="1" source="67" target="54" edge="1">
                    <mxGeometry relative="1" as="geometry">
                        <Array as="points">
                            <mxPoint x="5" y="1880"/>
                            <mxPoint x="-40" y="1880"/>
                            <mxPoint x="-40" y="1960"/>
                            <mxPoint x="-49" y="1960"/>
                            <mxPoint x="-49" y="2080"/>
                            <mxPoint x="-99" y="2080"/>
                        </Array>
                    </mxGeometry>
                </mxCell>
                <mxCell id="67" value="&lt;font color=&quot;#ffff99&quot;&gt;&amp;lt;AboutMe/&amp;gt;&lt;/font&gt;" style="rounded=1;whiteSpace=wrap;html=1;fillColor=none;" parent="1" vertex="1">
                    <mxGeometry x="-30" y="1310" width="70" height="60" as="geometry"/>
                </mxCell>
                <mxCell id="87" style="edgeStyle=orthogonalEdgeStyle;rounded=0;orthogonalLoop=1;jettySize=auto;html=1;entryX=0.5;entryY=0;entryDx=0;entryDy=0;" parent="1" source="82" target="84" edge="1">
                    <mxGeometry relative="1" as="geometry"/>
                </mxCell>
                <mxCell id="88" style="edgeStyle=orthogonalEdgeStyle;rounded=0;orthogonalLoop=1;jettySize=auto;html=1;entryX=0.5;entryY=0;entryDx=0;entryDy=0;" parent="1" source="82" target="85" edge="1">
                    <mxGeometry relative="1" as="geometry"/>
                </mxCell>
                <mxCell id="89" style="edgeStyle=orthogonalEdgeStyle;rounded=0;orthogonalLoop=1;jettySize=auto;html=1;entryX=0.5;entryY=0;entryDx=0;entryDy=0;" parent="1" source="82" target="86" edge="1">
                    <mxGeometry relative="1" as="geometry"/>
                </mxCell>
                <mxCell id="82" value="&lt;font color=&quot;#ffff99&quot;&gt;&amp;lt;CatagoriesArticle /&amp;gt;&lt;/font&gt;" style="rounded=1;whiteSpace=wrap;html=1;fillColor=none;" parent="1" vertex="1">
                    <mxGeometry x="108" y="340" width="108" height="60" as="geometry"/>
                </mxCell>
                <mxCell id="94" style="edgeStyle=orthogonalEdgeStyle;rounded=0;orthogonalLoop=1;jettySize=auto;html=1;entryX=0.5;entryY=0;entryDx=0;entryDy=0;" parent="1" source="84" target="92" edge="1">
                    <mxGeometry relative="1" as="geometry"/>
                </mxCell>
                <mxCell id="84" value="&lt;font color=&quot;#ffff99&quot;&gt;&amp;lt;CssArticles/&amp;gt;&lt;/font&gt;" style="rounded=1;whiteSpace=wrap;html=1;fillColor=none;" parent="1" vertex="1">
                    <mxGeometry x="18" y="450" width="108" height="60" as="geometry"/>
                </mxCell>
                <mxCell id="93" style="edgeStyle=orthogonalEdgeStyle;rounded=0;orthogonalLoop=1;jettySize=auto;html=1;entryX=0.5;entryY=0;entryDx=0;entryDy=0;" parent="1" source="85" target="92" edge="1">
                    <mxGeometry relative="1" as="geometry"/>
                </mxCell>
                <mxCell id="85" value="&lt;font color=&quot;#ffff99&quot;&gt;&amp;lt;JavaSrciptArticle /&amp;gt;&lt;/font&gt;" style="rounded=1;whiteSpace=wrap;html=1;fillColor=none;" parent="1" vertex="1">
                    <mxGeometry x="140" y="450" width="108" height="60" as="geometry"/>
                </mxCell>
                <mxCell id="95" style="edgeStyle=orthogonalEdgeStyle;rounded=0;orthogonalLoop=1;jettySize=auto;html=1;entryX=0.5;entryY=0;entryDx=0;entryDy=0;" parent="1" source="86" target="92" edge="1">
                    <mxGeometry relative="1" as="geometry">
                        <Array as="points">
                            <mxPoint x="316" y="550"/>
                            <mxPoint x="193" y="550"/>
                        </Array>
                    </mxGeometry>
                </mxCell>
                <mxCell id="86" value="&lt;font color=&quot;#ffff99&quot;&gt;&amp;lt;ReactArticle /&amp;gt;&lt;/font&gt;" style="rounded=1;whiteSpace=wrap;html=1;fillColor=none;" parent="1" vertex="1">
                    <mxGeometry x="262" y="450" width="108" height="60" as="geometry"/>
                </mxCell>
                <mxCell id="92" value="&lt;font color=&quot;#00cc66&quot;&gt;&amp;lt;p .../&amp;gt;Наименование категории (например, JS)&lt;br&gt;&lt;/font&gt;&lt;span style=&quot;color: rgb(0 , 204 , 102)&quot;&gt;&amp;lt;p .../&amp;gt;Число публиккаций&lt;br&gt;&lt;/span&gt;&lt;span style=&quot;color: rgb(0 , 204 , 102)&quot;&gt;&amp;lt;p .../&amp;gt;Дата последней публикации&lt;/span&gt;&lt;font color=&quot;#00cc66&quot;&gt;&lt;br&gt;&lt;/font&gt;" style="rounded=1;whiteSpace=wrap;html=1;fillColor=none;" parent="1" vertex="1">
                    <mxGeometry x="56" y="590" width="274" height="50" as="geometry"/>
                </mxCell>
                <mxCell id="n1FWmDKXYPHYrl-xNab7-270" style="edgeStyle=orthogonalEdgeStyle;rounded=0;orthogonalLoop=1;jettySize=auto;html=1;entryX=0.5;entryY=0;entryDx=0;entryDy=0;" parent="1" source="96" target="n1FWmDKXYPHYrl-xNab7-269" edge="1">
                    <mxGeometry relative="1" as="geometry"/>
                </mxCell>
                <mxCell id="96" value="&lt;font color=&quot;#ffff99&quot;&gt;&amp;lt;Post /&amp;gt;&lt;/font&gt;" style="rounded=1;whiteSpace=wrap;html=1;fillColor=none;" parent="1" vertex="1">
                    <mxGeometry x="388" y="300" width="108" height="60" as="geometry"/>
                </mxCell>
                <mxCell id="209" style="edgeStyle=orthogonalEdgeStyle;rounded=0;orthogonalLoop=1;jettySize=auto;html=1;entryX=0.5;entryY=0;entryDx=0;entryDy=0;" parent="1" source="125" target="142" edge="1">
                    <mxGeometry relative="1" as="geometry">
                        <Array as="points">
                            <mxPoint x="80" y="170"/>
                            <mxPoint x="80" y="280"/>
                            <mxPoint x="-190" y="280"/>
                            <mxPoint x="-190" y="930"/>
                            <mxPoint x="330" y="930"/>
                        </Array>
                    </mxGeometry>
                </mxCell>
                <mxCell id="255" style="edgeStyle=orthogonalEdgeStyle;rounded=0;orthogonalLoop=1;jettySize=auto;html=1;entryX=0.5;entryY=0;entryDx=0;entryDy=0;" parent="1" source="125" target="82" edge="1">
                    <mxGeometry relative="1" as="geometry"/>
                </mxCell>
                <mxCell id="256" style="edgeStyle=orthogonalEdgeStyle;rounded=0;orthogonalLoop=1;jettySize=auto;html=1;entryX=0.5;entryY=0;entryDx=0;entryDy=0;" parent="1" source="125" target="96" edge="1">
                    <mxGeometry relative="1" as="geometry"/>
                </mxCell>
                <mxCell id="257" style="edgeStyle=orthogonalEdgeStyle;rounded=0;orthogonalLoop=1;jettySize=auto;html=1;entryX=0.5;entryY=0;entryDx=0;entryDy=0;" parent="1" source="125" target="228" edge="1">
                    <mxGeometry relative="1" as="geometry">
                        <mxPoint x="960" y="250" as="targetPoint"/>
                    </mxGeometry>
                </mxCell>
                <mxCell id="125" value="&lt;font color=&quot;#ffffff&quot;&gt;Home&lt;/font&gt;" style="rounded=1;whiteSpace=wrap;html=1;fillColor=#008a00;strokeColor=#005700;fontColor=#ffffff;" parent="1" vertex="1">
                    <mxGeometry x="310" y="140" width="120" height="60" as="geometry"/>
                </mxCell>
                <mxCell id="129" value="&lt;font color=&quot;#ff99cc&quot;&gt;&amp;lt;Common/&amp;gt;&lt;/font&gt;" style="rounded=1;whiteSpace=wrap;html=1;fillColor=none;" parent="1" vertex="1">
                    <mxGeometry x="468" y="610" width="120" height="60" as="geometry"/>
                </mxCell>
                <mxCell id="184" style="edgeStyle=orthogonalEdgeStyle;rounded=0;orthogonalLoop=1;jettySize=auto;html=1;entryX=0.5;entryY=0;entryDx=0;entryDy=0;" parent="1" source="135" target="142" edge="1">
                    <mxGeometry relative="1" as="geometry">
                        <Array as="points">
                            <mxPoint x="1630" y="170"/>
                            <mxPoint x="1630" y="970"/>
                            <mxPoint x="330" y="970"/>
                        </Array>
                    </mxGeometry>
                </mxCell>
                <mxCell id="fsjzeP0p0ZDA56T6Dv51-256" style="edgeStyle=orthogonalEdgeStyle;rounded=0;orthogonalLoop=1;jettySize=auto;html=1;entryX=0.5;entryY=0;entryDx=0;entryDy=0;" parent="1" source="135" edge="1">
                    <mxGeometry relative="1" as="geometry">
                        <mxPoint x="1770" y="260" as="targetPoint"/>
                    </mxGeometry>
                </mxCell>
                <mxCell id="135" value="&lt;font color=&quot;#ffffff&quot;&gt;TextPage&lt;/font&gt;" style="rounded=1;whiteSpace=wrap;html=1;fillColor=#1ba1e2;strokeColor=#006EAF;fontColor=#ffffff;" parent="1" vertex="1">
                    <mxGeometry x="1680" y="140" width="120" height="60" as="geometry"/>
                </mxCell>
                <mxCell id="138" style="edgeStyle=orthogonalEdgeStyle;rounded=0;orthogonalLoop=1;jettySize=auto;html=1;entryX=0.5;entryY=0;entryDx=0;entryDy=0;" parent="1" source="142" target="144" edge="1">
                    <mxGeometry relative="1" as="geometry"/>
                </mxCell>
                <mxCell id="139" style="edgeStyle=orthogonalEdgeStyle;rounded=0;orthogonalLoop=1;jettySize=auto;html=1;entryX=0.5;entryY=0;entryDx=0;entryDy=0;" parent="1" source="142" target="146" edge="1">
                    <mxGeometry relative="1" as="geometry"/>
                </mxCell>
                <mxCell id="140" style="edgeStyle=orthogonalEdgeStyle;rounded=0;orthogonalLoop=1;jettySize=auto;html=1;entryX=0.5;entryY=0;entryDx=0;entryDy=0;" parent="1" source="142" target="150" edge="1">
                    <mxGeometry relative="1" as="geometry"/>
                </mxCell>
                <mxCell id="141" style="edgeStyle=orthogonalEdgeStyle;rounded=0;orthogonalLoop=1;jettySize=auto;html=1;entryX=0.5;entryY=0;entryDx=0;entryDy=0;" parent="1" source="142" target="153" edge="1">
                    <mxGeometry relative="1" as="geometry"/>
                </mxCell>
                <mxCell id="182" style="edgeStyle=orthogonalEdgeStyle;rounded=0;orthogonalLoop=1;jettySize=auto;html=1;entryX=0;entryY=0.5;entryDx=0;entryDy=0;" parent="1" source="142" target="175" edge="1">
                    <mxGeometry relative="1" as="geometry"/>
                </mxCell>
                <mxCell id="188" style="edgeStyle=orthogonalEdgeStyle;rounded=0;orthogonalLoop=1;jettySize=auto;html=1;entryX=0.5;entryY=0;entryDx=0;entryDy=0;" parent="1" source="142" target="3" edge="1">
                    <mxGeometry relative="1" as="geometry"/>
                </mxCell>
                <mxCell id="254" style="edgeStyle=orthogonalEdgeStyle;rounded=0;orthogonalLoop=1;jettySize=auto;html=1;entryX=0;entryY=0.5;entryDx=0;entryDy=0;" parent="1" source="142" target="253" edge="1">
                    <mxGeometry relative="1" as="geometry">
                        <Array as="points">
                            <mxPoint x="330" y="1020"/>
                        </Array>
                    </mxGeometry>
                </mxCell>
                <mxCell id="142" value="&lt;font color=&quot;#ff99cc&quot;&gt;&amp;lt;Common/&amp;gt;&lt;/font&gt;" style="rounded=1;whiteSpace=wrap;html=1;fillColor=none;" parent="1" vertex="1">
                    <mxGeometry x="270" y="1096" width="120" height="60" as="geometry"/>
                </mxCell>
                <mxCell id="143" style="edgeStyle=orthogonalEdgeStyle;rounded=0;orthogonalLoop=1;jettySize=auto;html=1;" parent="1" source="144" target="147" edge="1">
                    <mxGeometry relative="1" as="geometry"/>
                </mxCell>
                <mxCell id="144" value="&lt;font color=&quot;#ffff99&quot;&gt;&amp;lt;Title /&amp;gt;&lt;/font&gt;" style="rounded=1;whiteSpace=wrap;html=1;fillColor=none;" parent="1" vertex="1">
                    <mxGeometry x="260" y="1216" width="70" height="60" as="geometry"/>
                </mxCell>
                <mxCell id="145" style="edgeStyle=orthogonalEdgeStyle;rounded=0;orthogonalLoop=1;jettySize=auto;html=1;entryX=0.5;entryY=0;entryDx=0;entryDy=0;" parent="1" source="146" target="148" edge="1">
                    <mxGeometry relative="1" as="geometry"/>
                </mxCell>
                <mxCell id="146" value="&lt;font color=&quot;#ffff99&quot;&gt;&amp;lt;SubTitle/&amp;gt;&lt;/font&gt;" style="rounded=1;whiteSpace=wrap;html=1;fillColor=none;" parent="1" vertex="1">
                    <mxGeometry x="370" y="1216" width="70" height="60" as="geometry"/>
                </mxCell>
                <mxCell id="147" value="&lt;font color=&quot;#00cc66&quot;&gt;&amp;lt;h2 .../&amp;gt;&lt;br&gt;&lt;/font&gt;" style="rounded=1;whiteSpace=wrap;html=1;fillColor=none;" parent="1" vertex="1">
                    <mxGeometry x="270" y="1336" width="80" height="50" as="geometry"/>
                </mxCell>
                <mxCell id="148" value="&lt;font color=&quot;#00cc66&quot;&gt;&amp;lt;p .../&amp;gt;&lt;br&gt;&lt;/font&gt;" style="rounded=1;whiteSpace=wrap;html=1;fillColor=none;" parent="1" vertex="1">
                    <mxGeometry x="370" y="1336" width="80" height="50" as="geometry"/>
                </mxCell>
                <mxCell id="149" style="edgeStyle=orthogonalEdgeStyle;rounded=0;orthogonalLoop=1;jettySize=auto;html=1;entryX=0.5;entryY=0;entryDx=0;entryDy=0;" parent="1" source="150" target="151" edge="1">
                    <mxGeometry relative="1" as="geometry"/>
                </mxCell>
                <mxCell id="150" value="&lt;font color=&quot;#ffff99&quot;&gt;&amp;lt;Button/&amp;gt;&lt;/font&gt;" style="rounded=1;whiteSpace=wrap;html=1;fillColor=none;" parent="1" vertex="1">
                    <mxGeometry x="480" y="1216" width="70" height="60" as="geometry"/>
                </mxCell>
                <mxCell id="151" value="&lt;font color=&quot;#00cc66&quot;&gt;&amp;lt;button .../&amp;gt;&lt;br&gt;&lt;/font&gt;" style="rounded=1;whiteSpace=wrap;html=1;fillColor=none;" parent="1" vertex="1">
                    <mxGeometry x="480" y="1336" width="80" height="50" as="geometry"/>
                </mxCell>
                <mxCell id="152" style="edgeStyle=orthogonalEdgeStyle;rounded=0;orthogonalLoop=1;jettySize=auto;html=1;" parent="1" source="153" target="154" edge="1">
                    <mxGeometry relative="1" as="geometry"/>
                </mxCell>
                <mxCell id="153" value="&lt;font color=&quot;#ffff99&quot;&gt;&amp;lt;Logo /&amp;gt;&lt;/font&gt;" style="rounded=1;whiteSpace=wrap;html=1;fillColor=none;" parent="1" vertex="1">
                    <mxGeometry x="156" y="1216" width="70" height="60" as="geometry"/>
                </mxCell>
                <mxCell id="154" value="&lt;font color=&quot;#00cc66&quot;&gt;&amp;lt;img .../&amp;gt;&lt;/font&gt;" style="rounded=1;whiteSpace=wrap;html=1;fillColor=none;" parent="1" vertex="1">
                    <mxGeometry x="138" y="1336" width="80" height="46" as="geometry"/>
                </mxCell>
                <mxCell id="213" style="edgeStyle=orthogonalEdgeStyle;rounded=0;orthogonalLoop=1;jettySize=auto;html=1;exitX=0;exitY=0.5;exitDx=0;exitDy=0;" parent="1" source="156" edge="1">
                    <mxGeometry relative="1" as="geometry">
                        <mxPoint x="1630" y="850" as="targetPoint"/>
                        <Array as="points">
                            <mxPoint x="1930" y="170"/>
                            <mxPoint x="1930" y="800"/>
                            <mxPoint x="1800" y="800"/>
                            <mxPoint x="1800" y="810"/>
                            <mxPoint x="1670" y="810"/>
                            <mxPoint x="1670" y="850"/>
                        </Array>
                    </mxGeometry>
                </mxCell>
                <mxCell id="fsjzeP0p0ZDA56T6Dv51-258" style="edgeStyle=orthogonalEdgeStyle;rounded=0;orthogonalLoop=1;jettySize=auto;html=1;entryX=0;entryY=0.5;entryDx=0;entryDy=0;" parent="1" source="156" edge="1">
                    <mxGeometry relative="1" as="geometry">
                        <mxPoint x="2150" y="250" as="targetPoint"/>
                    </mxGeometry>
                </mxCell>
                <mxCell id="156" value="&lt;font color=&quot;#ffffff&quot;&gt;Works&lt;/font&gt;" style="rounded=1;whiteSpace=wrap;html=1;fillColor=#f0a30a;strokeColor=#BD7000;fontColor=#000000;" parent="1" vertex="1">
                    <mxGeometry x="2090" y="140" width="120" height="60" as="geometry"/>
                </mxCell>
                <mxCell id="161" style="edgeStyle=orthogonalEdgeStyle;rounded=0;orthogonalLoop=1;jettySize=auto;html=1;entryX=0;entryY=0.5;entryDx=0;entryDy=0;" parent="1" source="158" target="160" edge="1">
                    <mxGeometry relative="1" as="geometry"/>
                </mxCell>
                <mxCell id="fsjzeP0p0ZDA56T6Dv51-262" style="edgeStyle=orthogonalEdgeStyle;rounded=0;orthogonalLoop=1;jettySize=auto;html=1;entryX=0.5;entryY=0;entryDx=0;entryDy=0;" parent="1" source="158" edge="1">
                    <mxGeometry relative="1" as="geometry">
                        <mxPoint x="-940" y="270" as="targetPoint"/>
                    </mxGeometry>
                </mxCell>
                <mxCell id="158" value="&lt;font color=&quot;#ffffff&quot;&gt;Profile&lt;/font&gt;" style="rounded=1;whiteSpace=wrap;html=1;fillColor=#e51400;fontColor=#ffffff;strokeColor=#AB0000;" parent="1" vertex="1">
                    <mxGeometry x="-1000" y="150" width="120" height="60" as="geometry"/>
                </mxCell>
                <mxCell id="208" style="edgeStyle=orthogonalEdgeStyle;rounded=0;orthogonalLoop=1;jettySize=auto;html=1;entryX=0.5;entryY=0;entryDx=0;entryDy=0;" parent="1" source="160" target="142" edge="1">
                    <mxGeometry relative="1" as="geometry">
                        <Array as="points">
                            <mxPoint x="-780" y="640"/>
                            <mxPoint x="-450" y="640"/>
                            <mxPoint x="-450" y="1010"/>
                            <mxPoint x="330" y="1010"/>
                        </Array>
                    </mxGeometry>
                </mxCell>
                <mxCell id="160" value="&lt;font color=&quot;#ffffff&quot;&gt;Auth&lt;/font&gt;" style="rounded=1;whiteSpace=wrap;html=1;fillColor=#e51400;fontColor=#ffffff;strokeColor=#AB0000;" parent="1" vertex="1">
                    <mxGeometry x="-840" y="150" width="120" height="60" as="geometry"/>
                </mxCell>
                <mxCell id="211" style="edgeStyle=orthogonalEdgeStyle;rounded=0;orthogonalLoop=1;jettySize=auto;html=1;entryX=0.5;entryY=0;entryDx=0;entryDy=0;" parent="1" source="162" target="142" edge="1">
                    <mxGeometry relative="1" as="geometry">
                        <mxPoint x="320" y="1100" as="targetPoint"/>
                        <Array as="points">
                            <mxPoint x="-1300" y="170"/>
                            <mxPoint x="-1300" y="1070"/>
                            <mxPoint x="330" y="1070"/>
                        </Array>
                    </mxGeometry>
                </mxCell>
                <mxCell id="fsjzeP0p0ZDA56T6Dv51-261" style="edgeStyle=orthogonalEdgeStyle;rounded=0;orthogonalLoop=1;jettySize=auto;html=1;entryX=0.5;entryY=0;entryDx=0;entryDy=0;" parent="1" source="162" edge="1">
                    <mxGeometry relative="1" as="geometry">
                        <mxPoint x="-1530" y="270" as="targetPoint"/>
                    </mxGeometry>
                </mxCell>
                <mxCell id="162" value="SearchResult" style="rounded=1;whiteSpace=wrap;html=1;fillColor=#d80073;fontColor=#ffffff;strokeColor=#A50040;" parent="1" vertex="1">
                    <mxGeometry x="-1590" y="140" width="120" height="60" as="geometry"/>
                </mxCell>
                <mxCell id="173" style="edgeStyle=orthogonalEdgeStyle;rounded=0;orthogonalLoop=1;jettySize=auto;html=1;entryX=0.5;entryY=0;entryDx=0;entryDy=0;" parent="1" source="175" target="180" edge="1">
                    <mxGeometry relative="1" as="geometry"/>
                </mxCell>
                <mxCell id="174" style="edgeStyle=orthogonalEdgeStyle;rounded=0;orthogonalLoop=1;jettySize=auto;html=1;entryX=0.6;entryY=0.017;entryDx=0;entryDy=0;entryPerimeter=0;" parent="1" source="175" target="178" edge="1">
                    <mxGeometry relative="1" as="geometry"/>
                </mxCell>
                <mxCell id="175" value="&lt;font color=&quot;#6666ff&quot;&gt;&amp;lt;Header /&amp;gt;&lt;/font&gt;" style="rounded=1;whiteSpace=wrap;html=1;fillColor=none;" parent="1" vertex="1">
                    <mxGeometry x="757" y="1096" width="120" height="60" as="geometry"/>
                </mxCell>
                <mxCell id="176" value="&lt;font color=&quot;#00cc66&quot;&gt;&amp;lt;nav&amp;gt;...&amp;lt;/nav&amp;gt;&lt;/font&gt;" style="rounded=1;whiteSpace=wrap;html=1;fillColor=none;" parent="1" vertex="1">
                    <mxGeometry x="680" y="1296" width="120" height="60" as="geometry"/>
                </mxCell>
                <mxCell id="177" style="edgeStyle=orthogonalEdgeStyle;rounded=0;orthogonalLoop=1;jettySize=auto;html=1;entryX=0.567;entryY=0;entryDx=0;entryDy=0;entryPerimeter=0;" parent="1" source="178" target="181" edge="1">
                    <mxGeometry relative="1" as="geometry"/>
                </mxCell>
                <mxCell id="178" value="&lt;font color=&quot;#ffff99&quot;&gt;Search&lt;/font&gt;" style="rounded=1;whiteSpace=wrap;html=1;fillColor=none;" parent="1" vertex="1">
                    <mxGeometry x="840" y="1196" width="120" height="60" as="geometry"/>
                </mxCell>
                <mxCell id="179" style="edgeStyle=orthogonalEdgeStyle;rounded=0;orthogonalLoop=1;jettySize=auto;html=1;entryX=0.5;entryY=0;entryDx=0;entryDy=0;" parent="1" source="180" target="176" edge="1">
                    <mxGeometry relative="1" as="geometry"/>
                </mxCell>
                <mxCell id="180" value="&lt;font color=&quot;#ffff99&quot;&gt;NavBar&lt;/font&gt;" style="rounded=1;whiteSpace=wrap;html=1;fillColor=none;" parent="1" vertex="1">
                    <mxGeometry x="680" y="1196" width="120" height="60" as="geometry"/>
                </mxCell>
                <mxCell id="181" value="&lt;font color=&quot;#00cc66&quot;&gt;&amp;lt;input&amp;gt;...&lt;/font&gt;" style="rounded=1;whiteSpace=wrap;html=1;fillColor=none;" parent="1" vertex="1">
                    <mxGeometry x="852" y="1296" width="120" height="60" as="geometry"/>
                </mxCell>
                <mxCell id="193" value="&lt;font style=&quot;font-size: 24px&quot;&gt;Header/Sidebar&lt;/font&gt;" style="text;html=1;strokeColor=none;fillColor=none;align=center;verticalAlign=middle;whiteSpace=wrap;rounded=0;" parent="1" vertex="1">
                    <mxGeometry x="877" y="920" width="170" height="20" as="geometry"/>
                </mxCell>
                <mxCell id="199" value="&lt;font style=&quot;font-size: 24px&quot;&gt;Header/Sidebar&lt;/font&gt;" style="text;html=1;strokeColor=none;fillColor=none;align=center;verticalAlign=middle;whiteSpace=wrap;rounded=0;" parent="1" vertex="1">
                    <mxGeometry x="1410" y="393" width="170" height="20" as="geometry"/>
                </mxCell>
                <mxCell id="201" value="&lt;font style=&quot;font-size: 24px&quot;&gt;Header/Sidebar&lt;/font&gt;" style="text;html=1;strokeColor=none;fillColor=none;align=center;verticalAlign=middle;whiteSpace=wrap;rounded=0;" parent="1" vertex="1">
                    <mxGeometry x="-710" y="565" width="170" height="60" as="geometry"/>
                </mxCell>
                <mxCell id="202" value="&lt;font style=&quot;font-size: 24px&quot;&gt;Header/Sidebar&lt;/font&gt;" style="text;html=1;strokeColor=none;fillColor=none;align=center;verticalAlign=middle;whiteSpace=wrap;rounded=0;" parent="1" vertex="1">
                    <mxGeometry x="-1310" y="490" width="170" height="20" as="geometry"/>
                </mxCell>
                <mxCell id="210" value="&lt;font style=&quot;font-size: 24px&quot;&gt;Header/Sidebar&lt;/font&gt;" style="text;html=1;strokeColor=none;fillColor=none;align=center;verticalAlign=middle;whiteSpace=wrap;rounded=0;" parent="1" vertex="1">
                    <mxGeometry x="-191" y="505" width="170" height="60" as="geometry"/>
                </mxCell>
                <mxCell id="218" value="&lt;font style=&quot;font-size: 24px&quot;&gt;Logo&lt;/font&gt;" style="text;html=1;strokeColor=none;fillColor=none;align=center;verticalAlign=middle;whiteSpace=wrap;rounded=0;" parent="1" vertex="1">
                    <mxGeometry x="-440" y="1590" width="40" height="20" as="geometry"/>
                </mxCell>
                <mxCell id="219" value="&lt;font style=&quot;font-size: 24px&quot;&gt;Title, Text&lt;/font&gt;" style="text;html=1;strokeColor=none;fillColor=none;align=center;verticalAlign=middle;whiteSpace=wrap;rounded=0;" parent="1" vertex="1">
                    <mxGeometry x="-270" y="1500" width="40" height="20" as="geometry"/>
                </mxCell>
                <mxCell id="220" value="&lt;font style=&quot;font-size: 24px&quot;&gt;Text&lt;/font&gt;" style="text;html=1;strokeColor=none;fillColor=none;align=center;verticalAlign=middle;whiteSpace=wrap;rounded=0;" parent="1" vertex="1">
                    <mxGeometry x="10" y="1480" width="40" height="20" as="geometry"/>
                </mxCell>
                <mxCell id="233" style="edgeStyle=orthogonalEdgeStyle;rounded=0;orthogonalLoop=1;jettySize=auto;html=1;entryX=0.427;entryY=-0.05;entryDx=0;entryDy=0;entryPerimeter=0;" parent="1" source="228" target="230" edge="1">
                    <mxGeometry relative="1" as="geometry"/>
                </mxCell>
                <mxCell id="234" style="edgeStyle=orthogonalEdgeStyle;rounded=0;orthogonalLoop=1;jettySize=auto;html=1;entryX=0.5;entryY=0;entryDx=0;entryDy=0;" parent="1" source="228" target="231" edge="1">
                    <mxGeometry relative="1" as="geometry"/>
                </mxCell>
                <mxCell id="228" value="&lt;font color=&quot;#ffff99&quot;&gt;&amp;lt;Notes /&amp;gt;&lt;/font&gt;" style="rounded=1;whiteSpace=wrap;html=1;fillColor=none;" parent="1" vertex="1">
                    <mxGeometry x="1014" y="290" width="108" height="60" as="geometry"/>
                </mxCell>
                <mxCell id="261" style="edgeStyle=orthogonalEdgeStyle;rounded=0;orthogonalLoop=1;jettySize=auto;html=1;entryX=0.5;entryY=0;entryDx=0;entryDy=0;" parent="1" source="230" target="258" edge="1">
                    <mxGeometry relative="1" as="geometry"/>
                </mxCell>
                <mxCell id="230" value="&lt;font color=&quot;#ffff99&quot;&gt;&amp;lt;Entering Notes /&amp;gt;&lt;/font&gt;" style="rounded=1;whiteSpace=wrap;html=1;fillColor=none;" parent="1" vertex="1">
                    <mxGeometry x="940" y="400" width="108" height="60" as="geometry"/>
                </mxCell>
                <mxCell id="269" style="edgeStyle=orthogonalEdgeStyle;rounded=0;orthogonalLoop=1;jettySize=auto;html=1;" parent="1" source="231" target="268" edge="1">
                    <mxGeometry relative="1" as="geometry"/>
                </mxCell>
                <mxCell id="231" value="&lt;font color=&quot;#ffff99&quot;&gt;&amp;lt;View Notes /&amp;gt;&lt;/font&gt;" style="rounded=1;whiteSpace=wrap;html=1;fillColor=none;" parent="1" vertex="1">
                    <mxGeometry x="1104" y="400" width="108" height="60" as="geometry"/>
                </mxCell>
                <mxCell id="251" style="edgeStyle=orthogonalEdgeStyle;rounded=0;orthogonalLoop=1;jettySize=auto;html=1;" parent="1" source="248" target="249" edge="1">
                    <mxGeometry relative="1" as="geometry"/>
                </mxCell>
                <mxCell id="248" value="&lt;font color=&quot;#ffff99&quot;&gt;&amp;lt;Tags /&amp;gt;&lt;/font&gt;" style="rounded=1;whiteSpace=wrap;html=1;fillColor=none;" parent="1" vertex="1">
                    <mxGeometry x="1024" y="1200" width="80" height="60" as="geometry"/>
                </mxCell>
                <mxCell id="249" value="&lt;font color=&quot;#00cc66&quot;&gt;&amp;lt;p&amp;gt; ... &amp;lt;/p&amp;gt;&lt;br&gt;&amp;lt;span .../&amp;gt;Дата публикации&lt;br&gt;&lt;/font&gt;&lt;font color=&quot;#00cc66&quot;&gt;&lt;br&gt;&lt;/font&gt;" style="rounded=1;whiteSpace=wrap;html=1;fillColor=none;" parent="1" vertex="1">
                    <mxGeometry x="916" y="1410" width="193" height="50" as="geometry"/>
                </mxCell>
                <mxCell id="266" style="edgeStyle=orthogonalEdgeStyle;rounded=0;orthogonalLoop=1;jettySize=auto;html=1;" parent="1" source="253" target="248" edge="1">
                    <mxGeometry relative="1" as="geometry"/>
                </mxCell>
                <mxCell id="253" value="&lt;font color=&quot;#6666ff&quot;&gt;&amp;lt;Card/&amp;gt;&lt;/font&gt;" style="rounded=1;whiteSpace=wrap;html=1;fillColor=none;" parent="1" vertex="1">
                    <mxGeometry x="972" y="1100" width="120" height="60" as="geometry"/>
                </mxCell>
                <mxCell id="263" style="edgeStyle=orthogonalEdgeStyle;rounded=0;orthogonalLoop=1;jettySize=auto;html=1;entryX=0.5;entryY=0;entryDx=0;entryDy=0;" parent="1" source="258" target="262" edge="1">
                    <mxGeometry relative="1" as="geometry"/>
                </mxCell>
                <mxCell id="258" value="&lt;font color=&quot;#00cc00&quot;&gt;&amp;lt;form&amp;gt;&lt;br&gt;&amp;lt;textarea /&amp;gt;&lt;br&gt;&amp;lt;Action /&amp;gt;&lt;br&gt;&amp;lt;/form&amp;gt;&lt;/font&gt;" style="rounded=1;whiteSpace=wrap;html=1;fillColor=none;" parent="1" vertex="1">
                    <mxGeometry x="940" y="500" width="108" height="60" as="geometry"/>
                </mxCell>
                <mxCell id="265" style="edgeStyle=orthogonalEdgeStyle;rounded=0;orthogonalLoop=1;jettySize=auto;html=1;entryX=0.5;entryY=0;entryDx=0;entryDy=0;" parent="1" source="262" target="264" edge="1">
                    <mxGeometry relative="1" as="geometry"/>
                </mxCell>
                <mxCell id="262" value="&lt;font color=&quot;#ffff99&quot;&gt;&amp;lt;Action /&amp;gt;&lt;/font&gt;" style="rounded=1;whiteSpace=wrap;html=1;fillColor=none;" parent="1" vertex="1">
                    <mxGeometry x="943.5" y="600" width="101" height="40" as="geometry"/>
                </mxCell>
                <mxCell id="264" value="&lt;font color=&quot;#00cc00&quot;&gt;&amp;lt;&amp;gt;&lt;br&gt;&amp;lt;textarea /&amp;gt;&lt;br&gt;&amp;lt;Action /&amp;gt;&lt;br&gt;&amp;lt;/form&amp;gt;&lt;/font&gt;" style="rounded=1;whiteSpace=wrap;html=1;fillColor=none;" parent="1" vertex="1">
                    <mxGeometry x="940" y="670" width="108" height="60" as="geometry"/>
                </mxCell>
                <mxCell id="n1FWmDKXYPHYrl-xNab7-272" style="edgeStyle=orthogonalEdgeStyle;rounded=0;orthogonalLoop=1;jettySize=auto;html=1;entryX=0.5;entryY=1;entryDx=0;entryDy=0;" parent="1" source="268" target="129" edge="1">
                    <mxGeometry relative="1" as="geometry">
                        <Array as="points">
                            <mxPoint x="1152" y="780"/>
                            <mxPoint x="840" y="780"/>
                            <mxPoint x="840" y="690"/>
                            <mxPoint x="528" y="690"/>
                        </Array>
                    </mxGeometry>
                </mxCell>
                <mxCell id="268" value="&lt;font color=&quot;#6666ff&quot;&gt;&amp;lt;Card/&amp;gt;&lt;/font&gt;" style="rounded=1;whiteSpace=wrap;html=1;fillColor=none;" parent="1" vertex="1">
                    <mxGeometry x="1092" y="520" width="120" height="60" as="geometry"/>
                </mxCell>
                <mxCell id="n1FWmDKXYPHYrl-xNab7-271" style="edgeStyle=orthogonalEdgeStyle;rounded=0;orthogonalLoop=1;jettySize=auto;html=1;entryX=0.5;entryY=0;entryDx=0;entryDy=0;" parent="1" source="n1FWmDKXYPHYrl-xNab7-269" target="129" edge="1">
                    <mxGeometry relative="1" as="geometry"/>
                </mxCell>
                <mxCell id="n1FWmDKXYPHYrl-xNab7-269" value="&lt;font color=&quot;#6666ff&quot;&gt;&amp;lt;CardPosts/&amp;gt;&lt;/font&gt;" style="rounded=1;whiteSpace=wrap;html=1;fillColor=none;" parent="1" vertex="1">
                    <mxGeometry x="430" y="430" width="120" height="60" as="geometry"/>
                </mxCell>
                <mxCell id="270" value="&lt;font color=&quot;#ffff99&quot;&gt;&amp;lt;Article/&amp;gt;&lt;/font&gt;" style="rounded=1;whiteSpace=wrap;html=1;fillColor=none;" parent="1" vertex="1">
                    <mxGeometry x="1690" y="260" width="120" height="60" as="geometry"/>
                </mxCell>
                <mxCell id="271" value="&lt;font color=&quot;#6666ff&quot;&gt;&amp;lt;Card/&amp;gt;&lt;/font&gt;" style="rounded=1;whiteSpace=wrap;html=1;fillColor=none;" parent="1" vertex="1">
                    <mxGeometry x="1690" y="353" width="120" height="60" as="geometry"/>
                </mxCell>
                <mxCell id="272" value="&lt;font color=&quot;#6666ff&quot;&gt;&amp;lt;CardPosts/&amp;gt;&lt;/font&gt;" style="rounded=1;whiteSpace=wrap;html=1;fillColor=none;" parent="1" vertex="1">
                    <mxGeometry x="-1590" y="270" width="120" height="60" as="geometry"/>
                </mxCell>
            </root>
        </mxGraphModel>
    </diagram>
    <diagram name="UI/BLL" id="lCsPIpD7T7aAtvqpShQ0">
        <mxGraphModel dx="2909" dy="1549" grid="1" gridSize="10" guides="1" tooltips="1" connect="1" arrows="1" fold="1" page="1" pageScale="1" pageWidth="583" pageHeight="827" math="0" shadow="0">
            <root>
                <mxCell id="9auC6HD-h7A25hWjYyD8-0"/>
                <mxCell id="9auC6HD-h7A25hWjYyD8-1" parent="9auC6HD-h7A25hWjYyD8-0"/>
                <mxCell id="9auC6HD-h7A25hWjYyD8-123" value="" style="rounded=1;whiteSpace=wrap;html=1;fillColor=#30301D;" parent="9auC6HD-h7A25hWjYyD8-1" vertex="1">
                    <mxGeometry x="420" y="414" width="108" height="60" as="geometry"/>
                </mxCell>
                <mxCell id="9auC6HD-h7A25hWjYyD8-2" style="edgeStyle=orthogonalEdgeStyle;rounded=0;orthogonalLoop=1;jettySize=auto;html=1;entryX=0.5;entryY=0;entryDx=0;entryDy=0;" parent="9auC6HD-h7A25hWjYyD8-1" source="9auC6HD-h7A25hWjYyD8-7" target="9auC6HD-h7A25hWjYyD8-45" edge="1">
                    <mxGeometry relative="1" as="geometry"/>
                </mxCell>
                <mxCell id="9auC6HD-h7A25hWjYyD8-3" style="edgeStyle=orthogonalEdgeStyle;rounded=0;orthogonalLoop=1;jettySize=auto;html=1;entryX=0.75;entryY=0;entryDx=0;entryDy=0;" parent="9auC6HD-h7A25hWjYyD8-1" source="9auC6HD-h7A25hWjYyD8-7" target="9auC6HD-h7A25hWjYyD8-49" edge="1">
                    <mxGeometry relative="1" as="geometry"/>
                </mxCell>
                <mxCell id="9auC6HD-h7A25hWjYyD8-4" style="edgeStyle=orthogonalEdgeStyle;rounded=0;orthogonalLoop=1;jettySize=auto;html=1;entryX=0.5;entryY=0;entryDx=0;entryDy=0;" parent="9auC6HD-h7A25hWjYyD8-1" source="9auC6HD-h7A25hWjYyD8-7" target="9auC6HD-h7A25hWjYyD8-72" edge="1">
                    <mxGeometry relative="1" as="geometry"/>
                </mxCell>
                <mxCell id="9auC6HD-h7A25hWjYyD8-5" style="edgeStyle=orthogonalEdgeStyle;rounded=0;orthogonalLoop=1;jettySize=auto;html=1;entryX=0.5;entryY=0;entryDx=0;entryDy=0;" parent="9auC6HD-h7A25hWjYyD8-1" source="9auC6HD-h7A25hWjYyD8-7" target="9auC6HD-h7A25hWjYyD8-75" edge="1">
                    <mxGeometry relative="1" as="geometry"/>
                </mxCell>
                <mxCell id="9auC6HD-h7A25hWjYyD8-6" style="edgeStyle=orthogonalEdgeStyle;rounded=0;orthogonalLoop=1;jettySize=auto;html=1;entryX=0.5;entryY=0;entryDx=0;entryDy=0;" parent="9auC6HD-h7A25hWjYyD8-1" source="9auC6HD-h7A25hWjYyD8-7" target="9auC6HD-h7A25hWjYyD8-80" edge="1">
                    <mxGeometry relative="1" as="geometry"/>
                </mxCell>
                <mxCell id="9auC6HD-h7A25hWjYyD8-7" value="&lt;font color=&quot;#ffffff&quot;&gt;APP&lt;/font&gt;" style="rounded=1;whiteSpace=wrap;html=1;fillColor=none;" parent="9auC6HD-h7A25hWjYyD8-1" vertex="1">
                    <mxGeometry x="310" y="20" width="120" height="60" as="geometry"/>
                </mxCell>
                <mxCell id="9auC6HD-h7A25hWjYyD8-8" style="edgeStyle=orthogonalEdgeStyle;rounded=0;orthogonalLoop=1;jettySize=auto;html=1;entryX=0.5;entryY=0;entryDx=0;entryDy=0;" parent="9auC6HD-h7A25hWjYyD8-1" source="9auC6HD-h7A25hWjYyD8-13" target="9auC6HD-h7A25hWjYyD8-15" edge="1">
                    <mxGeometry relative="1" as="geometry"/>
                </mxCell>
                <mxCell id="9auC6HD-h7A25hWjYyD8-9" style="edgeStyle=orthogonalEdgeStyle;rounded=0;orthogonalLoop=1;jettySize=auto;html=1;entryX=0.5;entryY=0;entryDx=0;entryDy=0;" parent="9auC6HD-h7A25hWjYyD8-1" source="9auC6HD-h7A25hWjYyD8-13" target="9auC6HD-h7A25hWjYyD8-17" edge="1">
                    <mxGeometry relative="1" as="geometry"/>
                </mxCell>
                <mxCell id="9auC6HD-h7A25hWjYyD8-10" style="edgeStyle=orthogonalEdgeStyle;rounded=0;orthogonalLoop=1;jettySize=auto;html=1;entryX=0.5;entryY=0;entryDx=0;entryDy=0;" parent="9auC6HD-h7A25hWjYyD8-1" source="9auC6HD-h7A25hWjYyD8-13" target="9auC6HD-h7A25hWjYyD8-19" edge="1">
                    <mxGeometry relative="1" as="geometry"/>
                </mxCell>
                <mxCell id="9auC6HD-h7A25hWjYyD8-11" style="edgeStyle=orthogonalEdgeStyle;rounded=0;orthogonalLoop=1;jettySize=auto;html=1;entryX=0.5;entryY=0;entryDx=0;entryDy=0;" parent="9auC6HD-h7A25hWjYyD8-1" source="9auC6HD-h7A25hWjYyD8-13" target="9auC6HD-h7A25hWjYyD8-20" edge="1">
                    <mxGeometry relative="1" as="geometry"/>
                </mxCell>
                <mxCell id="9auC6HD-h7A25hWjYyD8-12" style="edgeStyle=orthogonalEdgeStyle;rounded=0;orthogonalLoop=1;jettySize=auto;html=1;entryX=0.5;entryY=0;entryDx=0;entryDy=0;" parent="9auC6HD-h7A25hWjYyD8-1" source="9auC6HD-h7A25hWjYyD8-13" target="9auC6HD-h7A25hWjYyD8-27" edge="1">
                    <mxGeometry relative="1" as="geometry"/>
                </mxCell>
                <mxCell id="9auC6HD-h7A25hWjYyD8-13" value="&lt;font color=&quot;#6666ff&quot;&gt;&amp;lt;SideBar /&amp;gt;&lt;/font&gt;" style="rounded=1;whiteSpace=wrap;html=1;fillColor=none;" parent="9auC6HD-h7A25hWjYyD8-1" vertex="1">
                    <mxGeometry x="-270" y="1180" width="120" height="60" as="geometry"/>
                </mxCell>
                <mxCell id="9auC6HD-h7A25hWjYyD8-14" style="edgeStyle=orthogonalEdgeStyle;rounded=0;orthogonalLoop=1;jettySize=auto;html=1;entryX=0;entryY=0.5;entryDx=0;entryDy=0;" parent="9auC6HD-h7A25hWjYyD8-1" source="9auC6HD-h7A25hWjYyD8-15" target="9auC6HD-h7A25hWjYyD8-25" edge="1">
                    <mxGeometry relative="1" as="geometry">
                        <mxPoint x="-110" y="2040" as="targetPoint"/>
                        <Array as="points">
                            <mxPoint x="-380" y="2180"/>
                        </Array>
                    </mxGeometry>
                </mxCell>
                <mxCell id="9auC6HD-h7A25hWjYyD8-15" value="&lt;font color=&quot;#ffff99&quot;&gt;&amp;lt;HeaderSideBar /&amp;gt;&lt;/font&gt;" style="rounded=1;whiteSpace=wrap;html=1;fillColor=none;" parent="9auC6HD-h7A25hWjYyD8-1" vertex="1">
                    <mxGeometry x="-520" y="1300" width="140" height="60" as="geometry"/>
                </mxCell>
                <mxCell id="9auC6HD-h7A25hWjYyD8-16" style="edgeStyle=orthogonalEdgeStyle;rounded=0;orthogonalLoop=1;jettySize=auto;html=1;" parent="9auC6HD-h7A25hWjYyD8-1" source="9auC6HD-h7A25hWjYyD8-17" edge="1">
                    <mxGeometry relative="1" as="geometry">
                        <mxPoint x="-380" y="1720" as="targetPoint"/>
                        <Array as="points">
                            <mxPoint x="-320" y="1410"/>
                            <mxPoint x="-380" y="1410"/>
                        </Array>
                    </mxGeometry>
                </mxCell>
                <mxCell id="9auC6HD-h7A25hWjYyD8-17" value="&lt;font color=&quot;#ffff99&quot;&gt;&amp;lt;Avatar /&amp;gt;&lt;/font&gt;" style="rounded=1;whiteSpace=wrap;html=1;fillColor=none;" parent="9auC6HD-h7A25hWjYyD8-1" vertex="1">
                    <mxGeometry x="-360" y="1290" width="80" height="60" as="geometry"/>
                </mxCell>
                <mxCell id="9auC6HD-h7A25hWjYyD8-18" style="edgeStyle=orthogonalEdgeStyle;rounded=0;orthogonalLoop=1;jettySize=auto;html=1;entryX=0.454;entryY=0.006;entryDx=0;entryDy=0;entryPerimeter=0;" parent="9auC6HD-h7A25hWjYyD8-1" source="9auC6HD-h7A25hWjYyD8-19" target="9auC6HD-h7A25hWjYyD8-25" edge="1">
                    <mxGeometry relative="1" as="geometry">
                        <Array as="points">
                            <mxPoint x="-226" y="1620"/>
                            <mxPoint x="-270" y="1620"/>
                            <mxPoint x="-270" y="1630"/>
                            <mxPoint x="-310" y="1630"/>
                            <mxPoint x="-310" y="2070"/>
                            <mxPoint x="-120" y="2070"/>
                            <mxPoint x="-120" y="2150"/>
                        </Array>
                        <mxPoint x="-120" y="2140" as="targetPoint"/>
                    </mxGeometry>
                </mxCell>
                <mxCell id="9auC6HD-h7A25hWjYyD8-19" value="&lt;font color=&quot;#ffff99&quot;&gt;&amp;lt;Descripton /&amp;gt;&lt;/font&gt;" style="rounded=1;whiteSpace=wrap;html=1;fillColor=none;" parent="9auC6HD-h7A25hWjYyD8-1" vertex="1">
                    <mxGeometry x="-261" y="1290" width="81" height="60" as="geometry"/>
                </mxCell>
                <mxCell id="9auC6HD-h7A25hWjYyD8-20" value="&lt;font color=&quot;#ffff99&quot;&gt;&amp;lt;Social /&amp;gt;&lt;/font&gt;" style="rounded=1;whiteSpace=wrap;html=1;fillColor=none;" parent="9auC6HD-h7A25hWjYyD8-1" vertex="1">
                    <mxGeometry x="-155" y="1290" width="70" height="60" as="geometry"/>
                </mxCell>
                <mxCell id="9auC6HD-h7A25hWjYyD8-21" style="edgeStyle=orthogonalEdgeStyle;rounded=0;orthogonalLoop=1;jettySize=auto;html=1;entryX=0.5;entryY=0;entryDx=0;entryDy=0;exitX=0.25;exitY=1;exitDx=0;exitDy=0;" parent="9auC6HD-h7A25hWjYyD8-1" source="9auC6HD-h7A25hWjYyD8-20" target="9auC6HD-h7A25hWjYyD8-22" edge="1">
                    <mxGeometry relative="1" as="geometry">
                        <mxPoint x="-170" y="1540" as="sourcePoint"/>
                    </mxGeometry>
                </mxCell>
                <mxCell id="9auC6HD-h7A25hWjYyD8-22" value="&lt;font color=&quot;#00cc66&quot;&gt;&amp;lt;a .../&amp;gt;&lt;br&gt;&lt;/font&gt;" style="rounded=1;whiteSpace=wrap;html=1;fillColor=none;" parent="9auC6HD-h7A25hWjYyD8-1" vertex="1">
                    <mxGeometry x="-240" y="1656" width="80" height="50" as="geometry"/>
                </mxCell>
                <mxCell id="9auC6HD-h7A25hWjYyD8-23" value="&lt;font color=&quot;#00cc66&quot;&gt;&amp;lt;a .../&amp;gt;&lt;br&gt;&lt;/font&gt;" style="rounded=1;whiteSpace=wrap;html=1;fillColor=none;" parent="9auC6HD-h7A25hWjYyD8-1" vertex="1">
                    <mxGeometry x="-140" y="1656" width="80" height="50" as="geometry"/>
                </mxCell>
                <mxCell id="9auC6HD-h7A25hWjYyD8-24" style="edgeStyle=orthogonalEdgeStyle;rounded=0;orthogonalLoop=1;jettySize=auto;html=1;entryX=0.5;entryY=0;entryDx=0;entryDy=0;exitX=0.5;exitY=1;exitDx=0;exitDy=0;" parent="9auC6HD-h7A25hWjYyD8-1" source="9auC6HD-h7A25hWjYyD8-20" target="9auC6HD-h7A25hWjYyD8-23" edge="1">
                    <mxGeometry relative="1" as="geometry">
                        <mxPoint x="-70" y="1540" as="sourcePoint"/>
                    </mxGeometry>
                </mxCell>
                <mxCell id="9auC6HD-h7A25hWjYyD8-25" value="&lt;font color=&quot;#ff99cc&quot;&gt;&amp;lt;Common/&amp;gt;&lt;/font&gt;" style="rounded=1;whiteSpace=wrap;html=1;fillColor=none;" parent="9auC6HD-h7A25hWjYyD8-1" vertex="1">
                    <mxGeometry x="-168" y="2150" width="120" height="60" as="geometry"/>
                </mxCell>
                <mxCell id="9auC6HD-h7A25hWjYyD8-26" style="edgeStyle=orthogonalEdgeStyle;rounded=0;orthogonalLoop=1;jettySize=auto;html=1;entryX=0.574;entryY=0.016;entryDx=0;entryDy=0;entryPerimeter=0;" parent="9auC6HD-h7A25hWjYyD8-1" source="9auC6HD-h7A25hWjYyD8-27" target="9auC6HD-h7A25hWjYyD8-25" edge="1">
                    <mxGeometry relative="1" as="geometry">
                        <Array as="points">
                            <mxPoint x="5" y="1880"/>
                            <mxPoint x="-40" y="1880"/>
                            <mxPoint x="-40" y="1960"/>
                            <mxPoint x="-49" y="1960"/>
                            <mxPoint x="-49" y="2080"/>
                            <mxPoint x="-99" y="2080"/>
                        </Array>
                    </mxGeometry>
                </mxCell>
                <mxCell id="9auC6HD-h7A25hWjYyD8-27" value="&lt;font color=&quot;#ffff99&quot;&gt;&amp;lt;AboutMe/&amp;gt;&lt;/font&gt;" style="rounded=1;whiteSpace=wrap;html=1;fillColor=none;" parent="9auC6HD-h7A25hWjYyD8-1" vertex="1">
                    <mxGeometry x="-30" y="1310" width="70" height="60" as="geometry"/>
                </mxCell>
                <mxCell id="9auC6HD-h7A25hWjYyD8-28" style="edgeStyle=orthogonalEdgeStyle;rounded=0;orthogonalLoop=1;jettySize=auto;html=1;entryX=0.5;entryY=0;entryDx=0;entryDy=0;" parent="9auC6HD-h7A25hWjYyD8-1" source="9auC6HD-h7A25hWjYyD8-31" target="9auC6HD-h7A25hWjYyD8-33" edge="1">
                    <mxGeometry relative="1" as="geometry"/>
                </mxCell>
                <mxCell id="9auC6HD-h7A25hWjYyD8-29" style="edgeStyle=orthogonalEdgeStyle;rounded=0;orthogonalLoop=1;jettySize=auto;html=1;entryX=0.5;entryY=0;entryDx=0;entryDy=0;" parent="9auC6HD-h7A25hWjYyD8-1" source="9auC6HD-h7A25hWjYyD8-31" target="9auC6HD-h7A25hWjYyD8-35" edge="1">
                    <mxGeometry relative="1" as="geometry"/>
                </mxCell>
                <mxCell id="9auC6HD-h7A25hWjYyD8-30" style="edgeStyle=orthogonalEdgeStyle;rounded=0;orthogonalLoop=1;jettySize=auto;html=1;entryX=0.5;entryY=0;entryDx=0;entryDy=0;" parent="9auC6HD-h7A25hWjYyD8-1" source="9auC6HD-h7A25hWjYyD8-31" target="9auC6HD-h7A25hWjYyD8-37" edge="1">
                    <mxGeometry relative="1" as="geometry"/>
                </mxCell>
                <mxCell id="9auC6HD-h7A25hWjYyD8-31" value="&lt;font color=&quot;#ffff99&quot;&gt;&amp;lt;CatagoriesArticle /&amp;gt;&lt;/font&gt;" style="rounded=1;whiteSpace=wrap;html=1;fillColor=none;" parent="9auC6HD-h7A25hWjYyD8-1" vertex="1">
                    <mxGeometry x="68" y="300" width="108" height="60" as="geometry"/>
                </mxCell>
                <mxCell id="9auC6HD-h7A25hWjYyD8-32" style="edgeStyle=orthogonalEdgeStyle;rounded=0;orthogonalLoop=1;jettySize=auto;html=1;entryX=0.5;entryY=0;entryDx=0;entryDy=0;" parent="9auC6HD-h7A25hWjYyD8-1" source="9auC6HD-h7A25hWjYyD8-33" target="9auC6HD-h7A25hWjYyD8-38" edge="1">
                    <mxGeometry relative="1" as="geometry"/>
                </mxCell>
                <mxCell id="9auC6HD-h7A25hWjYyD8-33" value="&lt;font color=&quot;#ffff99&quot;&gt;&amp;lt;CssArticles/&amp;gt;&lt;/font&gt;" style="rounded=1;whiteSpace=wrap;html=1;fillColor=none;" parent="9auC6HD-h7A25hWjYyD8-1" vertex="1">
                    <mxGeometry x="-22" y="410" width="108" height="60" as="geometry"/>
                </mxCell>
                <mxCell id="9auC6HD-h7A25hWjYyD8-34" style="edgeStyle=orthogonalEdgeStyle;rounded=0;orthogonalLoop=1;jettySize=auto;html=1;entryX=0.5;entryY=0;entryDx=0;entryDy=0;" parent="9auC6HD-h7A25hWjYyD8-1" source="9auC6HD-h7A25hWjYyD8-35" target="9auC6HD-h7A25hWjYyD8-38" edge="1">
                    <mxGeometry relative="1" as="geometry"/>
                </mxCell>
                <mxCell id="9auC6HD-h7A25hWjYyD8-35" value="&lt;font color=&quot;#ffff99&quot;&gt;&amp;lt;JavaSrciptArticle /&amp;gt;&lt;/font&gt;" style="rounded=1;whiteSpace=wrap;html=1;fillColor=none;" parent="9auC6HD-h7A25hWjYyD8-1" vertex="1">
                    <mxGeometry x="100" y="410" width="108" height="60" as="geometry"/>
                </mxCell>
                <mxCell id="9auC6HD-h7A25hWjYyD8-36" style="edgeStyle=orthogonalEdgeStyle;rounded=0;orthogonalLoop=1;jettySize=auto;html=1;entryX=0.5;entryY=0;entryDx=0;entryDy=0;" parent="9auC6HD-h7A25hWjYyD8-1" source="9auC6HD-h7A25hWjYyD8-37" target="9auC6HD-h7A25hWjYyD8-38" edge="1">
                    <mxGeometry relative="1" as="geometry">
                        <Array as="points">
                            <mxPoint x="276" y="510"/>
                            <mxPoint x="153" y="510"/>
                        </Array>
                    </mxGeometry>
                </mxCell>
                <mxCell id="9auC6HD-h7A25hWjYyD8-37" value="&lt;font color=&quot;#ffff99&quot;&gt;&amp;lt;ReactArticle /&amp;gt;&lt;/font&gt;" style="rounded=1;whiteSpace=wrap;html=1;fillColor=none;" parent="9auC6HD-h7A25hWjYyD8-1" vertex="1">
                    <mxGeometry x="222" y="410" width="108" height="60" as="geometry"/>
                </mxCell>
                <mxCell id="9auC6HD-h7A25hWjYyD8-38" value="&lt;font color=&quot;#00cc66&quot;&gt;&amp;lt;p .../&amp;gt;Наименование категории (например, JS)&lt;br&gt;&lt;/font&gt;&lt;span style=&quot;color: rgb(0 , 204 , 102)&quot;&gt;&amp;lt;p .../&amp;gt;Число публиккаций&lt;br&gt;&lt;/span&gt;&lt;span style=&quot;color: rgb(0 , 204 , 102)&quot;&gt;&amp;lt;p .../&amp;gt;Дата последней публикации&lt;/span&gt;&lt;font color=&quot;#00cc66&quot;&gt;&lt;br&gt;&lt;/font&gt;" style="rounded=1;whiteSpace=wrap;html=1;fillColor=none;" parent="9auC6HD-h7A25hWjYyD8-1" vertex="1">
                    <mxGeometry x="16" y="550" width="274" height="50" as="geometry"/>
                </mxCell>
                <mxCell id="9auC6HD-h7A25hWjYyD8-39" style="edgeStyle=orthogonalEdgeStyle;rounded=0;orthogonalLoop=1;jettySize=auto;html=1;entryX=0.5;entryY=0;entryDx=0;entryDy=0;" parent="9auC6HD-h7A25hWjYyD8-1" source="9auC6HD-h7A25hWjYyD8-40" target="9auC6HD-h7A25hWjYyD8-118" edge="1">
                    <mxGeometry relative="1" as="geometry"/>
                </mxCell>
                <mxCell id="9auC6HD-h7A25hWjYyD8-41" style="edgeStyle=orthogonalEdgeStyle;rounded=0;orthogonalLoop=1;jettySize=auto;html=1;entryX=0.5;entryY=0;entryDx=0;entryDy=0;" parent="9auC6HD-h7A25hWjYyD8-1" source="9auC6HD-h7A25hWjYyD8-45" target="9auC6HD-h7A25hWjYyD8-57" edge="1">
                    <mxGeometry relative="1" as="geometry">
                        <Array as="points">
                            <mxPoint x="80" y="170"/>
                            <mxPoint x="80" y="280"/>
                            <mxPoint x="-190" y="280"/>
                            <mxPoint x="-190" y="930"/>
                            <mxPoint x="330" y="930"/>
                        </Array>
                    </mxGeometry>
                </mxCell>
                <mxCell id="9auC6HD-h7A25hWjYyD8-42" style="edgeStyle=orthogonalEdgeStyle;rounded=0;orthogonalLoop=1;jettySize=auto;html=1;entryX=0.5;entryY=0;entryDx=0;entryDy=0;" parent="9auC6HD-h7A25hWjYyD8-1" source="9auC6HD-h7A25hWjYyD8-45" target="9auC6HD-h7A25hWjYyD8-31" edge="1">
                    <mxGeometry relative="1" as="geometry"/>
                </mxCell>
                <mxCell id="9auC6HD-h7A25hWjYyD8-43" style="edgeStyle=orthogonalEdgeStyle;rounded=0;orthogonalLoop=1;jettySize=auto;html=1;entryX=0.556;entryY=0;entryDx=0;entryDy=0;entryPerimeter=0;" parent="9auC6HD-h7A25hWjYyD8-1" source="9auC6HD-h7A25hWjYyD8-45" target="9auC6HD-h7A25hWjYyD8-126" edge="1">
                    <mxGeometry relative="1" as="geometry">
                        <mxPoint x="420" y="300" as="targetPoint"/>
                        <Array as="points">
                            <mxPoint x="370" y="220"/>
                            <mxPoint x="500" y="220"/>
                        </Array>
                    </mxGeometry>
                </mxCell>
                <mxCell id="9auC6HD-h7A25hWjYyD8-44" style="edgeStyle=orthogonalEdgeStyle;rounded=0;orthogonalLoop=1;jettySize=auto;html=1;entryX=0.5;entryY=0;entryDx=0;entryDy=0;" parent="9auC6HD-h7A25hWjYyD8-1" source="9auC6HD-h7A25hWjYyD8-45" target="9auC6HD-h7A25hWjYyD8-100" edge="1">
                    <mxGeometry relative="1" as="geometry">
                        <mxPoint x="960" y="250" as="targetPoint"/>
                    </mxGeometry>
                </mxCell>
                <mxCell id="9auC6HD-h7A25hWjYyD8-45" value="&lt;font color=&quot;#ffffff&quot;&gt;Home&lt;/font&gt;" style="rounded=1;whiteSpace=wrap;html=1;fillColor=#008a00;strokeColor=#005700;fontColor=#ffffff;" parent="9auC6HD-h7A25hWjYyD8-1" vertex="1">
                    <mxGeometry x="310" y="140" width="120" height="60" as="geometry"/>
                </mxCell>
                <mxCell id="9auC6HD-h7A25hWjYyD8-46" value="&lt;font color=&quot;#ff99cc&quot;&gt;&amp;lt;Common/&amp;gt;&lt;/font&gt;" style="rounded=1;whiteSpace=wrap;html=1;fillColor=none;" parent="9auC6HD-h7A25hWjYyD8-1" vertex="1">
                    <mxGeometry x="505" y="724" width="120" height="60" as="geometry"/>
                </mxCell>
                <mxCell id="9auC6HD-h7A25hWjYyD8-47" style="edgeStyle=orthogonalEdgeStyle;rounded=0;orthogonalLoop=1;jettySize=auto;html=1;entryX=0.5;entryY=0;entryDx=0;entryDy=0;" parent="9auC6HD-h7A25hWjYyD8-1" source="9auC6HD-h7A25hWjYyD8-49" target="9auC6HD-h7A25hWjYyD8-57" edge="1">
                    <mxGeometry relative="1" as="geometry">
                        <Array as="points">
                            <mxPoint x="1630" y="170"/>
                            <mxPoint x="1630" y="970"/>
                            <mxPoint x="330" y="970"/>
                        </Array>
                    </mxGeometry>
                </mxCell>
                <mxCell id="9auC6HD-h7A25hWjYyD8-48" style="edgeStyle=orthogonalEdgeStyle;rounded=0;orthogonalLoop=1;jettySize=auto;html=1;entryX=0.5;entryY=0;entryDx=0;entryDy=0;" parent="9auC6HD-h7A25hWjYyD8-1" source="9auC6HD-h7A25hWjYyD8-49" edge="1">
                    <mxGeometry relative="1" as="geometry">
                        <mxPoint x="1770" y="260" as="targetPoint"/>
                    </mxGeometry>
                </mxCell>
                <mxCell id="9auC6HD-h7A25hWjYyD8-49" value="&lt;font color=&quot;#ffffff&quot;&gt;TextPage&lt;/font&gt;" style="rounded=1;whiteSpace=wrap;html=1;fillColor=#1ba1e2;strokeColor=#006EAF;fontColor=#ffffff;" parent="9auC6HD-h7A25hWjYyD8-1" vertex="1">
                    <mxGeometry x="1680" y="140" width="120" height="60" as="geometry"/>
                </mxCell>
                <mxCell id="9auC6HD-h7A25hWjYyD8-50" style="edgeStyle=orthogonalEdgeStyle;rounded=0;orthogonalLoop=1;jettySize=auto;html=1;entryX=0.5;entryY=0;entryDx=0;entryDy=0;" parent="9auC6HD-h7A25hWjYyD8-1" source="9auC6HD-h7A25hWjYyD8-57" target="9auC6HD-h7A25hWjYyD8-59" edge="1">
                    <mxGeometry relative="1" as="geometry"/>
                </mxCell>
                <mxCell id="9auC6HD-h7A25hWjYyD8-51" style="edgeStyle=orthogonalEdgeStyle;rounded=0;orthogonalLoop=1;jettySize=auto;html=1;entryX=0.5;entryY=0;entryDx=0;entryDy=0;" parent="9auC6HD-h7A25hWjYyD8-1" source="9auC6HD-h7A25hWjYyD8-57" target="9auC6HD-h7A25hWjYyD8-61" edge="1">
                    <mxGeometry relative="1" as="geometry"/>
                </mxCell>
                <mxCell id="9auC6HD-h7A25hWjYyD8-52" style="edgeStyle=orthogonalEdgeStyle;rounded=0;orthogonalLoop=1;jettySize=auto;html=1;entryX=0.5;entryY=0;entryDx=0;entryDy=0;" parent="9auC6HD-h7A25hWjYyD8-1" source="9auC6HD-h7A25hWjYyD8-57" target="9auC6HD-h7A25hWjYyD8-65" edge="1">
                    <mxGeometry relative="1" as="geometry"/>
                </mxCell>
                <mxCell id="9auC6HD-h7A25hWjYyD8-53" style="edgeStyle=orthogonalEdgeStyle;rounded=0;orthogonalLoop=1;jettySize=auto;html=1;entryX=0.5;entryY=0;entryDx=0;entryDy=0;" parent="9auC6HD-h7A25hWjYyD8-1" source="9auC6HD-h7A25hWjYyD8-57" target="9auC6HD-h7A25hWjYyD8-68" edge="1">
                    <mxGeometry relative="1" as="geometry"/>
                </mxCell>
                <mxCell id="9auC6HD-h7A25hWjYyD8-54" style="edgeStyle=orthogonalEdgeStyle;rounded=0;orthogonalLoop=1;jettySize=auto;html=1;entryX=0;entryY=0.5;entryDx=0;entryDy=0;" parent="9auC6HD-h7A25hWjYyD8-1" source="9auC6HD-h7A25hWjYyD8-57" target="9auC6HD-h7A25hWjYyD8-83" edge="1">
                    <mxGeometry relative="1" as="geometry"/>
                </mxCell>
                <mxCell id="9auC6HD-h7A25hWjYyD8-55" style="edgeStyle=orthogonalEdgeStyle;rounded=0;orthogonalLoop=1;jettySize=auto;html=1;entryX=0.5;entryY=0;entryDx=0;entryDy=0;" parent="9auC6HD-h7A25hWjYyD8-1" source="9auC6HD-h7A25hWjYyD8-57" target="9auC6HD-h7A25hWjYyD8-13" edge="1">
                    <mxGeometry relative="1" as="geometry"/>
                </mxCell>
                <mxCell id="9auC6HD-h7A25hWjYyD8-56" style="edgeStyle=orthogonalEdgeStyle;rounded=0;orthogonalLoop=1;jettySize=auto;html=1;entryX=0;entryY=0.5;entryDx=0;entryDy=0;" parent="9auC6HD-h7A25hWjYyD8-1" source="9auC6HD-h7A25hWjYyD8-57" target="9auC6HD-h7A25hWjYyD8-109" edge="1">
                    <mxGeometry relative="1" as="geometry">
                        <Array as="points">
                            <mxPoint x="330" y="1020"/>
                        </Array>
                    </mxGeometry>
                </mxCell>
                <mxCell id="9auC6HD-h7A25hWjYyD8-57" value="&lt;font color=&quot;#ff99cc&quot;&gt;&amp;lt;Common/&amp;gt;&lt;/font&gt;" style="rounded=1;whiteSpace=wrap;html=1;fillColor=none;" parent="9auC6HD-h7A25hWjYyD8-1" vertex="1">
                    <mxGeometry x="270" y="1096" width="120" height="60" as="geometry"/>
                </mxCell>
                <mxCell id="9auC6HD-h7A25hWjYyD8-58" style="edgeStyle=orthogonalEdgeStyle;rounded=0;orthogonalLoop=1;jettySize=auto;html=1;" parent="9auC6HD-h7A25hWjYyD8-1" source="9auC6HD-h7A25hWjYyD8-59" target="9auC6HD-h7A25hWjYyD8-62" edge="1">
                    <mxGeometry relative="1" as="geometry"/>
                </mxCell>
                <mxCell id="9auC6HD-h7A25hWjYyD8-59" value="&lt;font color=&quot;#ffff99&quot;&gt;&amp;lt;Title /&amp;gt;&lt;/font&gt;" style="rounded=1;whiteSpace=wrap;html=1;fillColor=none;" parent="9auC6HD-h7A25hWjYyD8-1" vertex="1">
                    <mxGeometry x="260" y="1216" width="70" height="60" as="geometry"/>
                </mxCell>
                <mxCell id="9auC6HD-h7A25hWjYyD8-60" style="edgeStyle=orthogonalEdgeStyle;rounded=0;orthogonalLoop=1;jettySize=auto;html=1;entryX=0.5;entryY=0;entryDx=0;entryDy=0;" parent="9auC6HD-h7A25hWjYyD8-1" source="9auC6HD-h7A25hWjYyD8-61" target="9auC6HD-h7A25hWjYyD8-63" edge="1">
                    <mxGeometry relative="1" as="geometry"/>
                </mxCell>
                <mxCell id="9auC6HD-h7A25hWjYyD8-61" value="&lt;font color=&quot;#ffff99&quot;&gt;&amp;lt;SubTitle/&amp;gt;&lt;/font&gt;" style="rounded=1;whiteSpace=wrap;html=1;fillColor=none;" parent="9auC6HD-h7A25hWjYyD8-1" vertex="1">
                    <mxGeometry x="370" y="1216" width="70" height="60" as="geometry"/>
                </mxCell>
                <mxCell id="9auC6HD-h7A25hWjYyD8-62" value="&lt;font color=&quot;#00cc66&quot;&gt;&amp;lt;h2 .../&amp;gt;&lt;br&gt;&lt;/font&gt;" style="rounded=1;whiteSpace=wrap;html=1;fillColor=none;" parent="9auC6HD-h7A25hWjYyD8-1" vertex="1">
                    <mxGeometry x="270" y="1336" width="80" height="50" as="geometry"/>
                </mxCell>
                <mxCell id="9auC6HD-h7A25hWjYyD8-63" value="&lt;font color=&quot;#00cc66&quot;&gt;&amp;lt;p .../&amp;gt;&lt;br&gt;&lt;/font&gt;" style="rounded=1;whiteSpace=wrap;html=1;fillColor=none;" parent="9auC6HD-h7A25hWjYyD8-1" vertex="1">
                    <mxGeometry x="370" y="1336" width="80" height="50" as="geometry"/>
                </mxCell>
                <mxCell id="9auC6HD-h7A25hWjYyD8-64" style="edgeStyle=orthogonalEdgeStyle;rounded=0;orthogonalLoop=1;jettySize=auto;html=1;entryX=0.5;entryY=0;entryDx=0;entryDy=0;" parent="9auC6HD-h7A25hWjYyD8-1" source="9auC6HD-h7A25hWjYyD8-65" target="9auC6HD-h7A25hWjYyD8-66" edge="1">
                    <mxGeometry relative="1" as="geometry"/>
                </mxCell>
                <mxCell id="9auC6HD-h7A25hWjYyD8-65" value="&lt;font color=&quot;#ffff99&quot;&gt;&amp;lt;Button/&amp;gt;&lt;/font&gt;" style="rounded=1;whiteSpace=wrap;html=1;fillColor=none;" parent="9auC6HD-h7A25hWjYyD8-1" vertex="1">
                    <mxGeometry x="480" y="1216" width="70" height="60" as="geometry"/>
                </mxCell>
                <mxCell id="9auC6HD-h7A25hWjYyD8-66" value="&lt;font color=&quot;#00cc66&quot;&gt;&amp;lt;button .../&amp;gt;&lt;br&gt;&lt;/font&gt;" style="rounded=1;whiteSpace=wrap;html=1;fillColor=none;" parent="9auC6HD-h7A25hWjYyD8-1" vertex="1">
                    <mxGeometry x="480" y="1336" width="80" height="50" as="geometry"/>
                </mxCell>
                <mxCell id="9auC6HD-h7A25hWjYyD8-67" style="edgeStyle=orthogonalEdgeStyle;rounded=0;orthogonalLoop=1;jettySize=auto;html=1;" parent="9auC6HD-h7A25hWjYyD8-1" source="9auC6HD-h7A25hWjYyD8-68" target="9auC6HD-h7A25hWjYyD8-69" edge="1">
                    <mxGeometry relative="1" as="geometry"/>
                </mxCell>
                <mxCell id="9auC6HD-h7A25hWjYyD8-68" value="&lt;font color=&quot;#ffff99&quot;&gt;&amp;lt;Logo /&amp;gt;&lt;/font&gt;" style="rounded=1;whiteSpace=wrap;html=1;fillColor=none;" parent="9auC6HD-h7A25hWjYyD8-1" vertex="1">
                    <mxGeometry x="156" y="1216" width="70" height="60" as="geometry"/>
                </mxCell>
                <mxCell id="9auC6HD-h7A25hWjYyD8-69" value="&lt;font color=&quot;#00cc66&quot;&gt;&amp;lt;img .../&amp;gt;&lt;/font&gt;" style="rounded=1;whiteSpace=wrap;html=1;fillColor=none;" parent="9auC6HD-h7A25hWjYyD8-1" vertex="1">
                    <mxGeometry x="138" y="1336" width="80" height="46" as="geometry"/>
                </mxCell>
                <mxCell id="9auC6HD-h7A25hWjYyD8-70" style="edgeStyle=orthogonalEdgeStyle;rounded=0;orthogonalLoop=1;jettySize=auto;html=1;exitX=0;exitY=0.5;exitDx=0;exitDy=0;" parent="9auC6HD-h7A25hWjYyD8-1" source="9auC6HD-h7A25hWjYyD8-72" edge="1">
                    <mxGeometry relative="1" as="geometry">
                        <mxPoint x="1630" y="850" as="targetPoint"/>
                        <Array as="points">
                            <mxPoint x="1930" y="170"/>
                            <mxPoint x="1930" y="800"/>
                            <mxPoint x="1800" y="800"/>
                            <mxPoint x="1800" y="810"/>
                            <mxPoint x="1670" y="810"/>
                            <mxPoint x="1670" y="850"/>
                        </Array>
                    </mxGeometry>
                </mxCell>
                <mxCell id="9auC6HD-h7A25hWjYyD8-71" style="edgeStyle=orthogonalEdgeStyle;rounded=0;orthogonalLoop=1;jettySize=auto;html=1;entryX=0;entryY=0.5;entryDx=0;entryDy=0;" parent="9auC6HD-h7A25hWjYyD8-1" source="9auC6HD-h7A25hWjYyD8-72" edge="1">
                    <mxGeometry relative="1" as="geometry">
                        <mxPoint x="2150" y="250" as="targetPoint"/>
                    </mxGeometry>
                </mxCell>
                <mxCell id="9auC6HD-h7A25hWjYyD8-72" value="&lt;font color=&quot;#ffffff&quot;&gt;Works&lt;/font&gt;" style="rounded=1;whiteSpace=wrap;html=1;fillColor=#f0a30a;strokeColor=#BD7000;fontColor=#000000;" parent="9auC6HD-h7A25hWjYyD8-1" vertex="1">
                    <mxGeometry x="2090" y="140" width="120" height="60" as="geometry"/>
                </mxCell>
                <mxCell id="9auC6HD-h7A25hWjYyD8-73" style="edgeStyle=orthogonalEdgeStyle;rounded=0;orthogonalLoop=1;jettySize=auto;html=1;entryX=0;entryY=0.5;entryDx=0;entryDy=0;" parent="9auC6HD-h7A25hWjYyD8-1" source="9auC6HD-h7A25hWjYyD8-75" target="9auC6HD-h7A25hWjYyD8-77" edge="1">
                    <mxGeometry relative="1" as="geometry"/>
                </mxCell>
                <mxCell id="9auC6HD-h7A25hWjYyD8-74" style="edgeStyle=orthogonalEdgeStyle;rounded=0;orthogonalLoop=1;jettySize=auto;html=1;entryX=0.5;entryY=0;entryDx=0;entryDy=0;" parent="9auC6HD-h7A25hWjYyD8-1" source="9auC6HD-h7A25hWjYyD8-75" edge="1">
                    <mxGeometry relative="1" as="geometry">
                        <mxPoint x="-940" y="270" as="targetPoint"/>
                    </mxGeometry>
                </mxCell>
                <mxCell id="9auC6HD-h7A25hWjYyD8-75" value="&lt;font color=&quot;#ffffff&quot;&gt;Profile&lt;/font&gt;" style="rounded=1;whiteSpace=wrap;html=1;fillColor=#e51400;fontColor=#ffffff;strokeColor=#AB0000;" parent="9auC6HD-h7A25hWjYyD8-1" vertex="1">
                    <mxGeometry x="-1000" y="150" width="120" height="60" as="geometry"/>
                </mxCell>
                <mxCell id="9auC6HD-h7A25hWjYyD8-76" style="edgeStyle=orthogonalEdgeStyle;rounded=0;orthogonalLoop=1;jettySize=auto;html=1;entryX=0.5;entryY=0;entryDx=0;entryDy=0;" parent="9auC6HD-h7A25hWjYyD8-1" source="9auC6HD-h7A25hWjYyD8-77" target="9auC6HD-h7A25hWjYyD8-57" edge="1">
                    <mxGeometry relative="1" as="geometry">
                        <Array as="points">
                            <mxPoint x="-780" y="640"/>
                            <mxPoint x="-450" y="640"/>
                            <mxPoint x="-450" y="1010"/>
                            <mxPoint x="330" y="1010"/>
                        </Array>
                    </mxGeometry>
                </mxCell>
                <mxCell id="9auC6HD-h7A25hWjYyD8-77" value="&lt;font color=&quot;#ffffff&quot;&gt;Auth&lt;/font&gt;" style="rounded=1;whiteSpace=wrap;html=1;fillColor=#e51400;fontColor=#ffffff;strokeColor=#AB0000;" parent="9auC6HD-h7A25hWjYyD8-1" vertex="1">
                    <mxGeometry x="-840" y="150" width="120" height="60" as="geometry"/>
                </mxCell>
                <mxCell id="9auC6HD-h7A25hWjYyD8-78" style="edgeStyle=orthogonalEdgeStyle;rounded=0;orthogonalLoop=1;jettySize=auto;html=1;entryX=0.5;entryY=0;entryDx=0;entryDy=0;" parent="9auC6HD-h7A25hWjYyD8-1" source="9auC6HD-h7A25hWjYyD8-80" target="9auC6HD-h7A25hWjYyD8-57" edge="1">
                    <mxGeometry relative="1" as="geometry">
                        <mxPoint x="320" y="1100" as="targetPoint"/>
                        <Array as="points">
                            <mxPoint x="-1300" y="170"/>
                            <mxPoint x="-1300" y="1070"/>
                            <mxPoint x="330" y="1070"/>
                        </Array>
                    </mxGeometry>
                </mxCell>
                <mxCell id="9auC6HD-h7A25hWjYyD8-79" style="edgeStyle=orthogonalEdgeStyle;rounded=0;orthogonalLoop=1;jettySize=auto;html=1;entryX=0.5;entryY=0;entryDx=0;entryDy=0;" parent="9auC6HD-h7A25hWjYyD8-1" source="9auC6HD-h7A25hWjYyD8-80" edge="1">
                    <mxGeometry relative="1" as="geometry">
                        <mxPoint x="-1530" y="270" as="targetPoint"/>
                    </mxGeometry>
                </mxCell>
                <mxCell id="9auC6HD-h7A25hWjYyD8-80" value="SearchResult" style="rounded=1;whiteSpace=wrap;html=1;fillColor=#d80073;fontColor=#ffffff;strokeColor=#A50040;" parent="9auC6HD-h7A25hWjYyD8-1" vertex="1">
                    <mxGeometry x="-1590" y="140" width="120" height="60" as="geometry"/>
                </mxCell>
                <mxCell id="9auC6HD-h7A25hWjYyD8-81" style="edgeStyle=orthogonalEdgeStyle;rounded=0;orthogonalLoop=1;jettySize=auto;html=1;entryX=0.5;entryY=0;entryDx=0;entryDy=0;" parent="9auC6HD-h7A25hWjYyD8-1" source="9auC6HD-h7A25hWjYyD8-83" target="9auC6HD-h7A25hWjYyD8-88" edge="1">
                    <mxGeometry relative="1" as="geometry"/>
                </mxCell>
                <mxCell id="9auC6HD-h7A25hWjYyD8-82" style="edgeStyle=orthogonalEdgeStyle;rounded=0;orthogonalLoop=1;jettySize=auto;html=1;entryX=0.6;entryY=0.017;entryDx=0;entryDy=0;entryPerimeter=0;" parent="9auC6HD-h7A25hWjYyD8-1" source="9auC6HD-h7A25hWjYyD8-83" target="9auC6HD-h7A25hWjYyD8-86" edge="1">
                    <mxGeometry relative="1" as="geometry"/>
                </mxCell>
                <mxCell id="9auC6HD-h7A25hWjYyD8-83" value="&lt;font color=&quot;#6666ff&quot;&gt;&amp;lt;Header /&amp;gt;&lt;/font&gt;" style="rounded=1;whiteSpace=wrap;html=1;fillColor=none;" parent="9auC6HD-h7A25hWjYyD8-1" vertex="1">
                    <mxGeometry x="757" y="1096" width="120" height="60" as="geometry"/>
                </mxCell>
                <mxCell id="9auC6HD-h7A25hWjYyD8-84" value="&lt;font color=&quot;#00cc66&quot;&gt;&amp;lt;nav&amp;gt;...&amp;lt;/nav&amp;gt;&lt;/font&gt;" style="rounded=1;whiteSpace=wrap;html=1;fillColor=none;" parent="9auC6HD-h7A25hWjYyD8-1" vertex="1">
                    <mxGeometry x="680" y="1296" width="120" height="60" as="geometry"/>
                </mxCell>
                <mxCell id="9auC6HD-h7A25hWjYyD8-85" style="edgeStyle=orthogonalEdgeStyle;rounded=0;orthogonalLoop=1;jettySize=auto;html=1;entryX=0.567;entryY=0;entryDx=0;entryDy=0;entryPerimeter=0;" parent="9auC6HD-h7A25hWjYyD8-1" source="9auC6HD-h7A25hWjYyD8-86" target="9auC6HD-h7A25hWjYyD8-89" edge="1">
                    <mxGeometry relative="1" as="geometry"/>
                </mxCell>
                <mxCell id="9auC6HD-h7A25hWjYyD8-86" value="&lt;font color=&quot;#ffff99&quot;&gt;Search&lt;/font&gt;" style="rounded=1;whiteSpace=wrap;html=1;fillColor=none;" parent="9auC6HD-h7A25hWjYyD8-1" vertex="1">
                    <mxGeometry x="840" y="1196" width="120" height="60" as="geometry"/>
                </mxCell>
                <mxCell id="9auC6HD-h7A25hWjYyD8-87" style="edgeStyle=orthogonalEdgeStyle;rounded=0;orthogonalLoop=1;jettySize=auto;html=1;entryX=0.5;entryY=0;entryDx=0;entryDy=0;" parent="9auC6HD-h7A25hWjYyD8-1" source="9auC6HD-h7A25hWjYyD8-88" target="9auC6HD-h7A25hWjYyD8-84" edge="1">
                    <mxGeometry relative="1" as="geometry"/>
                </mxCell>
                <mxCell id="9auC6HD-h7A25hWjYyD8-88" value="&lt;font color=&quot;#ffff99&quot;&gt;NavBar&lt;/font&gt;" style="rounded=1;whiteSpace=wrap;html=1;fillColor=none;" parent="9auC6HD-h7A25hWjYyD8-1" vertex="1">
                    <mxGeometry x="680" y="1196" width="120" height="60" as="geometry"/>
                </mxCell>
                <mxCell id="9auC6HD-h7A25hWjYyD8-89" value="&lt;font color=&quot;#00cc66&quot;&gt;&amp;lt;input&amp;gt;...&lt;/font&gt;" style="rounded=1;whiteSpace=wrap;html=1;fillColor=none;" parent="9auC6HD-h7A25hWjYyD8-1" vertex="1">
                    <mxGeometry x="852" y="1296" width="120" height="60" as="geometry"/>
                </mxCell>
                <mxCell id="9auC6HD-h7A25hWjYyD8-90" value="&lt;font style=&quot;font-size: 24px&quot;&gt;Header/Sidebar&lt;/font&gt;" style="text;html=1;strokeColor=none;fillColor=none;align=center;verticalAlign=middle;whiteSpace=wrap;rounded=0;" parent="9auC6HD-h7A25hWjYyD8-1" vertex="1">
                    <mxGeometry x="877" y="920" width="170" height="20" as="geometry"/>
                </mxCell>
                <mxCell id="9auC6HD-h7A25hWjYyD8-91" value="&lt;font style=&quot;font-size: 24px&quot;&gt;Header/Sidebar&lt;/font&gt;" style="text;html=1;strokeColor=none;fillColor=none;align=center;verticalAlign=middle;whiteSpace=wrap;rounded=0;" parent="9auC6HD-h7A25hWjYyD8-1" vertex="1">
                    <mxGeometry x="1410" y="393" width="170" height="20" as="geometry"/>
                </mxCell>
                <mxCell id="9auC6HD-h7A25hWjYyD8-92" value="&lt;font style=&quot;font-size: 24px&quot;&gt;Header/Sidebar&lt;/font&gt;" style="text;html=1;strokeColor=none;fillColor=none;align=center;verticalAlign=middle;whiteSpace=wrap;rounded=0;" parent="9auC6HD-h7A25hWjYyD8-1" vertex="1">
                    <mxGeometry x="-710" y="565" width="170" height="60" as="geometry"/>
                </mxCell>
                <mxCell id="9auC6HD-h7A25hWjYyD8-93" value="&lt;font style=&quot;font-size: 24px&quot;&gt;Header/Sidebar&lt;/font&gt;" style="text;html=1;strokeColor=none;fillColor=none;align=center;verticalAlign=middle;whiteSpace=wrap;rounded=0;" parent="9auC6HD-h7A25hWjYyD8-1" vertex="1">
                    <mxGeometry x="-1310" y="490" width="170" height="20" as="geometry"/>
                </mxCell>
                <mxCell id="9auC6HD-h7A25hWjYyD8-94" value="&lt;font style=&quot;font-size: 24px&quot;&gt;Header/Sidebar&lt;/font&gt;" style="text;html=1;strokeColor=none;fillColor=none;align=center;verticalAlign=middle;whiteSpace=wrap;rounded=0;" parent="9auC6HD-h7A25hWjYyD8-1" vertex="1">
                    <mxGeometry x="-191" y="505" width="170" height="60" as="geometry"/>
                </mxCell>
                <mxCell id="9auC6HD-h7A25hWjYyD8-95" value="&lt;font style=&quot;font-size: 24px&quot;&gt;Logo&lt;/font&gt;" style="text;html=1;strokeColor=none;fillColor=none;align=center;verticalAlign=middle;whiteSpace=wrap;rounded=0;" parent="9auC6HD-h7A25hWjYyD8-1" vertex="1">
                    <mxGeometry x="-440" y="1590" width="40" height="20" as="geometry"/>
                </mxCell>
                <mxCell id="9auC6HD-h7A25hWjYyD8-96" value="&lt;font style=&quot;font-size: 24px&quot;&gt;Title, Text&lt;/font&gt;" style="text;html=1;strokeColor=none;fillColor=none;align=center;verticalAlign=middle;whiteSpace=wrap;rounded=0;" parent="9auC6HD-h7A25hWjYyD8-1" vertex="1">
                    <mxGeometry x="-270" y="1500" width="40" height="20" as="geometry"/>
                </mxCell>
                <mxCell id="9auC6HD-h7A25hWjYyD8-97" value="&lt;font style=&quot;font-size: 24px&quot;&gt;Text&lt;/font&gt;" style="text;html=1;strokeColor=none;fillColor=none;align=center;verticalAlign=middle;whiteSpace=wrap;rounded=0;" parent="9auC6HD-h7A25hWjYyD8-1" vertex="1">
                    <mxGeometry x="10" y="1480" width="40" height="20" as="geometry"/>
                </mxCell>
                <mxCell id="9auC6HD-h7A25hWjYyD8-98" style="edgeStyle=orthogonalEdgeStyle;rounded=0;orthogonalLoop=1;jettySize=auto;html=1;entryX=0.427;entryY=-0.05;entryDx=0;entryDy=0;entryPerimeter=0;" parent="9auC6HD-h7A25hWjYyD8-1" source="9auC6HD-h7A25hWjYyD8-100" target="9auC6HD-h7A25hWjYyD8-102" edge="1">
                    <mxGeometry relative="1" as="geometry"/>
                </mxCell>
                <mxCell id="9auC6HD-h7A25hWjYyD8-99" style="edgeStyle=orthogonalEdgeStyle;rounded=0;orthogonalLoop=1;jettySize=auto;html=1;entryX=0.5;entryY=0;entryDx=0;entryDy=0;" parent="9auC6HD-h7A25hWjYyD8-1" source="9auC6HD-h7A25hWjYyD8-100" target="9auC6HD-h7A25hWjYyD8-104" edge="1">
                    <mxGeometry relative="1" as="geometry"/>
                </mxCell>
                <mxCell id="9auC6HD-h7A25hWjYyD8-100" value="&lt;font color=&quot;#ffff99&quot;&gt;&amp;lt;Notes /&amp;gt;&lt;/font&gt;" style="rounded=1;whiteSpace=wrap;html=1;fillColor=none;" parent="9auC6HD-h7A25hWjYyD8-1" vertex="1">
                    <mxGeometry x="1014" y="290" width="108" height="60" as="geometry"/>
                </mxCell>
                <mxCell id="9auC6HD-h7A25hWjYyD8-101" style="edgeStyle=orthogonalEdgeStyle;rounded=0;orthogonalLoop=1;jettySize=auto;html=1;entryX=0.5;entryY=0;entryDx=0;entryDy=0;" parent="9auC6HD-h7A25hWjYyD8-1" source="9auC6HD-h7A25hWjYyD8-102" target="9auC6HD-h7A25hWjYyD8-111" edge="1">
                    <mxGeometry relative="1" as="geometry"/>
                </mxCell>
                <mxCell id="9auC6HD-h7A25hWjYyD8-102" value="&lt;font color=&quot;#ffff99&quot;&gt;&amp;lt;EnteringNotes /&amp;gt;&lt;/font&gt;" style="rounded=1;whiteSpace=wrap;html=1;fillColor=none;" parent="9auC6HD-h7A25hWjYyD8-1" vertex="1">
                    <mxGeometry x="940" y="400" width="108" height="60" as="geometry"/>
                </mxCell>
                <mxCell id="9auC6HD-h7A25hWjYyD8-103" style="edgeStyle=orthogonalEdgeStyle;rounded=0;orthogonalLoop=1;jettySize=auto;html=1;" parent="9auC6HD-h7A25hWjYyD8-1" source="9auC6HD-h7A25hWjYyD8-104" target="9auC6HD-h7A25hWjYyD8-116" edge="1">
                    <mxGeometry relative="1" as="geometry"/>
                </mxCell>
                <mxCell id="9auC6HD-h7A25hWjYyD8-104" value="&lt;font color=&quot;#ffff99&quot;&gt;&amp;lt;View Notes /&amp;gt;&lt;/font&gt;" style="rounded=1;whiteSpace=wrap;html=1;fillColor=none;" parent="9auC6HD-h7A25hWjYyD8-1" vertex="1">
                    <mxGeometry x="1104" y="400" width="108" height="60" as="geometry"/>
                </mxCell>
                <mxCell id="9auC6HD-h7A25hWjYyD8-105" style="edgeStyle=orthogonalEdgeStyle;rounded=0;orthogonalLoop=1;jettySize=auto;html=1;" parent="9auC6HD-h7A25hWjYyD8-1" source="9auC6HD-h7A25hWjYyD8-106" target="9auC6HD-h7A25hWjYyD8-107" edge="1">
                    <mxGeometry relative="1" as="geometry"/>
                </mxCell>
                <mxCell id="9auC6HD-h7A25hWjYyD8-106" value="&lt;font color=&quot;#ffff99&quot;&gt;&amp;lt;Tags /&amp;gt;&lt;/font&gt;" style="rounded=1;whiteSpace=wrap;html=1;fillColor=none;" parent="9auC6HD-h7A25hWjYyD8-1" vertex="1">
                    <mxGeometry x="1024" y="1200" width="80" height="60" as="geometry"/>
                </mxCell>
                <mxCell id="9auC6HD-h7A25hWjYyD8-107" value="&lt;font color=&quot;#00cc66&quot;&gt;&amp;lt;p&amp;gt; ... &amp;lt;/p&amp;gt;&lt;br&gt;&amp;lt;span .../&amp;gt;Дата публикации&lt;br&gt;&lt;/font&gt;&lt;font color=&quot;#00cc66&quot;&gt;&lt;br&gt;&lt;/font&gt;" style="rounded=1;whiteSpace=wrap;html=1;fillColor=none;" parent="9auC6HD-h7A25hWjYyD8-1" vertex="1">
                    <mxGeometry x="916" y="1410" width="193" height="50" as="geometry"/>
                </mxCell>
                <mxCell id="9auC6HD-h7A25hWjYyD8-108" style="edgeStyle=orthogonalEdgeStyle;rounded=0;orthogonalLoop=1;jettySize=auto;html=1;" parent="9auC6HD-h7A25hWjYyD8-1" source="9auC6HD-h7A25hWjYyD8-109" target="9auC6HD-h7A25hWjYyD8-106" edge="1">
                    <mxGeometry relative="1" as="geometry"/>
                </mxCell>
                <mxCell id="9auC6HD-h7A25hWjYyD8-109" value="&lt;font color=&quot;#6666ff&quot;&gt;&amp;lt;Card/&amp;gt;&lt;/font&gt;" style="rounded=1;whiteSpace=wrap;html=1;fillColor=none;" parent="9auC6HD-h7A25hWjYyD8-1" vertex="1">
                    <mxGeometry x="972" y="1100" width="120" height="60" as="geometry"/>
                </mxCell>
                <mxCell id="9auC6HD-h7A25hWjYyD8-110" style="edgeStyle=orthogonalEdgeStyle;rounded=0;orthogonalLoop=1;jettySize=auto;html=1;entryX=0.5;entryY=0;entryDx=0;entryDy=0;" parent="9auC6HD-h7A25hWjYyD8-1" source="9auC6HD-h7A25hWjYyD8-111" target="9auC6HD-h7A25hWjYyD8-113" edge="1">
                    <mxGeometry relative="1" as="geometry"/>
                </mxCell>
                <mxCell id="9auC6HD-h7A25hWjYyD8-111" value="&lt;font color=&quot;#00cc00&quot;&gt;&amp;lt;form&amp;gt;&lt;br&gt;&amp;lt;textarea /&amp;gt;&lt;br&gt;&amp;lt;Action /&amp;gt;&lt;br&gt;&amp;lt;/form&amp;gt;&lt;/font&gt;" style="rounded=1;whiteSpace=wrap;html=1;fillColor=none;" parent="9auC6HD-h7A25hWjYyD8-1" vertex="1">
                    <mxGeometry x="940" y="500" width="108" height="60" as="geometry"/>
                </mxCell>
                <mxCell id="9auC6HD-h7A25hWjYyD8-112" style="edgeStyle=orthogonalEdgeStyle;rounded=0;orthogonalLoop=1;jettySize=auto;html=1;entryX=0.5;entryY=0;entryDx=0;entryDy=0;" parent="9auC6HD-h7A25hWjYyD8-1" source="9auC6HD-h7A25hWjYyD8-113" target="9auC6HD-h7A25hWjYyD8-114" edge="1">
                    <mxGeometry relative="1" as="geometry"/>
                </mxCell>
                <mxCell id="9auC6HD-h7A25hWjYyD8-113" value="&lt;font color=&quot;#ffff99&quot;&gt;&amp;lt;Action /&amp;gt;&lt;/font&gt;" style="rounded=1;whiteSpace=wrap;html=1;fillColor=none;" parent="9auC6HD-h7A25hWjYyD8-1" vertex="1">
                    <mxGeometry x="943.5" y="600" width="101" height="40" as="geometry"/>
                </mxCell>
                <mxCell id="9auC6HD-h7A25hWjYyD8-114" value="&lt;font color=&quot;#00cc00&quot;&gt;&amp;lt;&amp;gt;&lt;br&gt;&amp;lt;textarea /&amp;gt;&lt;br&gt;&amp;lt;Action /&amp;gt;&lt;br&gt;&amp;lt;/form&amp;gt;&lt;/font&gt;" style="rounded=1;whiteSpace=wrap;html=1;fillColor=none;" parent="9auC6HD-h7A25hWjYyD8-1" vertex="1">
                    <mxGeometry x="940" y="670" width="108" height="60" as="geometry"/>
                </mxCell>
                <mxCell id="9auC6HD-h7A25hWjYyD8-128" style="edgeStyle=orthogonalEdgeStyle;rounded=0;orthogonalLoop=1;jettySize=auto;html=1;entryX=1;entryY=0.5;entryDx=0;entryDy=0;" parent="9auC6HD-h7A25hWjYyD8-1" source="9auC6HD-h7A25hWjYyD8-116" target="9auC6HD-h7A25hWjYyD8-46" edge="1">
                    <mxGeometry relative="1" as="geometry">
                        <Array as="points">
                            <mxPoint x="1152" y="780"/>
                            <mxPoint x="858" y="780"/>
                            <mxPoint x="858" y="754"/>
                        </Array>
                    </mxGeometry>
                </mxCell>
                <mxCell id="9auC6HD-h7A25hWjYyD8-116" value="&lt;font color=&quot;#6666ff&quot;&gt;&amp;lt;Card/&amp;gt;&lt;/font&gt;" style="rounded=1;whiteSpace=wrap;html=1;fillColor=none;" parent="9auC6HD-h7A25hWjYyD8-1" vertex="1">
                    <mxGeometry x="1092" y="520" width="120" height="60" as="geometry"/>
                </mxCell>
                <mxCell id="9auC6HD-h7A25hWjYyD8-117" style="edgeStyle=orthogonalEdgeStyle;rounded=0;orthogonalLoop=1;jettySize=auto;html=1;entryX=0.5;entryY=0;entryDx=0;entryDy=0;" parent="9auC6HD-h7A25hWjYyD8-1" source="9auC6HD-h7A25hWjYyD8-118" target="9auC6HD-h7A25hWjYyD8-46" edge="1">
                    <mxGeometry relative="1" as="geometry"/>
                </mxCell>
                <mxCell id="9auC6HD-h7A25hWjYyD8-118" value="&lt;font color=&quot;#6666ff&quot;&gt;&amp;lt;CardPosts/&amp;gt;&lt;/font&gt;" style="rounded=1;whiteSpace=wrap;html=1;fillColor=none;" parent="9auC6HD-h7A25hWjYyD8-1" vertex="1">
                    <mxGeometry x="480" y="604" width="120" height="60" as="geometry"/>
                </mxCell>
                <mxCell id="OAwzs13bWk_NfAVOgma1-1" style="edgeStyle=orthogonalEdgeStyle;rounded=0;orthogonalLoop=1;jettySize=auto;html=1;" parent="9auC6HD-h7A25hWjYyD8-1" source="9auC6HD-h7A25hWjYyD8-119" target="OAwzs13bWk_NfAVOgma1-0" edge="1">
                    <mxGeometry relative="1" as="geometry"/>
                </mxCell>
                <mxCell id="9auC6HD-h7A25hWjYyD8-119" value="&lt;font color=&quot;#ffff99&quot;&gt;&amp;lt;Articles/&amp;gt;&lt;/font&gt;" style="rounded=1;whiteSpace=wrap;html=1;fillColor=none;" parent="9auC6HD-h7A25hWjYyD8-1" vertex="1">
                    <mxGeometry x="1690" y="260" width="120" height="60" as="geometry"/>
                </mxCell>
                <mxCell id="9auC6HD-h7A25hWjYyD8-120" value="&lt;font color=&quot;#6666ff&quot;&gt;&amp;lt;Card/&amp;gt;&lt;/font&gt;" style="rounded=1;whiteSpace=wrap;html=1;fillColor=none;" parent="9auC6HD-h7A25hWjYyD8-1" vertex="1">
                    <mxGeometry x="1710" y="460" width="120" height="60" as="geometry"/>
                </mxCell>
                <mxCell id="9auC6HD-h7A25hWjYyD8-121" value="&lt;font color=&quot;#6666ff&quot;&gt;&amp;lt;CardPosts/&amp;gt;&lt;/font&gt;" style="rounded=1;whiteSpace=wrap;html=1;fillColor=none;" parent="9auC6HD-h7A25hWjYyD8-1" vertex="1">
                    <mxGeometry x="-1590" y="270" width="120" height="60" as="geometry"/>
                </mxCell>
                <mxCell id="9auC6HD-h7A25hWjYyD8-122" value="&lt;font color=&quot;#ffffff&quot;&gt;index.JS&lt;/font&gt;" style="rounded=1;whiteSpace=wrap;html=1;fontColor=#ffffff;fillColor=none;strokeColor=#00CC00;" parent="9auC6HD-h7A25hWjYyD8-1" vertex="1">
                    <mxGeometry x="100" y="-270" width="182" height="60" as="geometry"/>
                </mxCell>
                <mxCell id="9auC6HD-h7A25hWjYyD8-124" value="" style="rounded=1;whiteSpace=wrap;html=1;fillColor=#30301D;" parent="9auC6HD-h7A25hWjYyD8-1" vertex="1">
                    <mxGeometry x="430" y="444" width="108" height="60" as="geometry"/>
                </mxCell>
                <mxCell id="9auC6HD-h7A25hWjYyD8-40" value="&lt;font color=&quot;#ffff99&quot;&gt;&amp;lt;Post /&amp;gt;&lt;/font&gt;" style="rounded=1;whiteSpace=wrap;html=1;fillColor=#30301D;" parent="9auC6HD-h7A25hWjYyD8-1" vertex="1">
                    <mxGeometry x="464" y="484" width="108" height="60" as="geometry"/>
                </mxCell>
                <mxCell id="9auC6HD-h7A25hWjYyD8-125" value="&lt;font color=&quot;#ffffff&quot;&gt;&lt;span style=&quot;font-size: 14px&quot;&gt;&lt;i&gt;Store = {}&lt;/i&gt;&lt;/span&gt;&lt;/font&gt;" style="rounded=1;whiteSpace=wrap;html=1;fillColor=none;strokeColor=#FF3333;" parent="9auC6HD-h7A25hWjYyD8-1" vertex="1">
                    <mxGeometry x="101" y="-510" width="180" height="60" as="geometry"/>
                </mxCell>
                <mxCell id="9auC6HD-h7A25hWjYyD8-127" style="edgeStyle=orthogonalEdgeStyle;rounded=0;orthogonalLoop=1;jettySize=auto;html=1;entryX=0.5;entryY=0;entryDx=0;entryDy=0;" parent="9auC6HD-h7A25hWjYyD8-1" source="9auC6HD-h7A25hWjYyD8-126" target="9auC6HD-h7A25hWjYyD8-123" edge="1">
                    <mxGeometry relative="1" as="geometry"/>
                </mxCell>
                <mxCell id="9auC6HD-h7A25hWjYyD8-126" value="&lt;font color=&quot;#ffff99&quot;&gt;&amp;lt;Posts /&amp;gt;&lt;/font&gt;" style="rounded=1;whiteSpace=wrap;html=1;fillColor=none;" parent="9auC6HD-h7A25hWjYyD8-1" vertex="1">
                    <mxGeometry x="440" y="300" width="108" height="60" as="geometry"/>
                </mxCell>
                <mxCell id="9auC6HD-h7A25hWjYyD8-129" value="" style="endArrow=none;html=1;strokeColor=#CC0000;" parent="9auC6HD-h7A25hWjYyD8-1" edge="1">
                    <mxGeometry width="50" height="50" relative="1" as="geometry">
                        <mxPoint x="-1740" as="sourcePoint"/>
                        <mxPoint x="2290" y="-10" as="targetPoint"/>
                    </mxGeometry>
                </mxCell>
                <mxCell id="9auC6HD-h7A25hWjYyD8-134" value="" style="endArrow=classic;html=1;strokeColor=#FFFFFF;dashed=1;" parent="9auC6HD-h7A25hWjYyD8-1" edge="1">
                    <mxGeometry width="50" height="50" relative="1" as="geometry">
                        <mxPoint x="183" y="-330" as="sourcePoint"/>
                        <mxPoint x="210" y="-270" as="targetPoint"/>
                    </mxGeometry>
                </mxCell>
                <mxCell id="9auC6HD-h7A25hWjYyD8-136" value="&lt;i&gt;&lt;font style=&quot;font-size: 14px&quot; color=&quot;#ffffff&quot;&gt;posts= [ ]&lt;/font&gt;&lt;/i&gt;" style="rounded=1;whiteSpace=wrap;html=1;fillColor=none;strokeColor=#FF3333;" parent="9auC6HD-h7A25hWjYyD8-1" vertex="1">
                    <mxGeometry x="510" y="250" width="82" height="30" as="geometry"/>
                </mxCell>
                <mxCell id="9auC6HD-h7A25hWjYyD8-137" value="" style="endArrow=classic;html=1;strokeColor=#FFFFFF;dashed=1;" parent="9auC6HD-h7A25hWjYyD8-1" edge="1">
                    <mxGeometry width="50" height="50" relative="1" as="geometry">
                        <mxPoint x="440" y="70" as="sourcePoint"/>
                        <mxPoint x="420" y="130" as="targetPoint"/>
                    </mxGeometry>
                </mxCell>
                <mxCell id="9auC6HD-h7A25hWjYyD8-140" value="" style="endArrow=classic;html=1;strokeColor=#FFFFFF;dashed=1;" parent="9auC6HD-h7A25hWjYyD8-1" edge="1">
                    <mxGeometry width="50" height="50" relative="1" as="geometry">
                        <mxPoint x="350" y="220" as="sourcePoint"/>
                        <mxPoint x="420" y="300" as="targetPoint"/>
                    </mxGeometry>
                </mxCell>
                <mxCell id="9auC6HD-h7A25hWjYyD8-141" value="&lt;font color=&quot;#ffffff&quot;&gt;store.JS&lt;/font&gt;" style="rounded=1;whiteSpace=wrap;html=1;fontColor=#ffffff;fillColor=none;strokeColor=#00CC00;" parent="9auC6HD-h7A25hWjYyD8-1" vertex="1">
                    <mxGeometry x="80" y="-400" width="182" height="60" as="geometry"/>
                </mxCell>
                <mxCell id="9auC6HD-h7A25hWjYyD8-144" value="&lt;i&gt;&lt;font style=&quot;font-size: 14px&quot; color=&quot;#ffffff&quot;&gt;store = {}&lt;br&gt;&lt;/font&gt;&lt;/i&gt;" style="rounded=1;whiteSpace=wrap;html=1;fillColor=none;strokeColor=#FF3333;" parent="9auC6HD-h7A25hWjYyD8-1" vertex="1">
                    <mxGeometry x="320" y="-160" width="100" height="20" as="geometry"/>
                </mxCell>
                <mxCell id="OAwzs13bWk_NfAVOgma1-2" style="edgeStyle=orthogonalEdgeStyle;rounded=0;orthogonalLoop=1;jettySize=auto;html=1;entryX=0.5;entryY=0;entryDx=0;entryDy=0;" parent="9auC6HD-h7A25hWjYyD8-1" source="OAwzs13bWk_NfAVOgma1-0" target="9auC6HD-h7A25hWjYyD8-120" edge="1">
                    <mxGeometry relative="1" as="geometry"/>
                </mxCell>
                <mxCell id="OAwzs13bWk_NfAVOgma1-0" value="&lt;font color=&quot;#ffff99&quot;&gt;&amp;lt;Article/&amp;gt;&lt;/font&gt;" style="rounded=1;whiteSpace=wrap;html=1;fillColor=none;" parent="9auC6HD-h7A25hWjYyD8-1" vertex="1">
                    <mxGeometry x="1710" y="360" width="120" height="60" as="geometry"/>
                </mxCell>
                <mxCell id="cXH-sLHwEwe2qsef9Jqo-0" value="&lt;i&gt;&lt;font style=&quot;font-size: 14px&quot; color=&quot;#ffffff&quot;&gt;store ={ }&lt;/font&gt;&lt;/i&gt;&lt;i&gt;&lt;font style=&quot;font-size: 14px&quot; color=&quot;#ffffff&quot;&gt;&lt;br&gt;&lt;/font&gt;&lt;/i&gt;" style="rounded=1;whiteSpace=wrap;html=1;fillColor=none;strokeColor=#FF3333;" parent="9auC6HD-h7A25hWjYyD8-1" vertex="1">
                    <mxGeometry x="440" y="90" width="100" height="20" as="geometry"/>
                </mxCell>
                <mxCell id="cXH-sLHwEwe2qsef9Jqo-1" value="" style="endArrow=classic;html=1;strokeColor=#FFFFFF;dashed=1;" parent="9auC6HD-h7A25hWjYyD8-1" edge="1">
                    <mxGeometry width="50" height="50" relative="1" as="geometry">
                        <mxPoint x="560" y="60" as="sourcePoint"/>
                        <mxPoint x="1690" y="130" as="targetPoint"/>
                    </mxGeometry>
                </mxCell>
                <mxCell id="cXH-sLHwEwe2qsef9Jqo-3" value="&lt;i&gt;&lt;font style=&quot;font-size: 14px&quot; color=&quot;#ffffff&quot;&gt;state={&lt;br&gt;&lt;/font&gt;&lt;/i&gt;&lt;i&gt;&lt;font style=&quot;font-size: 14px&quot; color=&quot;#ffffff&quot;&gt;TextPage: {}&lt;br&gt;}&lt;br&gt;&lt;/font&gt;&lt;/i&gt;" style="rounded=1;whiteSpace=wrap;html=1;fillColor=none;strokeColor=#FF3333;" parent="9auC6HD-h7A25hWjYyD8-1" vertex="1">
                    <mxGeometry x="1250" y="120" width="140" height="40" as="geometry"/>
                </mxCell>
                <mxCell id="KnfCLNWhneLp9GJ86Zkg-0" value="&lt;i&gt;&lt;font style=&quot;font-size: 14px&quot; color=&quot;#ffffff&quot;&gt;rerenderEntireTree()&lt;br&gt;&lt;/font&gt;&lt;/i&gt;" style="rounded=1;whiteSpace=wrap;html=1;fillColor=none;strokeColor=#FFFF99;" parent="9auC6HD-h7A25hWjYyD8-1" vertex="1">
                    <mxGeometry x="292" y="-270" width="140" height="40" as="geometry"/>
                </mxCell>
                <mxCell id="KnfCLNWhneLp9GJ86Zkg-2" value="" style="endArrow=classic;html=1;strokeColor=#FFFFFF;dashed=1;" parent="9auC6HD-h7A25hWjYyD8-1" edge="1">
                    <mxGeometry width="50" height="50" relative="1" as="geometry">
                        <mxPoint x="236" y="-190" as="sourcePoint"/>
                        <mxPoint x="340.00000000000045" as="targetPoint"/>
                    </mxGeometry>
                </mxCell>
                <mxCell id="KnfCLNWhneLp9GJ86Zkg-4" value="" style="endArrow=classic;html=1;shape=flexArrow;strokeColor=#00CC00;width=4.285714285714286;endSize=13.342857142857143;endWidth=28.16326530612245;" parent="9auC6HD-h7A25hWjYyD8-1" edge="1">
                    <mxGeometry width="50" height="50" relative="1" as="geometry">
                        <mxPoint x="60" y="-340" as="sourcePoint"/>
                        <mxPoint x="50" y="-240" as="targetPoint"/>
                    </mxGeometry>
                </mxCell>
                <mxCell id="KnfCLNWhneLp9GJ86Zkg-5" value="&lt;i&gt;&lt;font style=&quot;font-size: 14px&quot; color=&quot;#ffffff&quot;&gt;inport store&lt;br&gt;subcribe()&lt;br&gt;&lt;/font&gt;&lt;/i&gt;" style="rounded=1;whiteSpace=wrap;html=1;fillColor=none;strokeColor=none;" parent="9auC6HD-h7A25hWjYyD8-1" vertex="1">
                    <mxGeometry x="-51" y="-413" width="112" height="40" as="geometry"/>
                </mxCell>
                <mxCell id="rcTScvy5lurm53UfA-cc-0" value="" style="endArrow=classic;html=1;strokeColor=#FFFFFF;dashed=1;" parent="9auC6HD-h7A25hWjYyD8-1" edge="1">
                    <mxGeometry width="50" height="50" relative="1" as="geometry">
                        <mxPoint x="730" y="200" as="sourcePoint"/>
                        <mxPoint x="1010" y="270" as="targetPoint"/>
                    </mxGeometry>
                </mxCell>
                <mxCell id="rcTScvy5lurm53UfA-cc-1" value="&lt;i&gt;&lt;font style=&quot;font-size: 14px&quot; color=&quot;#ffffff&quot;&gt;textNotes= &quot;&quot;&lt;/font&gt;&lt;/i&gt;" style="rounded=1;whiteSpace=wrap;html=1;fillColor=none;strokeColor=#FF3333;" parent="9auC6HD-h7A25hWjYyD8-1" vertex="1">
                    <mxGeometry x="777" y="240" width="93" height="40" as="geometry"/>
                </mxCell>
                <mxCell id="rcTScvy5lurm53UfA-cc-3" value="" style="endArrow=classic;html=1;strokeColor=#FFFFFF;dashed=1;" parent="9auC6HD-h7A25hWjYyD8-1" edge="1">
                    <mxGeometry width="50" height="50" relative="1" as="geometry">
                        <mxPoint x="997" y="320" as="sourcePoint"/>
                        <mxPoint x="960" y="385" as="targetPoint"/>
                    </mxGeometry>
                </mxCell>
                <mxCell id="rcTScvy5lurm53UfA-cc-4" value="&lt;i&gt;&lt;font style=&quot;font-size: 14px&quot; color=&quot;#ffffff&quot;&gt;textNotes= &quot;&quot;&lt;/font&gt;&lt;/i&gt;" style="rounded=1;whiteSpace=wrap;html=1;fillColor=none;strokeColor=#FF3333;" parent="9auC6HD-h7A25hWjYyD8-1" vertex="1">
                    <mxGeometry x="860" y="310" width="90" height="30" as="geometry"/>
                </mxCell>
                <mxCell id="rcTScvy5lurm53UfA-cc-9" value="&lt;i&gt;&lt;font style=&quot;font-size: 14px&quot; color=&quot;#ffffff&quot;&gt;subscribe()&lt;br&gt;&lt;/font&gt;&lt;/i&gt;" style="rounded=1;whiteSpace=wrap;html=1;fillColor=none;strokeColor=#FFFF99;" parent="9auC6HD-h7A25hWjYyD8-1" vertex="1">
                    <mxGeometry x="370" y="-525" width="140" height="40" as="geometry"/>
                </mxCell>
                <mxCell id="4Y8Tt7olvkSRPSFjLoJz-0" value="&lt;font color=&quot;#000000&quot;&gt;Sandbox&lt;/font&gt;" style="rounded=1;whiteSpace=wrap;html=1;strokeColor=#006EAF;fontColor=#ffffff;fillColor=#FFFF99;" parent="9auC6HD-h7A25hWjYyD8-1" vertex="1">
                    <mxGeometry x="2332" y="140" width="120" height="60" as="geometry"/>
                </mxCell>
            </root>
        </mxGraphModel>
    </diagram>
    <diagram name="Container" id="bSxU7MuOvxVz5yQFuXZG">
        <mxGraphModel dx="2431" dy="1252" grid="1" gridSize="10" guides="1" tooltips="1" connect="1" arrows="1" fold="1" page="1" pageScale="1" pageWidth="583" pageHeight="827" math="0" shadow="0">
            <root>
                <mxCell id="iTjGivHn9YsCt5VwsKL4-0"/>
                <mxCell id="iTjGivHn9YsCt5VwsKL4-1" parent="iTjGivHn9YsCt5VwsKL4-0"/>
                <mxCell id="iTjGivHn9YsCt5VwsKL4-2" value="" style="rounded=1;whiteSpace=wrap;html=1;fillColor=#30301D;" parent="iTjGivHn9YsCt5VwsKL4-1" vertex="1">
                    <mxGeometry x="420" y="414" width="108" height="60" as="geometry"/>
                </mxCell>
                <mxCell id="iTjGivHn9YsCt5VwsKL4-3" style="edgeStyle=orthogonalEdgeStyle;rounded=0;orthogonalLoop=1;jettySize=auto;html=1;entryX=0.5;entryY=0;entryDx=0;entryDy=0;" parent="iTjGivHn9YsCt5VwsKL4-1" source="iTjGivHn9YsCt5VwsKL4-8" target="iTjGivHn9YsCt5VwsKL4-45" edge="1">
                    <mxGeometry relative="1" as="geometry"/>
                </mxCell>
                <mxCell id="iTjGivHn9YsCt5VwsKL4-4" style="edgeStyle=orthogonalEdgeStyle;rounded=0;orthogonalLoop=1;jettySize=auto;html=1;entryX=0.75;entryY=0;entryDx=0;entryDy=0;" parent="iTjGivHn9YsCt5VwsKL4-1" source="iTjGivHn9YsCt5VwsKL4-8" target="iTjGivHn9YsCt5VwsKL4-49" edge="1">
                    <mxGeometry relative="1" as="geometry"/>
                </mxCell>
                <mxCell id="iTjGivHn9YsCt5VwsKL4-5" style="edgeStyle=orthogonalEdgeStyle;rounded=0;orthogonalLoop=1;jettySize=auto;html=1;entryX=0.5;entryY=0;entryDx=0;entryDy=0;" parent="iTjGivHn9YsCt5VwsKL4-1" source="iTjGivHn9YsCt5VwsKL4-8" target="iTjGivHn9YsCt5VwsKL4-72" edge="1">
                    <mxGeometry relative="1" as="geometry"/>
                </mxCell>
                <mxCell id="iTjGivHn9YsCt5VwsKL4-6" style="edgeStyle=orthogonalEdgeStyle;rounded=0;orthogonalLoop=1;jettySize=auto;html=1;entryX=0.5;entryY=0;entryDx=0;entryDy=0;" parent="iTjGivHn9YsCt5VwsKL4-1" source="iTjGivHn9YsCt5VwsKL4-8" target="iTjGivHn9YsCt5VwsKL4-75" edge="1">
                    <mxGeometry relative="1" as="geometry"/>
                </mxCell>
                <mxCell id="iTjGivHn9YsCt5VwsKL4-7" style="edgeStyle=orthogonalEdgeStyle;rounded=0;orthogonalLoop=1;jettySize=auto;html=1;entryX=0.5;entryY=0;entryDx=0;entryDy=0;" parent="iTjGivHn9YsCt5VwsKL4-1" source="iTjGivHn9YsCt5VwsKL4-8" target="iTjGivHn9YsCt5VwsKL4-80" edge="1">
                    <mxGeometry relative="1" as="geometry"/>
                </mxCell>
                <mxCell id="amGa7y2TIUH3wvyTXQHR-6" style="edgeStyle=orthogonalEdgeStyle;rounded=0;orthogonalLoop=1;jettySize=auto;html=1;entryX=0.5;entryY=0;entryDx=0;entryDy=0;" parent="iTjGivHn9YsCt5VwsKL4-1" source="iTjGivHn9YsCt5VwsKL4-8" target="iTjGivHn9YsCt5VwsKL4-150" edge="1">
                    <mxGeometry relative="1" as="geometry">
                        <mxPoint x="2400" y="130" as="targetPoint"/>
                    </mxGeometry>
                </mxCell>
                <mxCell id="iTjGivHn9YsCt5VwsKL4-8" value="&lt;font color=&quot;#ffffff&quot;&gt;APP&lt;/font&gt;" style="rounded=1;whiteSpace=wrap;html=1;fillColor=none;" parent="iTjGivHn9YsCt5VwsKL4-1" vertex="1">
                    <mxGeometry x="310" y="20" width="120" height="60" as="geometry"/>
                </mxCell>
                <mxCell id="iTjGivHn9YsCt5VwsKL4-9" style="edgeStyle=orthogonalEdgeStyle;rounded=0;orthogonalLoop=1;jettySize=auto;html=1;entryX=0.5;entryY=0;entryDx=0;entryDy=0;" parent="iTjGivHn9YsCt5VwsKL4-1" source="iTjGivHn9YsCt5VwsKL4-14" target="iTjGivHn9YsCt5VwsKL4-16" edge="1">
                    <mxGeometry relative="1" as="geometry"/>
                </mxCell>
                <mxCell id="iTjGivHn9YsCt5VwsKL4-10" style="edgeStyle=orthogonalEdgeStyle;rounded=0;orthogonalLoop=1;jettySize=auto;html=1;entryX=0.5;entryY=0;entryDx=0;entryDy=0;" parent="iTjGivHn9YsCt5VwsKL4-1" source="iTjGivHn9YsCt5VwsKL4-14" target="iTjGivHn9YsCt5VwsKL4-18" edge="1">
                    <mxGeometry relative="1" as="geometry"/>
                </mxCell>
                <mxCell id="iTjGivHn9YsCt5VwsKL4-11" style="edgeStyle=orthogonalEdgeStyle;rounded=0;orthogonalLoop=1;jettySize=auto;html=1;entryX=0.5;entryY=0;entryDx=0;entryDy=0;" parent="iTjGivHn9YsCt5VwsKL4-1" source="iTjGivHn9YsCt5VwsKL4-14" target="iTjGivHn9YsCt5VwsKL4-20" edge="1">
                    <mxGeometry relative="1" as="geometry"/>
                </mxCell>
                <mxCell id="iTjGivHn9YsCt5VwsKL4-12" style="edgeStyle=orthogonalEdgeStyle;rounded=0;orthogonalLoop=1;jettySize=auto;html=1;entryX=0.5;entryY=0;entryDx=0;entryDy=0;" parent="iTjGivHn9YsCt5VwsKL4-1" source="iTjGivHn9YsCt5VwsKL4-14" target="iTjGivHn9YsCt5VwsKL4-21" edge="1">
                    <mxGeometry relative="1" as="geometry"/>
                </mxCell>
                <mxCell id="iTjGivHn9YsCt5VwsKL4-13" style="edgeStyle=orthogonalEdgeStyle;rounded=0;orthogonalLoop=1;jettySize=auto;html=1;entryX=0.5;entryY=0;entryDx=0;entryDy=0;" parent="iTjGivHn9YsCt5VwsKL4-1" source="iTjGivHn9YsCt5VwsKL4-14" target="iTjGivHn9YsCt5VwsKL4-28" edge="1">
                    <mxGeometry relative="1" as="geometry"/>
                </mxCell>
                <mxCell id="iTjGivHn9YsCt5VwsKL4-14" value="&lt;font color=&quot;#6666ff&quot;&gt;&amp;lt;SideBar /&amp;gt;&lt;/font&gt;" style="rounded=1;whiteSpace=wrap;html=1;fillColor=none;" parent="iTjGivHn9YsCt5VwsKL4-1" vertex="1">
                    <mxGeometry x="-270" y="1180" width="120" height="60" as="geometry"/>
                </mxCell>
                <mxCell id="iTjGivHn9YsCt5VwsKL4-15" style="edgeStyle=orthogonalEdgeStyle;rounded=0;orthogonalLoop=1;jettySize=auto;html=1;entryX=0;entryY=0.5;entryDx=0;entryDy=0;" parent="iTjGivHn9YsCt5VwsKL4-1" source="iTjGivHn9YsCt5VwsKL4-16" target="iTjGivHn9YsCt5VwsKL4-26" edge="1">
                    <mxGeometry relative="1" as="geometry">
                        <mxPoint x="-110" y="2040" as="targetPoint"/>
                        <Array as="points">
                            <mxPoint x="-380" y="2180"/>
                        </Array>
                    </mxGeometry>
                </mxCell>
                <mxCell id="iTjGivHn9YsCt5VwsKL4-16" value="&lt;font color=&quot;#ffff99&quot;&gt;&amp;lt;HeaderSideBar /&amp;gt;&lt;/font&gt;" style="rounded=1;whiteSpace=wrap;html=1;fillColor=none;" parent="iTjGivHn9YsCt5VwsKL4-1" vertex="1">
                    <mxGeometry x="-520" y="1300" width="140" height="60" as="geometry"/>
                </mxCell>
                <mxCell id="iTjGivHn9YsCt5VwsKL4-17" style="edgeStyle=orthogonalEdgeStyle;rounded=0;orthogonalLoop=1;jettySize=auto;html=1;" parent="iTjGivHn9YsCt5VwsKL4-1" source="iTjGivHn9YsCt5VwsKL4-18" edge="1">
                    <mxGeometry relative="1" as="geometry">
                        <mxPoint x="-380" y="1720" as="targetPoint"/>
                        <Array as="points">
                            <mxPoint x="-320" y="1410"/>
                            <mxPoint x="-380" y="1410"/>
                        </Array>
                    </mxGeometry>
                </mxCell>
                <mxCell id="iTjGivHn9YsCt5VwsKL4-18" value="&lt;font color=&quot;#ffff99&quot;&gt;&amp;lt;Avatar /&amp;gt;&lt;/font&gt;" style="rounded=1;whiteSpace=wrap;html=1;fillColor=none;" parent="iTjGivHn9YsCt5VwsKL4-1" vertex="1">
                    <mxGeometry x="-360" y="1290" width="80" height="60" as="geometry"/>
                </mxCell>
                <mxCell id="iTjGivHn9YsCt5VwsKL4-19" style="edgeStyle=orthogonalEdgeStyle;rounded=0;orthogonalLoop=1;jettySize=auto;html=1;entryX=0.454;entryY=0.006;entryDx=0;entryDy=0;entryPerimeter=0;" parent="iTjGivHn9YsCt5VwsKL4-1" source="iTjGivHn9YsCt5VwsKL4-20" target="iTjGivHn9YsCt5VwsKL4-26" edge="1">
                    <mxGeometry relative="1" as="geometry">
                        <Array as="points">
                            <mxPoint x="-226" y="1620"/>
                            <mxPoint x="-270" y="1620"/>
                            <mxPoint x="-270" y="1630"/>
                            <mxPoint x="-310" y="1630"/>
                            <mxPoint x="-310" y="2070"/>
                            <mxPoint x="-120" y="2070"/>
                            <mxPoint x="-120" y="2150"/>
                        </Array>
                        <mxPoint x="-120" y="2140" as="targetPoint"/>
                    </mxGeometry>
                </mxCell>
                <mxCell id="iTjGivHn9YsCt5VwsKL4-20" value="&lt;font color=&quot;#ffff99&quot;&gt;&amp;lt;Descripton /&amp;gt;&lt;/font&gt;" style="rounded=1;whiteSpace=wrap;html=1;fillColor=none;" parent="iTjGivHn9YsCt5VwsKL4-1" vertex="1">
                    <mxGeometry x="-261" y="1290" width="81" height="60" as="geometry"/>
                </mxCell>
                <mxCell id="iTjGivHn9YsCt5VwsKL4-21" value="&lt;font color=&quot;#ffff99&quot;&gt;&amp;lt;Social /&amp;gt;&lt;/font&gt;" style="rounded=1;whiteSpace=wrap;html=1;fillColor=none;" parent="iTjGivHn9YsCt5VwsKL4-1" vertex="1">
                    <mxGeometry x="-155" y="1290" width="70" height="60" as="geometry"/>
                </mxCell>
                <mxCell id="iTjGivHn9YsCt5VwsKL4-22" style="edgeStyle=orthogonalEdgeStyle;rounded=0;orthogonalLoop=1;jettySize=auto;html=1;entryX=0.5;entryY=0;entryDx=0;entryDy=0;exitX=0.25;exitY=1;exitDx=0;exitDy=0;" parent="iTjGivHn9YsCt5VwsKL4-1" source="iTjGivHn9YsCt5VwsKL4-21" target="iTjGivHn9YsCt5VwsKL4-23" edge="1">
                    <mxGeometry relative="1" as="geometry">
                        <mxPoint x="-170" y="1540" as="sourcePoint"/>
                    </mxGeometry>
                </mxCell>
                <mxCell id="iTjGivHn9YsCt5VwsKL4-23" value="&lt;font color=&quot;#00cc66&quot;&gt;&amp;lt;a .../&amp;gt;&lt;br&gt;&lt;/font&gt;" style="rounded=1;whiteSpace=wrap;html=1;fillColor=none;" parent="iTjGivHn9YsCt5VwsKL4-1" vertex="1">
                    <mxGeometry x="-240" y="1656" width="80" height="50" as="geometry"/>
                </mxCell>
                <mxCell id="iTjGivHn9YsCt5VwsKL4-24" value="&lt;font color=&quot;#00cc66&quot;&gt;&amp;lt;a .../&amp;gt;&lt;br&gt;&lt;/font&gt;" style="rounded=1;whiteSpace=wrap;html=1;fillColor=none;" parent="iTjGivHn9YsCt5VwsKL4-1" vertex="1">
                    <mxGeometry x="-140" y="1656" width="80" height="50" as="geometry"/>
                </mxCell>
                <mxCell id="iTjGivHn9YsCt5VwsKL4-25" style="edgeStyle=orthogonalEdgeStyle;rounded=0;orthogonalLoop=1;jettySize=auto;html=1;entryX=0.5;entryY=0;entryDx=0;entryDy=0;exitX=0.5;exitY=1;exitDx=0;exitDy=0;" parent="iTjGivHn9YsCt5VwsKL4-1" source="iTjGivHn9YsCt5VwsKL4-21" target="iTjGivHn9YsCt5VwsKL4-24" edge="1">
                    <mxGeometry relative="1" as="geometry">
                        <mxPoint x="-70" y="1540" as="sourcePoint"/>
                    </mxGeometry>
                </mxCell>
                <mxCell id="iTjGivHn9YsCt5VwsKL4-26" value="&lt;font color=&quot;#ff99cc&quot;&gt;&amp;lt;Common/&amp;gt;&lt;/font&gt;" style="rounded=1;whiteSpace=wrap;html=1;fillColor=none;" parent="iTjGivHn9YsCt5VwsKL4-1" vertex="1">
                    <mxGeometry x="-168" y="2150" width="120" height="60" as="geometry"/>
                </mxCell>
                <mxCell id="iTjGivHn9YsCt5VwsKL4-27" style="edgeStyle=orthogonalEdgeStyle;rounded=0;orthogonalLoop=1;jettySize=auto;html=1;entryX=0.574;entryY=0.016;entryDx=0;entryDy=0;entryPerimeter=0;" parent="iTjGivHn9YsCt5VwsKL4-1" source="iTjGivHn9YsCt5VwsKL4-28" target="iTjGivHn9YsCt5VwsKL4-26" edge="1">
                    <mxGeometry relative="1" as="geometry">
                        <Array as="points">
                            <mxPoint x="5" y="1880"/>
                            <mxPoint x="-40" y="1880"/>
                            <mxPoint x="-40" y="1960"/>
                            <mxPoint x="-49" y="1960"/>
                            <mxPoint x="-49" y="2080"/>
                            <mxPoint x="-99" y="2080"/>
                        </Array>
                    </mxGeometry>
                </mxCell>
                <mxCell id="iTjGivHn9YsCt5VwsKL4-28" value="&lt;font color=&quot;#ffff99&quot;&gt;&amp;lt;AboutMe/&amp;gt;&lt;/font&gt;" style="rounded=1;whiteSpace=wrap;html=1;fillColor=none;" parent="iTjGivHn9YsCt5VwsKL4-1" vertex="1">
                    <mxGeometry x="-30" y="1310" width="70" height="60" as="geometry"/>
                </mxCell>
                <mxCell id="iTjGivHn9YsCt5VwsKL4-29" style="edgeStyle=orthogonalEdgeStyle;rounded=0;orthogonalLoop=1;jettySize=auto;html=1;entryX=0.5;entryY=0;entryDx=0;entryDy=0;" parent="iTjGivHn9YsCt5VwsKL4-1" source="iTjGivHn9YsCt5VwsKL4-32" target="iTjGivHn9YsCt5VwsKL4-34" edge="1">
                    <mxGeometry relative="1" as="geometry"/>
                </mxCell>
                <mxCell id="iTjGivHn9YsCt5VwsKL4-30" style="edgeStyle=orthogonalEdgeStyle;rounded=0;orthogonalLoop=1;jettySize=auto;html=1;entryX=0.5;entryY=0;entryDx=0;entryDy=0;" parent="iTjGivHn9YsCt5VwsKL4-1" source="iTjGivHn9YsCt5VwsKL4-32" target="iTjGivHn9YsCt5VwsKL4-36" edge="1">
                    <mxGeometry relative="1" as="geometry"/>
                </mxCell>
                <mxCell id="iTjGivHn9YsCt5VwsKL4-31" style="edgeStyle=orthogonalEdgeStyle;rounded=0;orthogonalLoop=1;jettySize=auto;html=1;entryX=0.5;entryY=0;entryDx=0;entryDy=0;" parent="iTjGivHn9YsCt5VwsKL4-1" source="iTjGivHn9YsCt5VwsKL4-32" target="iTjGivHn9YsCt5VwsKL4-38" edge="1">
                    <mxGeometry relative="1" as="geometry"/>
                </mxCell>
                <mxCell id="iTjGivHn9YsCt5VwsKL4-32" value="&lt;font color=&quot;#ffff99&quot;&gt;&amp;lt;button/&amp;gt;&lt;/font&gt;" style="rounded=1;whiteSpace=wrap;html=1;fillColor=none;" parent="iTjGivHn9YsCt5VwsKL4-1" vertex="1">
                    <mxGeometry x="174" y="384" width="108" height="60" as="geometry"/>
                </mxCell>
                <mxCell id="iTjGivHn9YsCt5VwsKL4-33" style="edgeStyle=orthogonalEdgeStyle;rounded=0;orthogonalLoop=1;jettySize=auto;html=1;entryX=0.5;entryY=0;entryDx=0;entryDy=0;" parent="iTjGivHn9YsCt5VwsKL4-1" source="iTjGivHn9YsCt5VwsKL4-34" target="iTjGivHn9YsCt5VwsKL4-39" edge="1">
                    <mxGeometry relative="1" as="geometry"/>
                </mxCell>
                <mxCell id="iTjGivHn9YsCt5VwsKL4-34" value="&lt;font color=&quot;#ffff99&quot;&gt;&amp;lt;CssArticles/&amp;gt;&lt;/font&gt;" style="rounded=1;whiteSpace=wrap;html=1;fillColor=none;" parent="iTjGivHn9YsCt5VwsKL4-1" vertex="1">
                    <mxGeometry x="50" y="510" width="108" height="60" as="geometry"/>
                </mxCell>
                <mxCell id="iTjGivHn9YsCt5VwsKL4-35" style="edgeStyle=orthogonalEdgeStyle;rounded=0;orthogonalLoop=1;jettySize=auto;html=1;entryX=0.5;entryY=0;entryDx=0;entryDy=0;" parent="iTjGivHn9YsCt5VwsKL4-1" source="iTjGivHn9YsCt5VwsKL4-36" target="iTjGivHn9YsCt5VwsKL4-39" edge="1">
                    <mxGeometry relative="1" as="geometry"/>
                </mxCell>
                <mxCell id="iTjGivHn9YsCt5VwsKL4-36" value="&lt;font color=&quot;#ffff99&quot;&gt;&amp;lt;JavaSrciptArticle /&amp;gt;&lt;/font&gt;" style="rounded=1;whiteSpace=wrap;html=1;fillColor=none;" parent="iTjGivHn9YsCt5VwsKL4-1" vertex="1">
                    <mxGeometry x="172" y="510" width="108" height="60" as="geometry"/>
                </mxCell>
                <mxCell id="iTjGivHn9YsCt5VwsKL4-37" style="edgeStyle=orthogonalEdgeStyle;rounded=0;orthogonalLoop=1;jettySize=auto;html=1;entryX=0.5;entryY=0;entryDx=0;entryDy=0;" parent="iTjGivHn9YsCt5VwsKL4-1" source="iTjGivHn9YsCt5VwsKL4-38" target="iTjGivHn9YsCt5VwsKL4-39" edge="1">
                    <mxGeometry relative="1" as="geometry">
                        <Array as="points">
                            <mxPoint x="348" y="610"/>
                            <mxPoint x="225" y="610"/>
                        </Array>
                    </mxGeometry>
                </mxCell>
                <mxCell id="iTjGivHn9YsCt5VwsKL4-38" value="&lt;font color=&quot;#ffff99&quot;&gt;&amp;lt;ReactArticle /&amp;gt;&lt;/font&gt;" style="rounded=1;whiteSpace=wrap;html=1;fillColor=none;" parent="iTjGivHn9YsCt5VwsKL4-1" vertex="1">
                    <mxGeometry x="294" y="510" width="108" height="60" as="geometry"/>
                </mxCell>
                <mxCell id="iTjGivHn9YsCt5VwsKL4-39" value="&lt;font color=&quot;#00cc66&quot;&gt;&amp;lt;p .../&amp;gt;Наименование категории (например, JS)&lt;br&gt;&lt;/font&gt;&lt;span style=&quot;color: rgb(0 , 204 , 102)&quot;&gt;&amp;lt;p .../&amp;gt;Число публиккаций&lt;br&gt;&lt;/span&gt;&lt;span style=&quot;color: rgb(0 , 204 , 102)&quot;&gt;&amp;lt;p .../&amp;gt;Дата последней публикации&lt;/span&gt;&lt;font color=&quot;#00cc66&quot;&gt;&lt;br&gt;&lt;/font&gt;" style="rounded=1;whiteSpace=wrap;html=1;fillColor=none;" parent="iTjGivHn9YsCt5VwsKL4-1" vertex="1">
                    <mxGeometry x="88" y="650" width="274" height="50" as="geometry"/>
                </mxCell>
                <mxCell id="iTjGivHn9YsCt5VwsKL4-40" style="edgeStyle=orthogonalEdgeStyle;rounded=0;orthogonalLoop=1;jettySize=auto;html=1;entryX=0.5;entryY=0;entryDx=0;entryDy=0;" parent="iTjGivHn9YsCt5VwsKL4-1" source="iTjGivHn9YsCt5VwsKL4-125" target="iTjGivHn9YsCt5VwsKL4-118" edge="1">
                    <mxGeometry relative="1" as="geometry"/>
                </mxCell>
                <mxCell id="iTjGivHn9YsCt5VwsKL4-41" style="edgeStyle=orthogonalEdgeStyle;rounded=0;orthogonalLoop=1;jettySize=auto;html=1;entryX=0.5;entryY=0;entryDx=0;entryDy=0;" parent="iTjGivHn9YsCt5VwsKL4-1" source="iTjGivHn9YsCt5VwsKL4-45" target="iTjGivHn9YsCt5VwsKL4-57" edge="1">
                    <mxGeometry relative="1" as="geometry">
                        <Array as="points">
                            <mxPoint x="80" y="170"/>
                            <mxPoint x="80" y="280"/>
                            <mxPoint x="-190" y="280"/>
                            <mxPoint x="-190" y="930"/>
                            <mxPoint x="330" y="930"/>
                        </Array>
                    </mxGeometry>
                </mxCell>
                <mxCell id="iTjGivHn9YsCt5VwsKL4-42" style="edgeStyle=orthogonalEdgeStyle;rounded=0;orthogonalLoop=1;jettySize=auto;html=1;entryX=0.5;entryY=0;entryDx=0;entryDy=0;exitX=0;exitY=0.5;exitDx=0;exitDy=0;" parent="iTjGivHn9YsCt5VwsKL4-1" source="iTjGivHn9YsCt5VwsKL4-128" target="iTjGivHn9YsCt5VwsKL4-32" edge="1">
                    <mxGeometry relative="1" as="geometry">
                        <mxPoint x="430" y="330" as="sourcePoint"/>
                    </mxGeometry>
                </mxCell>
                <mxCell id="iTjGivHn9YsCt5VwsKL4-43" style="edgeStyle=orthogonalEdgeStyle;rounded=0;orthogonalLoop=1;jettySize=auto;html=1;entryX=0.556;entryY=0;entryDx=0;entryDy=0;entryPerimeter=0;" parent="iTjGivHn9YsCt5VwsKL4-1" source="iTjGivHn9YsCt5VwsKL4-45" target="iTjGivHn9YsCt5VwsKL4-128" edge="1">
                    <mxGeometry relative="1" as="geometry">
                        <mxPoint x="420" y="300" as="targetPoint"/>
                        <Array as="points">
                            <mxPoint x="370" y="220"/>
                            <mxPoint x="500" y="220"/>
                        </Array>
                    </mxGeometry>
                </mxCell>
                <mxCell id="iTjGivHn9YsCt5VwsKL4-44" style="edgeStyle=orthogonalEdgeStyle;rounded=0;orthogonalLoop=1;jettySize=auto;html=1;entryX=0.5;entryY=0;entryDx=0;entryDy=0;" parent="iTjGivHn9YsCt5VwsKL4-1" source="iTjGivHn9YsCt5VwsKL4-45" target="iTjGivHn9YsCt5VwsKL4-100" edge="1">
                    <mxGeometry relative="1" as="geometry">
                        <mxPoint x="960" y="250" as="targetPoint"/>
                    </mxGeometry>
                </mxCell>
                <mxCell id="iTjGivHn9YsCt5VwsKL4-45" value="&lt;font color=&quot;#ffffff&quot;&gt;Home&lt;/font&gt;" style="rounded=1;whiteSpace=wrap;html=1;fillColor=#008a00;strokeColor=#005700;fontColor=#ffffff;" parent="iTjGivHn9YsCt5VwsKL4-1" vertex="1">
                    <mxGeometry x="310" y="140" width="120" height="60" as="geometry"/>
                </mxCell>
                <mxCell id="iTjGivHn9YsCt5VwsKL4-46" value="&lt;font color=&quot;#ff99cc&quot;&gt;&amp;lt;Common/&amp;gt;&lt;/font&gt;" style="rounded=1;whiteSpace=wrap;html=1;fillColor=none;" parent="iTjGivHn9YsCt5VwsKL4-1" vertex="1">
                    <mxGeometry x="505" y="724" width="120" height="60" as="geometry"/>
                </mxCell>
                <mxCell id="iTjGivHn9YsCt5VwsKL4-47" style="edgeStyle=orthogonalEdgeStyle;rounded=0;orthogonalLoop=1;jettySize=auto;html=1;entryX=0.5;entryY=0;entryDx=0;entryDy=0;" parent="iTjGivHn9YsCt5VwsKL4-1" source="iTjGivHn9YsCt5VwsKL4-49" target="iTjGivHn9YsCt5VwsKL4-57" edge="1">
                    <mxGeometry relative="1" as="geometry">
                        <Array as="points">
                            <mxPoint x="1630" y="170"/>
                            <mxPoint x="1630" y="970"/>
                            <mxPoint x="330" y="970"/>
                        </Array>
                    </mxGeometry>
                </mxCell>
                <mxCell id="iTjGivHn9YsCt5VwsKL4-48" style="edgeStyle=orthogonalEdgeStyle;rounded=0;orthogonalLoop=1;jettySize=auto;html=1;entryX=0.5;entryY=0;entryDx=0;entryDy=0;" parent="iTjGivHn9YsCt5VwsKL4-1" source="iTjGivHn9YsCt5VwsKL4-49" edge="1">
                    <mxGeometry relative="1" as="geometry">
                        <mxPoint x="1770" y="260" as="targetPoint"/>
                    </mxGeometry>
                </mxCell>
                <mxCell id="iTjGivHn9YsCt5VwsKL4-49" value="&lt;font color=&quot;#ffffff&quot;&gt;TextPage&lt;/font&gt;" style="rounded=1;whiteSpace=wrap;html=1;fillColor=#1ba1e2;strokeColor=#006EAF;fontColor=#ffffff;" parent="iTjGivHn9YsCt5VwsKL4-1" vertex="1">
                    <mxGeometry x="1680" y="140" width="120" height="60" as="geometry"/>
                </mxCell>
                <mxCell id="iTjGivHn9YsCt5VwsKL4-50" style="edgeStyle=orthogonalEdgeStyle;rounded=0;orthogonalLoop=1;jettySize=auto;html=1;entryX=0.5;entryY=0;entryDx=0;entryDy=0;" parent="iTjGivHn9YsCt5VwsKL4-1" source="iTjGivHn9YsCt5VwsKL4-57" target="iTjGivHn9YsCt5VwsKL4-59" edge="1">
                    <mxGeometry relative="1" as="geometry"/>
                </mxCell>
                <mxCell id="iTjGivHn9YsCt5VwsKL4-51" style="edgeStyle=orthogonalEdgeStyle;rounded=0;orthogonalLoop=1;jettySize=auto;html=1;entryX=0.5;entryY=0;entryDx=0;entryDy=0;" parent="iTjGivHn9YsCt5VwsKL4-1" source="iTjGivHn9YsCt5VwsKL4-57" target="iTjGivHn9YsCt5VwsKL4-61" edge="1">
                    <mxGeometry relative="1" as="geometry"/>
                </mxCell>
                <mxCell id="iTjGivHn9YsCt5VwsKL4-52" style="edgeStyle=orthogonalEdgeStyle;rounded=0;orthogonalLoop=1;jettySize=auto;html=1;entryX=0.5;entryY=0;entryDx=0;entryDy=0;" parent="iTjGivHn9YsCt5VwsKL4-1" source="iTjGivHn9YsCt5VwsKL4-57" target="iTjGivHn9YsCt5VwsKL4-65" edge="1">
                    <mxGeometry relative="1" as="geometry"/>
                </mxCell>
                <mxCell id="iTjGivHn9YsCt5VwsKL4-53" style="edgeStyle=orthogonalEdgeStyle;rounded=0;orthogonalLoop=1;jettySize=auto;html=1;entryX=0.5;entryY=0;entryDx=0;entryDy=0;" parent="iTjGivHn9YsCt5VwsKL4-1" source="iTjGivHn9YsCt5VwsKL4-57" target="iTjGivHn9YsCt5VwsKL4-68" edge="1">
                    <mxGeometry relative="1" as="geometry"/>
                </mxCell>
                <mxCell id="iTjGivHn9YsCt5VwsKL4-54" style="edgeStyle=orthogonalEdgeStyle;rounded=0;orthogonalLoop=1;jettySize=auto;html=1;entryX=0;entryY=0.5;entryDx=0;entryDy=0;" parent="iTjGivHn9YsCt5VwsKL4-1" source="iTjGivHn9YsCt5VwsKL4-57" target="iTjGivHn9YsCt5VwsKL4-83" edge="1">
                    <mxGeometry relative="1" as="geometry"/>
                </mxCell>
                <mxCell id="iTjGivHn9YsCt5VwsKL4-55" style="edgeStyle=orthogonalEdgeStyle;rounded=0;orthogonalLoop=1;jettySize=auto;html=1;entryX=0.5;entryY=0;entryDx=0;entryDy=0;" parent="iTjGivHn9YsCt5VwsKL4-1" source="iTjGivHn9YsCt5VwsKL4-57" target="iTjGivHn9YsCt5VwsKL4-14" edge="1">
                    <mxGeometry relative="1" as="geometry"/>
                </mxCell>
                <mxCell id="iTjGivHn9YsCt5VwsKL4-56" style="edgeStyle=orthogonalEdgeStyle;rounded=0;orthogonalLoop=1;jettySize=auto;html=1;entryX=0;entryY=0.5;entryDx=0;entryDy=0;" parent="iTjGivHn9YsCt5VwsKL4-1" source="iTjGivHn9YsCt5VwsKL4-57" target="iTjGivHn9YsCt5VwsKL4-109" edge="1">
                    <mxGeometry relative="1" as="geometry">
                        <Array as="points">
                            <mxPoint x="330" y="1020"/>
                        </Array>
                    </mxGeometry>
                </mxCell>
                <mxCell id="iTjGivHn9YsCt5VwsKL4-57" value="&lt;font color=&quot;#ff99cc&quot;&gt;&amp;lt;Common/&amp;gt;&lt;/font&gt;" style="rounded=1;whiteSpace=wrap;html=1;fillColor=none;" parent="iTjGivHn9YsCt5VwsKL4-1" vertex="1">
                    <mxGeometry x="270" y="1096" width="120" height="60" as="geometry"/>
                </mxCell>
                <mxCell id="iTjGivHn9YsCt5VwsKL4-58" style="edgeStyle=orthogonalEdgeStyle;rounded=0;orthogonalLoop=1;jettySize=auto;html=1;" parent="iTjGivHn9YsCt5VwsKL4-1" source="iTjGivHn9YsCt5VwsKL4-59" target="iTjGivHn9YsCt5VwsKL4-62" edge="1">
                    <mxGeometry relative="1" as="geometry"/>
                </mxCell>
                <mxCell id="iTjGivHn9YsCt5VwsKL4-59" value="&lt;font color=&quot;#ffff99&quot;&gt;&amp;lt;Title /&amp;gt;&lt;/font&gt;" style="rounded=1;whiteSpace=wrap;html=1;fillColor=none;" parent="iTjGivHn9YsCt5VwsKL4-1" vertex="1">
                    <mxGeometry x="260" y="1216" width="70" height="60" as="geometry"/>
                </mxCell>
                <mxCell id="iTjGivHn9YsCt5VwsKL4-60" style="edgeStyle=orthogonalEdgeStyle;rounded=0;orthogonalLoop=1;jettySize=auto;html=1;entryX=0.5;entryY=0;entryDx=0;entryDy=0;" parent="iTjGivHn9YsCt5VwsKL4-1" source="iTjGivHn9YsCt5VwsKL4-61" target="iTjGivHn9YsCt5VwsKL4-63" edge="1">
                    <mxGeometry relative="1" as="geometry"/>
                </mxCell>
                <mxCell id="iTjGivHn9YsCt5VwsKL4-61" value="&lt;font color=&quot;#ffff99&quot;&gt;&amp;lt;SubTitle/&amp;gt;&lt;/font&gt;" style="rounded=1;whiteSpace=wrap;html=1;fillColor=none;" parent="iTjGivHn9YsCt5VwsKL4-1" vertex="1">
                    <mxGeometry x="370" y="1216" width="70" height="60" as="geometry"/>
                </mxCell>
                <mxCell id="iTjGivHn9YsCt5VwsKL4-62" value="&lt;font color=&quot;#00cc66&quot;&gt;&amp;lt;h2 .../&amp;gt;&lt;br&gt;&lt;/font&gt;" style="rounded=1;whiteSpace=wrap;html=1;fillColor=none;" parent="iTjGivHn9YsCt5VwsKL4-1" vertex="1">
                    <mxGeometry x="270" y="1336" width="80" height="50" as="geometry"/>
                </mxCell>
                <mxCell id="iTjGivHn9YsCt5VwsKL4-63" value="&lt;font color=&quot;#00cc66&quot;&gt;&amp;lt;p .../&amp;gt;&lt;br&gt;&lt;/font&gt;" style="rounded=1;whiteSpace=wrap;html=1;fillColor=none;" parent="iTjGivHn9YsCt5VwsKL4-1" vertex="1">
                    <mxGeometry x="370" y="1336" width="80" height="50" as="geometry"/>
                </mxCell>
                <mxCell id="iTjGivHn9YsCt5VwsKL4-64" style="edgeStyle=orthogonalEdgeStyle;rounded=0;orthogonalLoop=1;jettySize=auto;html=1;entryX=0.5;entryY=0;entryDx=0;entryDy=0;" parent="iTjGivHn9YsCt5VwsKL4-1" source="iTjGivHn9YsCt5VwsKL4-65" target="iTjGivHn9YsCt5VwsKL4-66" edge="1">
                    <mxGeometry relative="1" as="geometry"/>
                </mxCell>
                <mxCell id="iTjGivHn9YsCt5VwsKL4-65" value="&lt;font color=&quot;#ffff99&quot;&gt;&amp;lt;Button/&amp;gt;&lt;/font&gt;" style="rounded=1;whiteSpace=wrap;html=1;fillColor=none;" parent="iTjGivHn9YsCt5VwsKL4-1" vertex="1">
                    <mxGeometry x="480" y="1216" width="70" height="60" as="geometry"/>
                </mxCell>
                <mxCell id="iTjGivHn9YsCt5VwsKL4-66" value="&lt;font color=&quot;#00cc66&quot;&gt;&amp;lt;button .../&amp;gt;&lt;br&gt;&lt;/font&gt;" style="rounded=1;whiteSpace=wrap;html=1;fillColor=none;" parent="iTjGivHn9YsCt5VwsKL4-1" vertex="1">
                    <mxGeometry x="480" y="1336" width="80" height="50" as="geometry"/>
                </mxCell>
                <mxCell id="iTjGivHn9YsCt5VwsKL4-67" style="edgeStyle=orthogonalEdgeStyle;rounded=0;orthogonalLoop=1;jettySize=auto;html=1;" parent="iTjGivHn9YsCt5VwsKL4-1" source="iTjGivHn9YsCt5VwsKL4-68" target="iTjGivHn9YsCt5VwsKL4-69" edge="1">
                    <mxGeometry relative="1" as="geometry"/>
                </mxCell>
                <mxCell id="iTjGivHn9YsCt5VwsKL4-68" value="&lt;font color=&quot;#ffff99&quot;&gt;&amp;lt;Logo /&amp;gt;&lt;/font&gt;" style="rounded=1;whiteSpace=wrap;html=1;fillColor=none;" parent="iTjGivHn9YsCt5VwsKL4-1" vertex="1">
                    <mxGeometry x="156" y="1216" width="70" height="60" as="geometry"/>
                </mxCell>
                <mxCell id="iTjGivHn9YsCt5VwsKL4-69" value="&lt;font color=&quot;#00cc66&quot;&gt;&amp;lt;img .../&amp;gt;&lt;/font&gt;" style="rounded=1;whiteSpace=wrap;html=1;fillColor=none;" parent="iTjGivHn9YsCt5VwsKL4-1" vertex="1">
                    <mxGeometry x="138" y="1336" width="80" height="46" as="geometry"/>
                </mxCell>
                <mxCell id="iTjGivHn9YsCt5VwsKL4-70" style="edgeStyle=orthogonalEdgeStyle;rounded=0;orthogonalLoop=1;jettySize=auto;html=1;exitX=0;exitY=0.5;exitDx=0;exitDy=0;" parent="iTjGivHn9YsCt5VwsKL4-1" source="iTjGivHn9YsCt5VwsKL4-72" edge="1">
                    <mxGeometry relative="1" as="geometry">
                        <mxPoint x="1630" y="850" as="targetPoint"/>
                        <Array as="points">
                            <mxPoint x="1930" y="170"/>
                            <mxPoint x="1930" y="800"/>
                            <mxPoint x="1800" y="800"/>
                            <mxPoint x="1800" y="810"/>
                            <mxPoint x="1670" y="810"/>
                            <mxPoint x="1670" y="850"/>
                        </Array>
                    </mxGeometry>
                </mxCell>
                <mxCell id="iTjGivHn9YsCt5VwsKL4-71" style="edgeStyle=orthogonalEdgeStyle;rounded=0;orthogonalLoop=1;jettySize=auto;html=1;entryX=0;entryY=0.5;entryDx=0;entryDy=0;" parent="iTjGivHn9YsCt5VwsKL4-1" source="iTjGivHn9YsCt5VwsKL4-72" edge="1">
                    <mxGeometry relative="1" as="geometry">
                        <mxPoint x="2150" y="250" as="targetPoint"/>
                    </mxGeometry>
                </mxCell>
                <mxCell id="iTjGivHn9YsCt5VwsKL4-72" value="&lt;font color=&quot;#ffffff&quot;&gt;Works&lt;/font&gt;" style="rounded=1;whiteSpace=wrap;html=1;fillColor=#f0a30a;strokeColor=#BD7000;fontColor=#000000;" parent="iTjGivHn9YsCt5VwsKL4-1" vertex="1">
                    <mxGeometry x="2090" y="140" width="120" height="60" as="geometry"/>
                </mxCell>
                <mxCell id="iTjGivHn9YsCt5VwsKL4-73" style="edgeStyle=orthogonalEdgeStyle;rounded=0;orthogonalLoop=1;jettySize=auto;html=1;entryX=0;entryY=0.5;entryDx=0;entryDy=0;" parent="iTjGivHn9YsCt5VwsKL4-1" source="iTjGivHn9YsCt5VwsKL4-75" target="iTjGivHn9YsCt5VwsKL4-77" edge="1">
                    <mxGeometry relative="1" as="geometry"/>
                </mxCell>
                <mxCell id="iTjGivHn9YsCt5VwsKL4-74" style="edgeStyle=orthogonalEdgeStyle;rounded=0;orthogonalLoop=1;jettySize=auto;html=1;entryX=0.5;entryY=0;entryDx=0;entryDy=0;" parent="iTjGivHn9YsCt5VwsKL4-1" source="iTjGivHn9YsCt5VwsKL4-75" edge="1">
                    <mxGeometry relative="1" as="geometry">
                        <mxPoint x="-940" y="270" as="targetPoint"/>
                    </mxGeometry>
                </mxCell>
                <mxCell id="iTjGivHn9YsCt5VwsKL4-75" value="&lt;font color=&quot;#ffffff&quot;&gt;Profile&lt;/font&gt;" style="rounded=1;whiteSpace=wrap;html=1;fillColor=#e51400;fontColor=#ffffff;strokeColor=#AB0000;" parent="iTjGivHn9YsCt5VwsKL4-1" vertex="1">
                    <mxGeometry x="-1000" y="150" width="120" height="60" as="geometry"/>
                </mxCell>
                <mxCell id="iTjGivHn9YsCt5VwsKL4-76" style="edgeStyle=orthogonalEdgeStyle;rounded=0;orthogonalLoop=1;jettySize=auto;html=1;entryX=0.5;entryY=0;entryDx=0;entryDy=0;" parent="iTjGivHn9YsCt5VwsKL4-1" source="iTjGivHn9YsCt5VwsKL4-77" target="iTjGivHn9YsCt5VwsKL4-57" edge="1">
                    <mxGeometry relative="1" as="geometry">
                        <Array as="points">
                            <mxPoint x="-780" y="640"/>
                            <mxPoint x="-450" y="640"/>
                            <mxPoint x="-450" y="1010"/>
                            <mxPoint x="330" y="1010"/>
                        </Array>
                    </mxGeometry>
                </mxCell>
                <mxCell id="iTjGivHn9YsCt5VwsKL4-77" value="&lt;font color=&quot;#ffffff&quot;&gt;Auth&lt;/font&gt;" style="rounded=1;whiteSpace=wrap;html=1;fillColor=#e51400;fontColor=#ffffff;strokeColor=#AB0000;" parent="iTjGivHn9YsCt5VwsKL4-1" vertex="1">
                    <mxGeometry x="-840" y="150" width="120" height="60" as="geometry"/>
                </mxCell>
                <mxCell id="iTjGivHn9YsCt5VwsKL4-78" style="edgeStyle=orthogonalEdgeStyle;rounded=0;orthogonalLoop=1;jettySize=auto;html=1;entryX=0.5;entryY=0;entryDx=0;entryDy=0;" parent="iTjGivHn9YsCt5VwsKL4-1" source="iTjGivHn9YsCt5VwsKL4-80" target="iTjGivHn9YsCt5VwsKL4-57" edge="1">
                    <mxGeometry relative="1" as="geometry">
                        <mxPoint x="320" y="1100" as="targetPoint"/>
                        <Array as="points">
                            <mxPoint x="-1300" y="170"/>
                            <mxPoint x="-1300" y="1070"/>
                            <mxPoint x="330" y="1070"/>
                        </Array>
                    </mxGeometry>
                </mxCell>
                <mxCell id="iTjGivHn9YsCt5VwsKL4-79" style="edgeStyle=orthogonalEdgeStyle;rounded=0;orthogonalLoop=1;jettySize=auto;html=1;entryX=0.5;entryY=0;entryDx=0;entryDy=0;" parent="iTjGivHn9YsCt5VwsKL4-1" source="iTjGivHn9YsCt5VwsKL4-80" edge="1">
                    <mxGeometry relative="1" as="geometry">
                        <mxPoint x="-1530" y="270" as="targetPoint"/>
                    </mxGeometry>
                </mxCell>
                <mxCell id="iTjGivHn9YsCt5VwsKL4-80" value="SearchResult" style="rounded=1;whiteSpace=wrap;html=1;fillColor=#d80073;fontColor=#ffffff;strokeColor=#A50040;" parent="iTjGivHn9YsCt5VwsKL4-1" vertex="1">
                    <mxGeometry x="-1590" y="140" width="120" height="60" as="geometry"/>
                </mxCell>
                <mxCell id="iTjGivHn9YsCt5VwsKL4-81" style="edgeStyle=orthogonalEdgeStyle;rounded=0;orthogonalLoop=1;jettySize=auto;html=1;entryX=0.5;entryY=0;entryDx=0;entryDy=0;" parent="iTjGivHn9YsCt5VwsKL4-1" source="iTjGivHn9YsCt5VwsKL4-83" target="iTjGivHn9YsCt5VwsKL4-88" edge="1">
                    <mxGeometry relative="1" as="geometry"/>
                </mxCell>
                <mxCell id="iTjGivHn9YsCt5VwsKL4-82" style="edgeStyle=orthogonalEdgeStyle;rounded=0;orthogonalLoop=1;jettySize=auto;html=1;entryX=0.6;entryY=0.017;entryDx=0;entryDy=0;entryPerimeter=0;" parent="iTjGivHn9YsCt5VwsKL4-1" source="iTjGivHn9YsCt5VwsKL4-83" target="iTjGivHn9YsCt5VwsKL4-86" edge="1">
                    <mxGeometry relative="1" as="geometry"/>
                </mxCell>
                <mxCell id="iTjGivHn9YsCt5VwsKL4-83" value="&lt;font color=&quot;#6666ff&quot;&gt;&amp;lt;Header /&amp;gt;&lt;/font&gt;" style="rounded=1;whiteSpace=wrap;html=1;fillColor=none;" parent="iTjGivHn9YsCt5VwsKL4-1" vertex="1">
                    <mxGeometry x="757" y="1096" width="120" height="60" as="geometry"/>
                </mxCell>
                <mxCell id="iTjGivHn9YsCt5VwsKL4-84" value="&lt;font color=&quot;#00cc66&quot;&gt;&amp;lt;nav&amp;gt;...&amp;lt;/nav&amp;gt;&lt;/font&gt;" style="rounded=1;whiteSpace=wrap;html=1;fillColor=none;" parent="iTjGivHn9YsCt5VwsKL4-1" vertex="1">
                    <mxGeometry x="680" y="1296" width="120" height="60" as="geometry"/>
                </mxCell>
                <mxCell id="iTjGivHn9YsCt5VwsKL4-85" style="edgeStyle=orthogonalEdgeStyle;rounded=0;orthogonalLoop=1;jettySize=auto;html=1;entryX=0.567;entryY=0;entryDx=0;entryDy=0;entryPerimeter=0;" parent="iTjGivHn9YsCt5VwsKL4-1" source="iTjGivHn9YsCt5VwsKL4-86" target="iTjGivHn9YsCt5VwsKL4-89" edge="1">
                    <mxGeometry relative="1" as="geometry"/>
                </mxCell>
                <mxCell id="iTjGivHn9YsCt5VwsKL4-86" value="&lt;font color=&quot;#ffff99&quot;&gt;Search&lt;/font&gt;" style="rounded=1;whiteSpace=wrap;html=1;fillColor=none;" parent="iTjGivHn9YsCt5VwsKL4-1" vertex="1">
                    <mxGeometry x="840" y="1196" width="120" height="60" as="geometry"/>
                </mxCell>
                <mxCell id="iTjGivHn9YsCt5VwsKL4-87" style="edgeStyle=orthogonalEdgeStyle;rounded=0;orthogonalLoop=1;jettySize=auto;html=1;entryX=0.5;entryY=0;entryDx=0;entryDy=0;" parent="iTjGivHn9YsCt5VwsKL4-1" source="iTjGivHn9YsCt5VwsKL4-88" target="iTjGivHn9YsCt5VwsKL4-84" edge="1">
                    <mxGeometry relative="1" as="geometry"/>
                </mxCell>
                <mxCell id="iTjGivHn9YsCt5VwsKL4-88" value="&lt;font color=&quot;#ffff99&quot;&gt;NavBar&lt;/font&gt;" style="rounded=1;whiteSpace=wrap;html=1;fillColor=none;" parent="iTjGivHn9YsCt5VwsKL4-1" vertex="1">
                    <mxGeometry x="680" y="1196" width="120" height="60" as="geometry"/>
                </mxCell>
                <mxCell id="iTjGivHn9YsCt5VwsKL4-89" value="&lt;font color=&quot;#00cc66&quot;&gt;&amp;lt;input&amp;gt;...&lt;/font&gt;" style="rounded=1;whiteSpace=wrap;html=1;fillColor=none;" parent="iTjGivHn9YsCt5VwsKL4-1" vertex="1">
                    <mxGeometry x="852" y="1296" width="120" height="60" as="geometry"/>
                </mxCell>
                <mxCell id="iTjGivHn9YsCt5VwsKL4-90" value="&lt;font style=&quot;font-size: 24px&quot;&gt;Header/Sidebar&lt;/font&gt;" style="text;html=1;strokeColor=none;fillColor=none;align=center;verticalAlign=middle;whiteSpace=wrap;rounded=0;" parent="iTjGivHn9YsCt5VwsKL4-1" vertex="1">
                    <mxGeometry x="877" y="920" width="170" height="20" as="geometry"/>
                </mxCell>
                <mxCell id="iTjGivHn9YsCt5VwsKL4-91" value="&lt;font style=&quot;font-size: 24px&quot;&gt;Header/Sidebar&lt;/font&gt;" style="text;html=1;strokeColor=none;fillColor=none;align=center;verticalAlign=middle;whiteSpace=wrap;rounded=0;" parent="iTjGivHn9YsCt5VwsKL4-1" vertex="1">
                    <mxGeometry x="1410" y="393" width="170" height="20" as="geometry"/>
                </mxCell>
                <mxCell id="iTjGivHn9YsCt5VwsKL4-92" value="&lt;font style=&quot;font-size: 24px&quot;&gt;Header/Sidebar&lt;/font&gt;" style="text;html=1;strokeColor=none;fillColor=none;align=center;verticalAlign=middle;whiteSpace=wrap;rounded=0;" parent="iTjGivHn9YsCt5VwsKL4-1" vertex="1">
                    <mxGeometry x="-710" y="565" width="170" height="60" as="geometry"/>
                </mxCell>
                <mxCell id="iTjGivHn9YsCt5VwsKL4-93" value="&lt;font style=&quot;font-size: 24px&quot;&gt;Header/Sidebar&lt;/font&gt;" style="text;html=1;strokeColor=none;fillColor=none;align=center;verticalAlign=middle;whiteSpace=wrap;rounded=0;" parent="iTjGivHn9YsCt5VwsKL4-1" vertex="1">
                    <mxGeometry x="-1310" y="490" width="170" height="20" as="geometry"/>
                </mxCell>
                <mxCell id="iTjGivHn9YsCt5VwsKL4-94" value="&lt;font style=&quot;font-size: 24px&quot;&gt;Header/Sidebar&lt;/font&gt;" style="text;html=1;strokeColor=none;fillColor=none;align=center;verticalAlign=middle;whiteSpace=wrap;rounded=0;" parent="iTjGivHn9YsCt5VwsKL4-1" vertex="1">
                    <mxGeometry x="-191" y="505" width="170" height="60" as="geometry"/>
                </mxCell>
                <mxCell id="iTjGivHn9YsCt5VwsKL4-95" value="&lt;font style=&quot;font-size: 24px&quot;&gt;Logo&lt;/font&gt;" style="text;html=1;strokeColor=none;fillColor=none;align=center;verticalAlign=middle;whiteSpace=wrap;rounded=0;" parent="iTjGivHn9YsCt5VwsKL4-1" vertex="1">
                    <mxGeometry x="-440" y="1590" width="40" height="20" as="geometry"/>
                </mxCell>
                <mxCell id="iTjGivHn9YsCt5VwsKL4-96" value="&lt;font style=&quot;font-size: 24px&quot;&gt;Title, Text&lt;/font&gt;" style="text;html=1;strokeColor=none;fillColor=none;align=center;verticalAlign=middle;whiteSpace=wrap;rounded=0;" parent="iTjGivHn9YsCt5VwsKL4-1" vertex="1">
                    <mxGeometry x="-270" y="1500" width="40" height="20" as="geometry"/>
                </mxCell>
                <mxCell id="iTjGivHn9YsCt5VwsKL4-97" value="&lt;font style=&quot;font-size: 24px&quot;&gt;Text&lt;/font&gt;" style="text;html=1;strokeColor=none;fillColor=none;align=center;verticalAlign=middle;whiteSpace=wrap;rounded=0;" parent="iTjGivHn9YsCt5VwsKL4-1" vertex="1">
                    <mxGeometry x="10" y="1480" width="40" height="20" as="geometry"/>
                </mxCell>
                <mxCell id="iTjGivHn9YsCt5VwsKL4-99" style="edgeStyle=orthogonalEdgeStyle;rounded=0;orthogonalLoop=1;jettySize=auto;html=1;entryX=0.5;entryY=0;entryDx=0;entryDy=0;" parent="iTjGivHn9YsCt5VwsKL4-1" source="iTjGivHn9YsCt5VwsKL4-100" target="iTjGivHn9YsCt5VwsKL4-104" edge="1">
                    <mxGeometry relative="1" as="geometry"/>
                </mxCell>
                <mxCell id="iTjGivHn9YsCt5VwsKL4-153" style="edgeStyle=orthogonalEdgeStyle;rounded=0;orthogonalLoop=1;jettySize=auto;html=1;entryX=0.5;entryY=0;entryDx=0;entryDy=0;" parent="iTjGivHn9YsCt5VwsKL4-1" source="iTjGivHn9YsCt5VwsKL4-100" target="iTjGivHn9YsCt5VwsKL4-151" edge="1">
                    <mxGeometry relative="1" as="geometry">
                        <mxPoint x="980" y="390" as="targetPoint"/>
                    </mxGeometry>
                </mxCell>
                <mxCell id="iTjGivHn9YsCt5VwsKL4-100" value="&lt;font color=&quot;#ffff99&quot;&gt;&amp;lt;Notes /&amp;gt;&lt;/font&gt;" style="rounded=1;whiteSpace=wrap;html=1;fillColor=none;" parent="iTjGivHn9YsCt5VwsKL4-1" vertex="1">
                    <mxGeometry x="1014" y="290" width="108" height="60" as="geometry"/>
                </mxCell>
                <mxCell id="iTjGivHn9YsCt5VwsKL4-101" style="edgeStyle=orthogonalEdgeStyle;rounded=0;orthogonalLoop=1;jettySize=auto;html=1;entryX=0.5;entryY=0;entryDx=0;entryDy=0;" parent="iTjGivHn9YsCt5VwsKL4-1" source="iTjGivHn9YsCt5VwsKL4-102" target="iTjGivHn9YsCt5VwsKL4-111" edge="1">
                    <mxGeometry relative="1" as="geometry"/>
                </mxCell>
                <mxCell id="iTjGivHn9YsCt5VwsKL4-102" value="&lt;font color=&quot;#ffff99&quot;&gt;&amp;lt;EnteringNotes /&amp;gt;&lt;/font&gt;" style="rounded=1;whiteSpace=wrap;html=1;fillColor=none;" parent="iTjGivHn9YsCt5VwsKL4-1" vertex="1">
                    <mxGeometry x="846" y="530" width="108" height="60" as="geometry"/>
                </mxCell>
                <mxCell id="iTjGivHn9YsCt5VwsKL4-103" style="edgeStyle=orthogonalEdgeStyle;rounded=0;orthogonalLoop=1;jettySize=auto;html=1;" parent="iTjGivHn9YsCt5VwsKL4-1" source="iTjGivHn9YsCt5VwsKL4-104" target="iTjGivHn9YsCt5VwsKL4-116" edge="1">
                    <mxGeometry relative="1" as="geometry"/>
                </mxCell>
                <mxCell id="iTjGivHn9YsCt5VwsKL4-104" value="&lt;font color=&quot;#ffff99&quot;&gt;&amp;lt;View Notes /&amp;gt;&lt;/font&gt;" style="rounded=1;whiteSpace=wrap;html=1;fillColor=none;" parent="iTjGivHn9YsCt5VwsKL4-1" vertex="1">
                    <mxGeometry x="1104" y="400" width="108" height="60" as="geometry"/>
                </mxCell>
                <mxCell id="iTjGivHn9YsCt5VwsKL4-105" style="edgeStyle=orthogonalEdgeStyle;rounded=0;orthogonalLoop=1;jettySize=auto;html=1;" parent="iTjGivHn9YsCt5VwsKL4-1" source="iTjGivHn9YsCt5VwsKL4-106" target="iTjGivHn9YsCt5VwsKL4-107" edge="1">
                    <mxGeometry relative="1" as="geometry"/>
                </mxCell>
                <mxCell id="iTjGivHn9YsCt5VwsKL4-106" value="&lt;font color=&quot;#ffff99&quot;&gt;&amp;lt;Tags /&amp;gt;&lt;/font&gt;" style="rounded=1;whiteSpace=wrap;html=1;fillColor=none;" parent="iTjGivHn9YsCt5VwsKL4-1" vertex="1">
                    <mxGeometry x="1024" y="1200" width="80" height="60" as="geometry"/>
                </mxCell>
                <mxCell id="iTjGivHn9YsCt5VwsKL4-107" value="&lt;font color=&quot;#00cc66&quot;&gt;&amp;lt;p&amp;gt; ... &amp;lt;/p&amp;gt;&lt;br&gt;&amp;lt;span .../&amp;gt;Дата публикации&lt;br&gt;&lt;/font&gt;&lt;font color=&quot;#00cc66&quot;&gt;&lt;br&gt;&lt;/font&gt;" style="rounded=1;whiteSpace=wrap;html=1;fillColor=none;" parent="iTjGivHn9YsCt5VwsKL4-1" vertex="1">
                    <mxGeometry x="916" y="1410" width="193" height="50" as="geometry"/>
                </mxCell>
                <mxCell id="iTjGivHn9YsCt5VwsKL4-108" style="edgeStyle=orthogonalEdgeStyle;rounded=0;orthogonalLoop=1;jettySize=auto;html=1;" parent="iTjGivHn9YsCt5VwsKL4-1" source="iTjGivHn9YsCt5VwsKL4-109" target="iTjGivHn9YsCt5VwsKL4-106" edge="1">
                    <mxGeometry relative="1" as="geometry"/>
                </mxCell>
                <mxCell id="iTjGivHn9YsCt5VwsKL4-109" value="&lt;font color=&quot;#6666ff&quot;&gt;&amp;lt;Card/&amp;gt;&lt;/font&gt;" style="rounded=1;whiteSpace=wrap;html=1;fillColor=none;" parent="iTjGivHn9YsCt5VwsKL4-1" vertex="1">
                    <mxGeometry x="972" y="1100" width="120" height="60" as="geometry"/>
                </mxCell>
                <mxCell id="iTjGivHn9YsCt5VwsKL4-110" style="edgeStyle=orthogonalEdgeStyle;rounded=0;orthogonalLoop=1;jettySize=auto;html=1;entryX=0.5;entryY=0;entryDx=0;entryDy=0;" parent="iTjGivHn9YsCt5VwsKL4-1" source="iTjGivHn9YsCt5VwsKL4-111" target="iTjGivHn9YsCt5VwsKL4-113" edge="1">
                    <mxGeometry relative="1" as="geometry"/>
                </mxCell>
                <mxCell id="iTjGivHn9YsCt5VwsKL4-111" value="&lt;font color=&quot;#00cc00&quot;&gt;&amp;lt;form&amp;gt;&lt;br&gt;&amp;lt;textarea /&amp;gt;&lt;br&gt;&amp;lt;Action /&amp;gt;&lt;br&gt;&amp;lt;/form&amp;gt;&lt;/font&gt;" style="rounded=1;whiteSpace=wrap;html=1;fillColor=none;" parent="iTjGivHn9YsCt5VwsKL4-1" vertex="1">
                    <mxGeometry x="846" y="630" width="108" height="60" as="geometry"/>
                </mxCell>
                <mxCell id="iTjGivHn9YsCt5VwsKL4-112" style="edgeStyle=orthogonalEdgeStyle;rounded=0;orthogonalLoop=1;jettySize=auto;html=1;entryX=0.5;entryY=0;entryDx=0;entryDy=0;" parent="iTjGivHn9YsCt5VwsKL4-1" source="iTjGivHn9YsCt5VwsKL4-113" target="iTjGivHn9YsCt5VwsKL4-114" edge="1">
                    <mxGeometry relative="1" as="geometry"/>
                </mxCell>
                <mxCell id="iTjGivHn9YsCt5VwsKL4-113" value="&lt;font color=&quot;#ffff99&quot;&gt;&amp;lt;Action /&amp;gt;&lt;/font&gt;" style="rounded=1;whiteSpace=wrap;html=1;fillColor=none;" parent="iTjGivHn9YsCt5VwsKL4-1" vertex="1">
                    <mxGeometry x="849.5" y="730" width="101" height="40" as="geometry"/>
                </mxCell>
                <mxCell id="iTjGivHn9YsCt5VwsKL4-114" value="&lt;font color=&quot;#00cc00&quot;&gt;&amp;lt;&amp;gt;&lt;br&gt;&amp;lt;textarea /&amp;gt;&lt;br&gt;&amp;lt;Action /&amp;gt;&lt;br&gt;&amp;lt;/form&amp;gt;&lt;/font&gt;" style="rounded=1;whiteSpace=wrap;html=1;fillColor=none;" parent="iTjGivHn9YsCt5VwsKL4-1" vertex="1">
                    <mxGeometry x="846" y="800" width="108" height="60" as="geometry"/>
                </mxCell>
                <mxCell id="iTjGivHn9YsCt5VwsKL4-115" style="edgeStyle=orthogonalEdgeStyle;rounded=0;orthogonalLoop=1;jettySize=auto;html=1;entryX=0.631;entryY=1.029;entryDx=0;entryDy=0;entryPerimeter=0;" parent="iTjGivHn9YsCt5VwsKL4-1" source="iTjGivHn9YsCt5VwsKL4-116" target="iTjGivHn9YsCt5VwsKL4-46" edge="1">
                    <mxGeometry relative="1" as="geometry">
                        <Array as="points">
                            <mxPoint x="1152" y="880"/>
                            <mxPoint x="581" y="880"/>
                        </Array>
                    </mxGeometry>
                </mxCell>
                <mxCell id="iTjGivHn9YsCt5VwsKL4-116" value="&lt;font color=&quot;#6666ff&quot;&gt;&amp;lt;Card/&amp;gt;&lt;/font&gt;" style="rounded=1;whiteSpace=wrap;html=1;fillColor=none;" parent="iTjGivHn9YsCt5VwsKL4-1" vertex="1">
                    <mxGeometry x="1092" y="520" width="120" height="60" as="geometry"/>
                </mxCell>
                <mxCell id="iTjGivHn9YsCt5VwsKL4-117" style="edgeStyle=orthogonalEdgeStyle;rounded=0;orthogonalLoop=1;jettySize=auto;html=1;entryX=0.5;entryY=0;entryDx=0;entryDy=0;" parent="iTjGivHn9YsCt5VwsKL4-1" source="iTjGivHn9YsCt5VwsKL4-118" target="iTjGivHn9YsCt5VwsKL4-46" edge="1">
                    <mxGeometry relative="1" as="geometry"/>
                </mxCell>
                <mxCell id="iTjGivHn9YsCt5VwsKL4-118" value="&lt;font color=&quot;#6666ff&quot;&gt;&amp;lt;CardPosts/&amp;gt;&lt;/font&gt;" style="rounded=1;whiteSpace=wrap;html=1;fillColor=none;" parent="iTjGivHn9YsCt5VwsKL4-1" vertex="1">
                    <mxGeometry x="480" y="604" width="120" height="60" as="geometry"/>
                </mxCell>
                <mxCell id="iTjGivHn9YsCt5VwsKL4-119" style="edgeStyle=orthogonalEdgeStyle;rounded=0;orthogonalLoop=1;jettySize=auto;html=1;" parent="iTjGivHn9YsCt5VwsKL4-1" source="iTjGivHn9YsCt5VwsKL4-120" target="iTjGivHn9YsCt5VwsKL4-137" edge="1">
                    <mxGeometry relative="1" as="geometry"/>
                </mxCell>
                <mxCell id="iTjGivHn9YsCt5VwsKL4-120" value="&lt;font color=&quot;#ffff99&quot;&gt;&amp;lt;Articles/&amp;gt;&lt;/font&gt;" style="rounded=1;whiteSpace=wrap;html=1;fillColor=none;" parent="iTjGivHn9YsCt5VwsKL4-1" vertex="1">
                    <mxGeometry x="1690" y="260" width="120" height="60" as="geometry"/>
                </mxCell>
                <mxCell id="iTjGivHn9YsCt5VwsKL4-121" value="&lt;font color=&quot;#6666ff&quot;&gt;&amp;lt;Card/&amp;gt;&lt;/font&gt;" style="rounded=1;whiteSpace=wrap;html=1;fillColor=none;" parent="iTjGivHn9YsCt5VwsKL4-1" vertex="1">
                    <mxGeometry x="1710" y="460" width="120" height="60" as="geometry"/>
                </mxCell>
                <mxCell id="iTjGivHn9YsCt5VwsKL4-122" value="&lt;font color=&quot;#6666ff&quot;&gt;&amp;lt;CardPosts/&amp;gt;&lt;/font&gt;" style="rounded=1;whiteSpace=wrap;html=1;fillColor=none;" parent="iTjGivHn9YsCt5VwsKL4-1" vertex="1">
                    <mxGeometry x="-1590" y="270" width="120" height="60" as="geometry"/>
                </mxCell>
                <mxCell id="iTjGivHn9YsCt5VwsKL4-123" value="&lt;font color=&quot;#ffffff&quot;&gt;index.JS&lt;/font&gt;" style="rounded=1;whiteSpace=wrap;html=1;fontColor=#ffffff;fillColor=none;strokeColor=#00CC00;" parent="iTjGivHn9YsCt5VwsKL4-1" vertex="1">
                    <mxGeometry x="100" y="-270" width="182" height="60" as="geometry"/>
                </mxCell>
                <mxCell id="iTjGivHn9YsCt5VwsKL4-124" value="" style="rounded=1;whiteSpace=wrap;html=1;fillColor=#30301D;" parent="iTjGivHn9YsCt5VwsKL4-1" vertex="1">
                    <mxGeometry x="430" y="444" width="108" height="60" as="geometry"/>
                </mxCell>
                <mxCell id="iTjGivHn9YsCt5VwsKL4-125" value="&lt;font color=&quot;#ffff99&quot;&gt;&amp;lt;Post /&amp;gt;&lt;/font&gt;" style="rounded=1;whiteSpace=wrap;html=1;fillColor=#30301D;" parent="iTjGivHn9YsCt5VwsKL4-1" vertex="1">
                    <mxGeometry x="464" y="484" width="108" height="60" as="geometry"/>
                </mxCell>
                <mxCell id="iTjGivHn9YsCt5VwsKL4-126" value="&lt;font color=&quot;#ffffff&quot;&gt;&lt;span style=&quot;font-size: 14px&quot;&gt;&lt;i&gt;Store = {}&lt;/i&gt;&lt;/span&gt;&lt;/font&gt;" style="rounded=1;whiteSpace=wrap;html=1;fillColor=none;strokeColor=#FF3333;" parent="iTjGivHn9YsCt5VwsKL4-1" vertex="1">
                    <mxGeometry x="101" y="-510" width="180" height="60" as="geometry"/>
                </mxCell>
                <mxCell id="iTjGivHn9YsCt5VwsKL4-127" style="edgeStyle=orthogonalEdgeStyle;rounded=0;orthogonalLoop=1;jettySize=auto;html=1;entryX=0.5;entryY=0;entryDx=0;entryDy=0;" parent="iTjGivHn9YsCt5VwsKL4-1" source="iTjGivHn9YsCt5VwsKL4-128" target="iTjGivHn9YsCt5VwsKL4-2" edge="1">
                    <mxGeometry relative="1" as="geometry"/>
                </mxCell>
                <mxCell id="iTjGivHn9YsCt5VwsKL4-128" value="&lt;font color=&quot;#ffff99&quot;&gt;&amp;lt;PostsContainer /&amp;gt;&lt;/font&gt;" style="rounded=1;whiteSpace=wrap;html=1;fillColor=none;" parent="iTjGivHn9YsCt5VwsKL4-1" vertex="1">
                    <mxGeometry x="440" y="300" width="108" height="60" as="geometry"/>
                </mxCell>
                <mxCell id="iTjGivHn9YsCt5VwsKL4-129" value="" style="endArrow=none;html=1;strokeColor=#CC0000;" parent="iTjGivHn9YsCt5VwsKL4-1" edge="1">
                    <mxGeometry width="50" height="50" relative="1" as="geometry">
                        <mxPoint x="-1740" as="sourcePoint"/>
                        <mxPoint x="2290" y="-10" as="targetPoint"/>
                    </mxGeometry>
                </mxCell>
                <mxCell id="iTjGivHn9YsCt5VwsKL4-130" value="" style="endArrow=classic;html=1;strokeColor=#FFFFFF;dashed=1;" parent="iTjGivHn9YsCt5VwsKL4-1" edge="1">
                    <mxGeometry width="50" height="50" relative="1" as="geometry">
                        <mxPoint x="183" y="-330" as="sourcePoint"/>
                        <mxPoint x="210" y="-270" as="targetPoint"/>
                    </mxGeometry>
                </mxCell>
                <mxCell id="iTjGivHn9YsCt5VwsKL4-131" value="&lt;i&gt;&lt;font style=&quot;font-size: 14px&quot; color=&quot;#ffffff&quot;&gt;posts= [ ]&lt;/font&gt;&lt;/i&gt;" style="rounded=1;whiteSpace=wrap;html=1;fillColor=none;strokeColor=#FF3333;" parent="iTjGivHn9YsCt5VwsKL4-1" vertex="1">
                    <mxGeometry x="510" y="250" width="82" height="30" as="geometry"/>
                </mxCell>
                <mxCell id="iTjGivHn9YsCt5VwsKL4-132" value="" style="endArrow=classic;html=1;strokeColor=#FFFFFF;dashed=1;" parent="iTjGivHn9YsCt5VwsKL4-1" edge="1">
                    <mxGeometry width="50" height="50" relative="1" as="geometry">
                        <mxPoint x="440" y="70" as="sourcePoint"/>
                        <mxPoint x="420" y="130" as="targetPoint"/>
                    </mxGeometry>
                </mxCell>
                <mxCell id="iTjGivHn9YsCt5VwsKL4-133" value="" style="endArrow=classic;html=1;strokeColor=#FFFFFF;dashed=1;" parent="iTjGivHn9YsCt5VwsKL4-1" edge="1">
                    <mxGeometry width="50" height="50" relative="1" as="geometry">
                        <mxPoint x="485" y="190" as="sourcePoint"/>
                        <mxPoint x="555" y="270" as="targetPoint"/>
                    </mxGeometry>
                </mxCell>
                <mxCell id="iTjGivHn9YsCt5VwsKL4-134" value="&lt;font color=&quot;#ffffff&quot;&gt;store.JS&lt;/font&gt;" style="rounded=1;whiteSpace=wrap;html=1;fontColor=#ffffff;fillColor=none;strokeColor=#00CC00;" parent="iTjGivHn9YsCt5VwsKL4-1" vertex="1">
                    <mxGeometry x="80" y="-400" width="182" height="60" as="geometry"/>
                </mxCell>
                <mxCell id="iTjGivHn9YsCt5VwsKL4-135" value="&lt;i&gt;&lt;font style=&quot;font-size: 14px&quot; color=&quot;#ffffff&quot;&gt;store = {}&lt;br&gt;&lt;/font&gt;&lt;/i&gt;" style="rounded=1;whiteSpace=wrap;html=1;fillColor=none;strokeColor=#FF3333;" parent="iTjGivHn9YsCt5VwsKL4-1" vertex="1">
                    <mxGeometry x="320" y="-160" width="100" height="20" as="geometry"/>
                </mxCell>
                <mxCell id="iTjGivHn9YsCt5VwsKL4-136" style="edgeStyle=orthogonalEdgeStyle;rounded=0;orthogonalLoop=1;jettySize=auto;html=1;entryX=0.5;entryY=0;entryDx=0;entryDy=0;" parent="iTjGivHn9YsCt5VwsKL4-1" source="iTjGivHn9YsCt5VwsKL4-137" target="iTjGivHn9YsCt5VwsKL4-121" edge="1">
                    <mxGeometry relative="1" as="geometry"/>
                </mxCell>
                <mxCell id="iTjGivHn9YsCt5VwsKL4-137" value="&lt;font color=&quot;#ffff99&quot;&gt;&amp;lt;Article/&amp;gt;&lt;/font&gt;" style="rounded=1;whiteSpace=wrap;html=1;fillColor=none;" parent="iTjGivHn9YsCt5VwsKL4-1" vertex="1">
                    <mxGeometry x="1710" y="360" width="120" height="60" as="geometry"/>
                </mxCell>
                <mxCell id="iTjGivHn9YsCt5VwsKL4-138" value="&lt;i&gt;&lt;font style=&quot;font-size: 14px&quot; color=&quot;#ffffff&quot;&gt;store ={ }&lt;/font&gt;&lt;/i&gt;&lt;i&gt;&lt;font style=&quot;font-size: 14px&quot; color=&quot;#ffffff&quot;&gt;&lt;br&gt;&lt;/font&gt;&lt;/i&gt;" style="rounded=1;whiteSpace=wrap;html=1;fillColor=none;strokeColor=#FF3333;" parent="iTjGivHn9YsCt5VwsKL4-1" vertex="1">
                    <mxGeometry x="440" y="90" width="100" height="20" as="geometry"/>
                </mxCell>
                <mxCell id="iTjGivHn9YsCt5VwsKL4-139" value="" style="endArrow=classic;html=1;strokeColor=#FFFFFF;dashed=1;" parent="iTjGivHn9YsCt5VwsKL4-1" edge="1">
                    <mxGeometry width="50" height="50" relative="1" as="geometry">
                        <mxPoint x="520" y="70" as="sourcePoint"/>
                        <mxPoint x="1690" y="130" as="targetPoint"/>
                    </mxGeometry>
                </mxCell>
                <mxCell id="iTjGivHn9YsCt5VwsKL4-140" value="&lt;i&gt;&lt;font style=&quot;font-size: 14px&quot; color=&quot;#ffffff&quot;&gt;state={&lt;br&gt;&lt;/font&gt;&lt;/i&gt;&lt;i&gt;&lt;font style=&quot;font-size: 14px&quot; color=&quot;#ffffff&quot;&gt;TextPage: {}&lt;br&gt;}&lt;br&gt;&lt;/font&gt;&lt;/i&gt;" style="rounded=1;whiteSpace=wrap;html=1;fillColor=none;strokeColor=#FF3333;" parent="iTjGivHn9YsCt5VwsKL4-1" vertex="1">
                    <mxGeometry x="1250" y="120" width="140" height="40" as="geometry"/>
                </mxCell>
                <mxCell id="iTjGivHn9YsCt5VwsKL4-141" value="&lt;i&gt;&lt;font style=&quot;font-size: 14px&quot; color=&quot;#ffffff&quot;&gt;rerenderEntireTree()&lt;br&gt;&lt;/font&gt;&lt;/i&gt;" style="rounded=1;whiteSpace=wrap;html=1;fillColor=none;strokeColor=#FFFF99;" parent="iTjGivHn9YsCt5VwsKL4-1" vertex="1">
                    <mxGeometry x="292" y="-270" width="140" height="40" as="geometry"/>
                </mxCell>
                <mxCell id="iTjGivHn9YsCt5VwsKL4-142" value="" style="endArrow=classic;html=1;strokeColor=#FFFFFF;dashed=1;" parent="iTjGivHn9YsCt5VwsKL4-1" edge="1">
                    <mxGeometry width="50" height="50" relative="1" as="geometry">
                        <mxPoint x="236" y="-190" as="sourcePoint"/>
                        <mxPoint x="340.00000000000045" as="targetPoint"/>
                    </mxGeometry>
                </mxCell>
                <mxCell id="iTjGivHn9YsCt5VwsKL4-143" value="" style="endArrow=classic;html=1;shape=flexArrow;strokeColor=#00CC00;width=4.285714285714286;endSize=13.342857142857143;endWidth=28.16326530612245;" parent="iTjGivHn9YsCt5VwsKL4-1" edge="1">
                    <mxGeometry width="50" height="50" relative="1" as="geometry">
                        <mxPoint x="60" y="-340" as="sourcePoint"/>
                        <mxPoint x="50" y="-240" as="targetPoint"/>
                    </mxGeometry>
                </mxCell>
                <mxCell id="iTjGivHn9YsCt5VwsKL4-144" value="&lt;i&gt;&lt;font style=&quot;font-size: 14px&quot; color=&quot;#ffffff&quot;&gt;inport store&lt;br&gt;subcribe()&lt;br&gt;&lt;/font&gt;&lt;/i&gt;" style="rounded=1;whiteSpace=wrap;html=1;fillColor=none;strokeColor=none;" parent="iTjGivHn9YsCt5VwsKL4-1" vertex="1">
                    <mxGeometry x="-51" y="-413" width="112" height="40" as="geometry"/>
                </mxCell>
                <mxCell id="iTjGivHn9YsCt5VwsKL4-145" value="" style="endArrow=classic;html=1;strokeColor=#FFFFFF;dashed=1;" parent="iTjGivHn9YsCt5VwsKL4-1" edge="1">
                    <mxGeometry width="50" height="50" relative="1" as="geometry">
                        <mxPoint x="730" y="200" as="sourcePoint"/>
                        <mxPoint x="1010" y="270" as="targetPoint"/>
                    </mxGeometry>
                </mxCell>
                <mxCell id="iTjGivHn9YsCt5VwsKL4-146" value="&lt;i&gt;&lt;font style=&quot;font-size: 14px&quot; color=&quot;#ffffff&quot;&gt;textNotes= &quot;&quot;&lt;/font&gt;&lt;/i&gt;" style="rounded=1;whiteSpace=wrap;html=1;fillColor=none;strokeColor=#FF3333;" parent="iTjGivHn9YsCt5VwsKL4-1" vertex="1">
                    <mxGeometry x="777" y="240" width="93" height="40" as="geometry"/>
                </mxCell>
                <mxCell id="iTjGivHn9YsCt5VwsKL4-147" value="" style="endArrow=classic;html=1;strokeColor=#FFFFFF;dashed=1;" parent="iTjGivHn9YsCt5VwsKL4-1" edge="1">
                    <mxGeometry width="50" height="50" relative="1" as="geometry">
                        <mxPoint x="1037" y="350" as="sourcePoint"/>
                        <mxPoint x="980" y="390" as="targetPoint"/>
                    </mxGeometry>
                </mxCell>
                <mxCell id="iTjGivHn9YsCt5VwsKL4-148" value="&lt;i&gt;&lt;font style=&quot;font-size: 14px&quot; color=&quot;#ffffff&quot;&gt;textNotes= &quot;&quot;&lt;/font&gt;&lt;/i&gt;" style="rounded=1;whiteSpace=wrap;html=1;fillColor=none;strokeColor=#FF3333;" parent="iTjGivHn9YsCt5VwsKL4-1" vertex="1">
                    <mxGeometry x="955.5" y="210" width="90" height="30" as="geometry"/>
                </mxCell>
                <mxCell id="iTjGivHn9YsCt5VwsKL4-149" value="&lt;i&gt;&lt;font style=&quot;font-size: 14px&quot; color=&quot;#ffffff&quot;&gt;subscribe()&lt;br&gt;&lt;/font&gt;&lt;/i&gt;" style="rounded=1;whiteSpace=wrap;html=1;fillColor=none;strokeColor=#FFFF99;" parent="iTjGivHn9YsCt5VwsKL4-1" vertex="1">
                    <mxGeometry x="370" y="-525" width="140" height="40" as="geometry"/>
                </mxCell>
                <mxCell id="amGa7y2TIUH3wvyTXQHR-1" style="edgeStyle=orthogonalEdgeStyle;rounded=0;orthogonalLoop=1;jettySize=auto;html=1;entryX=0.5;entryY=0;entryDx=0;entryDy=0;" parent="iTjGivHn9YsCt5VwsKL4-1" source="iTjGivHn9YsCt5VwsKL4-150" target="amGa7y2TIUH3wvyTXQHR-0" edge="1">
                    <mxGeometry relative="1" as="geometry"/>
                </mxCell>
                <mxCell id="iTjGivHn9YsCt5VwsKL4-150" value="&lt;font color=&quot;#000000&quot;&gt;Sandbox&lt;/font&gt;" style="rounded=1;whiteSpace=wrap;html=1;strokeColor=#006EAF;fontColor=#ffffff;fillColor=#FFFF99;" parent="iTjGivHn9YsCt5VwsKL4-1" vertex="1">
                    <mxGeometry x="2332" y="140" width="120" height="60" as="geometry"/>
                </mxCell>
                <mxCell id="iTjGivHn9YsCt5VwsKL4-156" style="edgeStyle=orthogonalEdgeStyle;rounded=0;orthogonalLoop=1;jettySize=auto;html=1;entryX=0.5;entryY=0;entryDx=0;entryDy=0;" parent="iTjGivHn9YsCt5VwsKL4-1" source="iTjGivHn9YsCt5VwsKL4-151" target="iTjGivHn9YsCt5VwsKL4-102" edge="1">
                    <mxGeometry relative="1" as="geometry"/>
                </mxCell>
                <mxCell id="iTjGivHn9YsCt5VwsKL4-151" value="&lt;font color=&quot;#ff9933&quot;&gt;&amp;lt;EnteringNotesContainer /&amp;gt;&lt;/font&gt;" style="rounded=1;whiteSpace=wrap;html=1;fillColor=none;" parent="iTjGivHn9YsCt5VwsKL4-1" vertex="1">
                    <mxGeometry x="880" y="400" width="128" height="60" as="geometry"/>
                </mxCell>
                <mxCell id="amGa7y2TIUH3wvyTXQHR-3" style="edgeStyle=orthogonalEdgeStyle;rounded=0;orthogonalLoop=1;jettySize=auto;html=1;entryX=0.5;entryY=0;entryDx=0;entryDy=0;" parent="iTjGivHn9YsCt5VwsKL4-1" source="amGa7y2TIUH3wvyTXQHR-0" target="amGa7y2TIUH3wvyTXQHR-2" edge="1">
                    <mxGeometry relative="1" as="geometry"/>
                </mxCell>
                <mxCell id="amGa7y2TIUH3wvyTXQHR-0" value="&lt;font color=&quot;#ff9933&quot;&gt;&amp;lt;SandBoxContainer/&amp;gt;&lt;/font&gt;" style="rounded=1;whiteSpace=wrap;html=1;fillColor=none;" parent="iTjGivHn9YsCt5VwsKL4-1" vertex="1">
                    <mxGeometry x="2340" y="250" width="120" height="60" as="geometry"/>
                </mxCell>
                <mxCell id="amGa7y2TIUH3wvyTXQHR-5" style="edgeStyle=orthogonalEdgeStyle;rounded=0;orthogonalLoop=1;jettySize=auto;html=1;" parent="iTjGivHn9YsCt5VwsKL4-1" source="amGa7y2TIUH3wvyTXQHR-2" target="amGa7y2TIUH3wvyTXQHR-4" edge="1">
                    <mxGeometry relative="1" as="geometry"/>
                </mxCell>
                <mxCell id="amGa7y2TIUH3wvyTXQHR-2" value="&lt;font color=&quot;#ffff99&quot;&gt;&amp;lt;SandBox/&amp;gt;&lt;/font&gt;" style="rounded=1;whiteSpace=wrap;html=1;fillColor=none;" parent="iTjGivHn9YsCt5VwsKL4-1" vertex="1">
                    <mxGeometry x="2340" y="360" width="120" height="60" as="geometry"/>
                </mxCell>
                <mxCell id="amGa7y2TIUH3wvyTXQHR-4" value="&lt;font color=&quot;#00cc00&quot;&gt;&amp;lt;form&amp;gt;&lt;br&gt;&amp;lt;textarea /&amp;gt;&lt;br&gt;&amp;lt;Action /&amp;gt;&lt;br&gt;&amp;lt;/form&amp;gt;&lt;/font&gt;" style="rounded=1;whiteSpace=wrap;html=1;fillColor=none;" parent="iTjGivHn9YsCt5VwsKL4-1" vertex="1">
                    <mxGeometry x="2338" y="470" width="108" height="60" as="geometry"/>
                </mxCell>
                <mxCell id="WgNn8rzt4GyRHdPErQYk-0" value="&lt;font color=&quot;#ff9933&quot;&gt;&amp;lt;SandBoxContainer/&amp;gt;&lt;/font&gt;" style="rounded=1;whiteSpace=wrap;html=1;fillColor=none;" parent="iTjGivHn9YsCt5VwsKL4-1" vertex="1">
                    <mxGeometry x="2350" y="260" width="120" height="60" as="geometry"/>
                </mxCell>
                <mxCell id="n_6_HLrnc-G100Md-N7J-0" value="" style="endArrow=classic;html=1;strokeColor=#FFFFFF;dashed=1;" edge="1" parent="iTjGivHn9YsCt5VwsKL4-1">
                    <mxGeometry width="50" height="50" relative="1" as="geometry">
                        <mxPoint x="350" y="210" as="sourcePoint"/>
                        <mxPoint x="440" y="290" as="targetPoint"/>
                    </mxGeometry>
                </mxCell>
                <mxCell id="n_6_HLrnc-G100Md-N7J-1" value="&lt;i&gt;&lt;font style=&quot;font-size: 14px&quot; color=&quot;#ffffff&quot;&gt;Action Creators&lt;/font&gt;&lt;/i&gt;" style="rounded=1;whiteSpace=wrap;html=1;fillColor=none;strokeColor=#FF8000;" vertex="1" parent="iTjGivHn9YsCt5VwsKL4-1">
                    <mxGeometry x="292" y="260" width="82" height="30" as="geometry"/>
                </mxCell>
                <mxCell id="n_6_HLrnc-G100Md-N7J-2" value="&lt;i&gt;&lt;font style=&quot;font-size: 14px&quot; color=&quot;#ffffff&quot;&gt;Dispatch&lt;/font&gt;&lt;/i&gt;" style="rounded=1;whiteSpace=wrap;html=1;fillColor=none;strokeColor=#FF8000;" vertex="1" parent="iTjGivHn9YsCt5VwsKL4-1">
                    <mxGeometry x="350" y="340" width="82" height="30" as="geometry"/>
                </mxCell>
                <mxCell id="n_6_HLrnc-G100Md-N7J-3" value="&lt;i&gt;&lt;font style=&quot;font-size: 14px&quot; color=&quot;#ffffff&quot;&gt;Активация&amp;nbsp;&lt;br&gt;&lt;/font&gt;&lt;/i&gt;&lt;i&gt;&lt;font color=&quot;#ffffff&quot; style=&quot;font-size: 14px&quot;&gt;Dispatch&lt;/font&gt;&lt;/i&gt;" style="rounded=1;whiteSpace=wrap;html=1;fillColor=none;strokeColor=#FF8000;" vertex="1" parent="iTjGivHn9YsCt5VwsKL4-1">
                    <mxGeometry x="80" y="360" width="112" height="30" as="geometry"/>
                </mxCell>
                <mxCell id="n_6_HLrnc-G100Md-N7J-4" value="" style="endArrow=classic;html=1;strokeColor=#FFFFFF;dashed=1;" edge="1" parent="iTjGivHn9YsCt5VwsKL4-1">
                    <mxGeometry width="50" height="50" relative="1" as="geometry">
                        <mxPoint x="360" y="220" as="sourcePoint"/>
                        <mxPoint x="450" y="300" as="targetPoint"/>
                    </mxGeometry>
                </mxCell>
                <mxCell id="n_6_HLrnc-G100Md-N7J-5" value="" style="endArrow=classic;html=1;strokeColor=#FFFFFF;dashed=1;" edge="1" parent="iTjGivHn9YsCt5VwsKL4-1">
                    <mxGeometry width="50" height="50" relative="1" as="geometry">
                        <mxPoint x="336.5" y="364" as="sourcePoint"/>
                        <mxPoint x="283.5" y="384" as="targetPoint"/>
                    </mxGeometry>
                </mxCell>
                <mxCell id="n_6_HLrnc-G100Md-N7J-6" value="Функиция callback, которая вызывается при клике на кнопку и запускает dispatch" style="text;html=1;strokeColor=none;fillColor=none;align=center;verticalAlign=middle;whiteSpace=wrap;rounded=0;" vertex="1" parent="iTjGivHn9YsCt5VwsKL4-1">
                    <mxGeometry x="310" y="404" width="110" height="20" as="geometry"/>
                </mxCell>
            </root>
        </mxGraphModel>
    </diagram>
    <diagram id="UBerXLbuzK9R7Wmx2Brz" name="REDUX">
        <mxGraphModel dx="700" dy="562" grid="1" gridSize="10" guides="1" tooltips="1" connect="1" arrows="1" fold="1" page="1" pageScale="1" pageWidth="583" pageHeight="827" math="0" shadow="0">
            <root>
                <mxCell id="mhgN3O3Klsy50v1zU47U-0"/>
                <mxCell id="mhgN3O3Klsy50v1zU47U-1" parent="mhgN3O3Klsy50v1zU47U-0"/>
                <mxCell id="mhgN3O3Klsy50v1zU47U-5" style="edgeStyle=orthogonalEdgeStyle;rounded=0;orthogonalLoop=1;jettySize=auto;html=1;entryX=0.5;entryY=0;entryDx=0;entryDy=0;" parent="mhgN3O3Klsy50v1zU47U-1" source="mhgN3O3Klsy50v1zU47U-2" target="mhgN3O3Klsy50v1zU47U-15" edge="1">
                    <mxGeometry relative="1" as="geometry"/>
                </mxCell>
                <mxCell id="mhgN3O3Klsy50v1zU47U-2" value="&lt;font style=&quot;font-size: 14px&quot;&gt;CategoryArticles&lt;/font&gt;" style="rounded=1;whiteSpace=wrap;html=1;" parent="mhgN3O3Klsy50v1zU47U-1" vertex="1">
                    <mxGeometry x="280" y="200" width="130" height="50" as="geometry"/>
                </mxCell>
                <mxCell id="mhgN3O3Klsy50v1zU47U-7" style="edgeStyle=orthogonalEdgeStyle;rounded=0;orthogonalLoop=1;jettySize=auto;html=1;" parent="mhgN3O3Klsy50v1zU47U-1" source="mhgN3O3Klsy50v1zU47U-3" target="mhgN3O3Klsy50v1zU47U-6" edge="1">
                    <mxGeometry relative="1" as="geometry"/>
                </mxCell>
                <mxCell id="mhgN3O3Klsy50v1zU47U-3" value="&lt;font style=&quot;font-size: 14px&quot;&gt;Posts&lt;/font&gt;" style="rounded=1;whiteSpace=wrap;html=1;" parent="mhgN3O3Klsy50v1zU47U-1" vertex="1">
                    <mxGeometry x="50" y="230" width="130" height="50" as="geometry"/>
                </mxCell>
                <mxCell id="mhgN3O3Klsy50v1zU47U-6" value="&lt;font style=&quot;font-size: 14px&quot;&gt;Post&lt;br&gt;&lt;/font&gt;" style="rounded=1;whiteSpace=wrap;html=1;" parent="mhgN3O3Klsy50v1zU47U-1" vertex="1">
                    <mxGeometry x="50" y="320" width="130" height="50" as="geometry"/>
                </mxCell>
                <mxCell id="mhgN3O3Klsy50v1zU47U-11" style="edgeStyle=orthogonalEdgeStyle;rounded=0;orthogonalLoop=1;jettySize=auto;html=1;entryX=0.5;entryY=1;entryDx=0;entryDy=0;exitX=0;exitY=0.5;exitDx=0;exitDy=0;" parent="mhgN3O3Klsy50v1zU47U-1" source="mhgN3O3Klsy50v1zU47U-9" target="mhgN3O3Klsy50v1zU47U-10" edge="1">
                    <mxGeometry relative="1" as="geometry">
                        <Array as="points">
                            <mxPoint x="715" y="445"/>
                        </Array>
                    </mxGeometry>
                </mxCell>
                <mxCell id="mhgN3O3Klsy50v1zU47U-9" value="&lt;font&gt;&lt;font style=&quot;font-size: 18px&quot;&gt;UI&lt;br&gt;&lt;span style=&quot;color: rgb(240 , 240 , 240)&quot;&gt;CategoryArticles&lt;/span&gt;&lt;br&gt;&lt;/font&gt;&lt;br&gt;&lt;/font&gt;" style="rounded=1;whiteSpace=wrap;html=1;fillColor=#60a917;strokeColor=#2D7600;fontColor=#ffffff;" parent="mhgN3O3Klsy50v1zU47U-1" vertex="1">
                    <mxGeometry x="790" y="420" width="130" height="50" as="geometry"/>
                </mxCell>
                <mxCell id="mhgN3O3Klsy50v1zU47U-13" style="edgeStyle=orthogonalEdgeStyle;rounded=0;orthogonalLoop=1;jettySize=auto;html=1;entryX=0;entryY=0.5;entryDx=0;entryDy=0;" parent="mhgN3O3Klsy50v1zU47U-1" source="mhgN3O3Klsy50v1zU47U-10" target="mhgN3O3Klsy50v1zU47U-12" edge="1">
                    <mxGeometry relative="1" as="geometry">
                        <Array as="points">
                            <mxPoint x="715" y="175"/>
                        </Array>
                    </mxGeometry>
                </mxCell>
                <mxCell id="mhgN3O3Klsy50v1zU47U-10" value="&lt;font&gt;&lt;font style=&quot;font-size: 18px&quot;&gt;Dispatch&lt;br&gt;&lt;span style=&quot;color: rgb(240 , 240 , 240)&quot;&gt;EventHandler&lt;/span&gt;&lt;br&gt;&lt;/font&gt;&lt;br&gt;&lt;/font&gt;" style="rounded=1;whiteSpace=wrap;html=1;fillColor=#1ba1e2;strokeColor=#006EAF;fontColor=#ffffff;" parent="mhgN3O3Klsy50v1zU47U-1" vertex="1">
                    <mxGeometry x="650" y="220" width="130" height="50" as="geometry"/>
                </mxCell>
                <mxCell id="mhgN3O3Klsy50v1zU47U-12" value="&lt;font&gt;&lt;font style=&quot;font-size: 18px&quot;&gt;Store&lt;br&gt;&lt;br&gt;&lt;/font&gt;&lt;br&gt;&lt;/font&gt;" style="rounded=1;whiteSpace=wrap;html=1;fillColor=#f0a30a;strokeColor=#BD7000;fontColor=#000000;" parent="mhgN3O3Klsy50v1zU47U-1" vertex="1">
                    <mxGeometry x="930" y="150" width="130" height="50" as="geometry"/>
                </mxCell>
                <mxCell id="mhgN3O3Klsy50v1zU47U-14" value="&lt;font style=&quot;font-size: 18px&quot;&gt;Action&lt;/font&gt;" style="text;html=1;strokeColor=none;fillColor=none;align=center;verticalAlign=middle;whiteSpace=wrap;rounded=0;" parent="mhgN3O3Klsy50v1zU47U-1" vertex="1">
                    <mxGeometry x="825" y="140" width="40" height="20" as="geometry"/>
                </mxCell>
                <mxCell id="mhgN3O3Klsy50v1zU47U-15" value="&lt;font&gt;&lt;font style=&quot;font-size: 18px&quot;&gt;UI&lt;br&gt;&lt;span style=&quot;color: rgb(240 , 240 , 240)&quot;&gt;CategoryArticles&lt;/span&gt;&lt;br&gt;&lt;/font&gt;&lt;br&gt;&lt;/font&gt;" style="rounded=1;whiteSpace=wrap;html=1;fillColor=#60a917;strokeColor=#2D7600;fontColor=#ffffff;" parent="mhgN3O3Klsy50v1zU47U-1" vertex="1">
                    <mxGeometry x="280" y="300" width="130" height="50" as="geometry"/>
                </mxCell>
                <mxCell id="mhgN3O3Klsy50v1zU47U-17" style="edgeStyle=orthogonalEdgeStyle;rounded=0;orthogonalLoop=1;jettySize=auto;html=1;entryX=0.5;entryY=0;entryDx=0;entryDy=0;" parent="mhgN3O3Klsy50v1zU47U-1" source="mhgN3O3Klsy50v1zU47U-16" target="mhgN3O3Klsy50v1zU47U-3" edge="1">
                    <mxGeometry relative="1" as="geometry"/>
                </mxCell>
                <mxCell id="mhgN3O3Klsy50v1zU47U-18" style="edgeStyle=orthogonalEdgeStyle;rounded=0;orthogonalLoop=1;jettySize=auto;html=1;" parent="mhgN3O3Klsy50v1zU47U-1" source="mhgN3O3Klsy50v1zU47U-16" target="mhgN3O3Klsy50v1zU47U-2" edge="1">
                    <mxGeometry relative="1" as="geometry"/>
                </mxCell>
                <mxCell id="mhgN3O3Klsy50v1zU47U-16" value="&lt;span style=&quot;font-size: 14px&quot;&gt;Wrapper&lt;/span&gt;" style="rounded=1;whiteSpace=wrap;html=1;" parent="mhgN3O3Klsy50v1zU47U-1" vertex="1">
                    <mxGeometry x="190" y="100" width="120" height="60" as="geometry"/>
                </mxCell>
                <mxCell id="mhgN3O3Klsy50v1zU47U-19" value="" style="endArrow=none;dashed=1;html=1;dashPattern=1 3;strokeWidth=2;" parent="mhgN3O3Klsy50v1zU47U-1" edge="1">
                    <mxGeometry width="50" height="50" relative="1" as="geometry">
                        <mxPoint x="370" y="410" as="sourcePoint"/>
                        <mxPoint x="350" y="350" as="targetPoint"/>
                    </mxGeometry>
                </mxCell>
                <mxCell id="mhgN3O3Klsy50v1zU47U-22" style="edgeStyle=orthogonalEdgeStyle;rounded=0;orthogonalLoop=1;jettySize=auto;html=1;entryX=1;entryY=0.5;entryDx=0;entryDy=0;exitX=1;exitY=0.75;exitDx=0;exitDy=0;" parent="mhgN3O3Klsy50v1zU47U-1" source="mhgN3O3Klsy50v1zU47U-20" target="mhgN3O3Klsy50v1zU47U-16" edge="1">
                    <mxGeometry relative="1" as="geometry">
                        <Array as="points">
                            <mxPoint x="500" y="489"/>
                            <mxPoint x="500" y="130"/>
                        </Array>
                    </mxGeometry>
                </mxCell>
                <mxCell id="mhgN3O3Klsy50v1zU47U-20" value="&lt;span style=&quot;font-size: 14px&quot;&gt;&lt;font color=&quot;#ffff99&quot;&gt;Callback&lt;br&gt;&lt;/font&gt;&lt;/span&gt;&lt;div style=&quot;color: rgb(171 , 178 , 191) ; background-color: rgb(40 , 44 , 52) ; font-family: &amp;#34;consolas&amp;#34; , &amp;#34;courier new&amp;#34; , monospace ; font-size: 14px ; line-height: 19px&quot;&gt;&lt;span style=&quot;color: #61afef&quot;&gt;cssCategoryAC&lt;/span&gt;&lt;/div&gt;&lt;div style=&quot;color: rgb(171 , 178 , 191) ; background-color: rgb(40 , 44 , 52) ; font-family: &amp;#34;consolas&amp;#34; , &amp;#34;courier new&amp;#34; , monospace ; font-size: 14px ; line-height: 19px&quot;&gt;&lt;div style=&quot;line-height: 19px&quot;&gt;&lt;span style=&quot;color: #61afef&quot;&gt;jsCategoryAC&lt;/span&gt;&lt;/div&gt;&lt;div style=&quot;line-height: 19px&quot;&gt;&lt;div style=&quot;line-height: 19px&quot;&gt;&lt;span style=&quot;color: #61afef&quot;&gt;reactCategoryAC&lt;/span&gt;&lt;/div&gt;&lt;div style=&quot;line-height: 19px&quot;&gt;&lt;div style=&quot;line-height: 19px&quot;&gt;&lt;span style=&quot;color: #61afef&quot;&gt;otherCategoryAC&lt;/span&gt;&lt;/div&gt;&lt;/div&gt;&lt;/div&gt;&lt;/div&gt;" style="rounded=0;whiteSpace=wrap;html=1;" parent="mhgN3O3Klsy50v1zU47U-1" vertex="1">
                    <mxGeometry x="280" y="414" width="180" height="100" as="geometry"/>
                </mxCell>
                <mxCell id="mhgN3O3Klsy50v1zU47U-24" value="&lt;span style=&quot;font-size: 14px&quot;&gt;&lt;font color=&quot;#ffff99&quot;&gt;Callback&lt;/font&gt;&lt;/span&gt;" style="text;html=1;strokeColor=none;fillColor=none;align=center;verticalAlign=middle;whiteSpace=wrap;rounded=0;" parent="mhgN3O3Klsy50v1zU47U-1" vertex="1">
                    <mxGeometry x="520" y="280" width="40" height="20" as="geometry"/>
                </mxCell>
                <mxCell id="mhgN3O3Klsy50v1zU47U-26" value="&lt;span style=&quot;font-size: 14px&quot;&gt;&lt;font color=&quot;#ffff99&quot;&gt;Callback&lt;/font&gt;&lt;/span&gt;" style="text;html=1;strokeColor=none;fillColor=none;align=center;verticalAlign=middle;whiteSpace=wrap;rounded=0;" parent="mhgN3O3Klsy50v1zU47U-1" vertex="1">
                    <mxGeometry x="125" y="150" width="40" height="20" as="geometry"/>
                </mxCell>
                <mxCell id="mhgN3O3Klsy50v1zU47U-30" value="&lt;font style=&quot;font-size: 14px&quot;&gt;Post&lt;br&gt;&lt;/font&gt;" style="rounded=1;whiteSpace=wrap;html=1;" parent="mhgN3O3Klsy50v1zU47U-1" vertex="1">
                    <mxGeometry x="70" y="340" width="130" height="50" as="geometry"/>
                </mxCell>
                <mxCell id="mhgN3O3Klsy50v1zU47U-31" value="&lt;font style=&quot;font-size: 14px&quot;&gt;Post&lt;br&gt;&lt;/font&gt;" style="rounded=1;whiteSpace=wrap;html=1;" parent="mhgN3O3Klsy50v1zU47U-1" vertex="1">
                    <mxGeometry x="90" y="360" width="130" height="50" as="geometry"/>
                </mxCell>
                <mxCell id="mhgN3O3Klsy50v1zU47U-32" value="&lt;font style=&quot;font-size: 14px&quot;&gt;Post&lt;br&gt;&lt;/font&gt;" style="rounded=1;whiteSpace=wrap;html=1;" parent="mhgN3O3Klsy50v1zU47U-1" vertex="1">
                    <mxGeometry x="100" y="380" width="130" height="50" as="geometry"/>
                </mxCell>
                <mxCell id="A-UibCqcaRoapBCn7Yy--1" value="" style="rounded=1;whiteSpace=wrap;html=1;" parent="mhgN3O3Klsy50v1zU47U-1" vertex="1">
                    <mxGeometry x="190" y="910" width="120" height="60" as="geometry"/>
                </mxCell>
            </root>
        </mxGraphModel>
    </diagram>
    <diagram id="3_sRgipuheqYmA92tIcf" name="project structure">
        <mxGraphModel dx="664" dy="562" grid="1" gridSize="10" guides="1" tooltips="1" connect="1" arrows="1" fold="1" page="1" pageScale="1" pageWidth="827" pageHeight="1169" math="0" shadow="0">
            <root>
                <mxCell id="WsJfksAHPEQ8GySzMIpd-0"/>
                <mxCell id="WsJfksAHPEQ8GySzMIpd-1" parent="WsJfksAHPEQ8GySzMIpd-0"/>
                <mxCell id="WsJfksAHPEQ8GySzMIpd-2" value="&lt;h1&gt;&lt;ul&gt;&lt;li&gt;&lt;span style=&quot;font-size: 18px ; font-weight: normal&quot;&gt;/personal-blog&lt;/span&gt;&lt;br&gt;&lt;/li&gt;&lt;ul&gt;&lt;li&gt;&lt;span style=&quot;font-size: 18px&quot;&gt;server.js: &lt;/span&gt;&lt;span style=&quot;font-weight: normal&quot;&gt;&lt;font style=&quot;font-size: 14px&quot;&gt;развертывание сервера&lt;/font&gt;&lt;/span&gt;&lt;span style=&quot;font-size: 18px&quot;&gt;&amp;nbsp;&lt;/span&gt;&lt;/li&gt;&lt;li&gt;&lt;span style=&quot;font-size: 18px&quot;&gt;db.js: &lt;/span&gt;&lt;span style=&quot;font-weight: normal&quot;&gt;&lt;font style=&quot;font-size: 14px&quot;&gt;v&lt;/font&gt;&lt;/span&gt;&lt;/li&gt;&lt;li&gt;&lt;span style=&quot;font-size: 18px&quot;&gt;/app:&amp;nbsp;&lt;/span&gt;&lt;br&gt;&lt;/li&gt;&lt;ul&gt;&lt;li&gt;&lt;span style=&quot;font-size: 18px&quot;&gt;index.js: &lt;/span&gt;&lt;span style=&quot;font-size: 14px ; font-weight: 400&quot;&gt;оборачиванеи маршрутов в функцию, принимающую экземпляр Express и базу данных&amp;nbsp;&lt;/span&gt;&lt;/li&gt;&lt;li&gt;&lt;span style=&quot;font-size: 18px&quot;&gt;note_routes.js&lt;/span&gt;:&amp;nbsp;&lt;span style=&quot;font-size: 14px ; font-weight: 400&quot;&gt;создание маршрута HTTP запросов&lt;/span&gt;&lt;/li&gt;&lt;/ul&gt;&lt;li&gt;&lt;span style=&quot;font-size: 18px ; font-weight: normal&quot;&gt;/&lt;/span&gt;&lt;span style=&quot;font-size: 18px&quot;&gt;controllers&lt;/span&gt;&lt;span style=&quot;font-size: 18px ; font-weight: normal&quot;&gt;:&amp;nbsp;&lt;/span&gt;&lt;font style=&quot;font-size: 12px ; font-weight: normal&quot;&gt;хранение функций, не знающих о БД. Выполянет методы из модели&lt;/font&gt;&lt;br&gt;&lt;/li&gt;&lt;ul&gt;&lt;li&gt;&lt;span&gt;&lt;font style=&quot;font-weight: normal ; font-size: 18px&quot;&gt;articles.js:&lt;/font&gt;&lt;font style=&quot;font-size: 14px ; font-weight: normal&quot;&gt;&amp;nbsp;&lt;/font&gt;&lt;font style=&quot;font-weight: normal ; font-size: 12px&quot;&gt;модель статьей&amp;nbsp;&lt;/font&gt;&lt;/span&gt;&lt;br&gt;&lt;/li&gt;&lt;li&gt;&lt;span style=&quot;font-weight: normal&quot;&gt;&lt;font style=&quot;font-size: 18px&quot;&gt;&lt;span&gt;posts&lt;/span&gt;.js&lt;/font&gt;&lt;/span&gt;&lt;font style=&quot;font-weight: normal ; font-size: 18px&quot;&gt;:&lt;/font&gt;&lt;font style=&quot;font-size: 14px ; font-weight: normal&quot;&gt;&amp;nbsp;&lt;/font&gt;&lt;font style=&quot;font-weight: normal ; font-size: 12px&quot;&gt;модель постов&lt;/font&gt;&lt;font style=&quot;font-weight: normal ; font-size: 12px&quot;&gt;&amp;nbsp;&lt;/font&gt;&lt;/li&gt;&lt;/ul&gt;&lt;li&gt;&lt;span&gt;&lt;font style=&quot;font-size: 18px&quot;&gt;/&lt;/font&gt;&lt;/span&gt;&lt;span&gt;&lt;font style=&quot;font-size: 18px&quot;&gt;models&lt;/font&gt;&lt;/span&gt;&lt;span style=&quot;font-size: 18px ; font-weight: normal&quot;&gt;: &lt;/span&gt;&lt;span style=&quot;font-weight: normal&quot;&gt;&lt;font style=&quot;font-size: 12px&quot;&gt;хранение всех методов взаимодействующих с БД&lt;/font&gt;&lt;/span&gt;&lt;br&gt;&lt;/li&gt;&lt;ul&gt;&lt;li&gt;&lt;span&gt;&lt;font style=&quot;font-weight: normal ; font-size: 18px&quot;&gt;articles.js:&lt;/font&gt;&lt;font style=&quot;font-size: 14px ; font-weight: normal&quot;&gt;&amp;nbsp;&lt;/font&gt;&lt;font style=&quot;font-weight: normal ; font-size: 12px&quot;&gt;модель статьей&amp;nbsp;&lt;/font&gt;&lt;/span&gt;&lt;br&gt;&lt;/li&gt;&lt;li&gt;&lt;span style=&quot;font-weight: normal&quot;&gt;&lt;font style=&quot;font-size: 18px&quot;&gt;&lt;span&gt;&lt;font&gt;posts&lt;/font&gt;&lt;/span&gt;.&lt;font&gt;js&lt;/font&gt;&lt;/font&gt;&lt;/span&gt;&lt;font style=&quot;font-weight: normal ; font-size: 18px&quot;&gt;:&lt;/font&gt;&lt;font style=&quot;font-size: 14px ; font-weight: normal&quot;&gt;&amp;nbsp;&lt;/font&gt;&lt;font style=&quot;font-weight: normal ; font-size: 12px&quot;&gt;модель постов&lt;/font&gt;&lt;font style=&quot;font-weight: normal ; font-size: 12px&quot;&gt;&amp;nbsp;&lt;/font&gt;&lt;br&gt;&lt;/li&gt;&lt;li&gt;&lt;span&gt;&lt;font style=&quot;font-size: 18px&quot;&gt;/&lt;/font&gt;&lt;/span&gt;&lt;span&gt;&lt;font style=&quot;font-size: 18px&quot;&gt;models&lt;/font&gt;&lt;/span&gt;&lt;span style=&quot;font-size: 18px ; font-weight: normal&quot;&gt;:&amp;nbsp;&lt;/span&gt;&lt;span style=&quot;font-weight: normal&quot;&gt;&lt;font style=&quot;font-size: 12px&quot;&gt;хранение всех методов взаимодействующих с БД&lt;/font&gt;&lt;/span&gt;&lt;br&gt;&lt;/li&gt;&lt;ul&gt;&lt;li&gt;&lt;span&gt;&lt;font style=&quot;font-weight: normal ; font-size: 18px&quot;&gt;articles.js:&lt;/font&gt;&lt;font style=&quot;font-size: 14px ; font-weight: normal&quot;&gt;&amp;nbsp;&lt;/font&gt;&lt;font style=&quot;font-weight: normal ; font-size: 12px&quot;&gt;модель статьей&amp;nbsp;&lt;/font&gt;&lt;/span&gt;&lt;br&gt;&lt;/li&gt;&lt;li&gt;&lt;span style=&quot;font-weight: normal&quot;&gt;&lt;font style=&quot;font-size: 18px&quot;&gt;&lt;span&gt;posts&lt;/span&gt;.js&lt;/font&gt;&lt;/span&gt;&lt;font style=&quot;font-weight: normal ; font-size: 18px&quot;&gt;:&lt;/font&gt;&lt;font style=&quot;font-size: 14px ; font-weight: normal&quot;&gt;&amp;nbsp;&lt;/font&gt;&lt;font style=&quot;font-weight: normal ; font-size: 12px&quot;&gt;модель постов&lt;/font&gt;&lt;font style=&quot;font-weight: normal ; font-size: 12px&quot;&gt;&amp;nbsp;&lt;/font&gt;&lt;/li&gt;&lt;/ul&gt;&lt;/ul&gt;&lt;li&gt;&lt;span style=&quot;font-size: 12px&quot;&gt;&lt;font style=&quot;font-size: 18px&quot;&gt;/clients&lt;/font&gt;&lt;/span&gt;&lt;span style=&quot;font-size: 18px ; font-weight: normal&quot;&gt;: &lt;/span&gt;&lt;span style=&quot;font-weight: normal ; font-size: 12px&quot;&gt;клиенская часть приложения&amp;nbsp;&lt;/span&gt;&lt;br&gt;&lt;/li&gt;&lt;ul&gt;&lt;li&gt;&lt;font style=&quot;font-weight: normal ; font-size: 18px&quot;&gt;/src&lt;/font&gt;&lt;font style=&quot;font-size: 12px&quot;&gt;&lt;font&gt;: &lt;/font&gt;&amp;nbsp;&lt;span style=&quot;font-weight: normal&quot;&gt;место хранение клиентских скриптов&lt;/span&gt;&lt;/font&gt;&lt;br&gt;&lt;/li&gt;&lt;ul&gt;&lt;li&gt;&lt;span style=&quot;font-size: 18px ; font-weight: 400&quot;&gt;index.js:&lt;/span&gt;&amp;nbsp;&lt;span style=&quot;font-size: 12px ; font-weight: 400&quot;&gt;файл точки входа для приложения.&amp;nbsp;&lt;/span&gt;&lt;br&gt;&lt;/li&gt;&lt;li&gt;&lt;font&gt;&lt;font style=&quot;font-size: 18px ; font-weight: normal&quot;&gt;App.js&lt;/font&gt;&lt;span style=&quot;font-size: 18px ; font-weight: normal&quot;&gt;:&lt;/span&gt;&lt;font style=&quot;font-weight: normal ; font-size: 12px&quot;&gt;&amp;nbsp;основной компонент приложения&lt;/font&gt;&lt;/font&gt;&lt;font size=&quot;3&quot; style=&quot;font-weight: normal&quot;&gt;&amp;nbsp;&lt;/font&gt;&lt;br&gt;&lt;/li&gt;&lt;li&gt;&lt;font style=&quot;font-weight: normal ; font-size: 18px&quot;&gt;/common&lt;/font&gt;&lt;font style=&quot;font-size: 12px&quot;&gt;:&amp;nbsp; &lt;span style=&quot;font-weight: 400&quot;&gt;распростараненные компоненты React (UI)&lt;/span&gt;&lt;/font&gt;&lt;br&gt;&lt;/li&gt;&lt;li&gt;&lt;font style=&quot;font-size: 12px&quot;&gt;&lt;font style=&quot;font-weight: 400 ; font-size: 18px&quot;&gt;/redux&lt;/font&gt;&lt;font style=&quot;font-weight: 700&quot;&gt;:&amp;nbsp;&amp;nbsp;&lt;/font&gt;&lt;font style=&quot;font-weight: 400&quot;&gt;логика BLL (state managment)&lt;/font&gt;&lt;br&gt;&lt;/font&gt;&lt;/li&gt;&lt;li&gt;&lt;font style=&quot;font-size: 12px&quot;&gt;&lt;font&gt;&lt;font style=&quot;font-weight: 400 ; font-size: 18px&quot;&gt;/scc-blocks&lt;/font&gt;&lt;font style=&quot;font-weight: 700&quot;&gt;:&amp;nbsp;&amp;nbsp;&lt;/font&gt;&lt;font style=&quot;font-weight: 400&quot;&gt;блоки CSS стилей&lt;/font&gt;&lt;br&gt;&lt;/font&gt;&lt;/font&gt;&lt;/li&gt;&lt;li&gt;&lt;font style=&quot;font-size: 12px&quot;&gt;&lt;font&gt;&lt;font style=&quot;font-weight: 400&quot;&gt;&lt;font style=&quot;font-size: 18px&quot;&gt;/components&lt;/font&gt;&lt;font style=&quot;font-weight: 700&quot;&gt;:&lt;/font&gt;&lt;font style=&quot;font-weight: 700&quot;&gt;&amp;nbsp;&amp;nbsp;&lt;span style=&quot;font-weight: 400&quot;&gt;компоненты React (UI)&lt;/span&gt;&lt;/font&gt;&lt;br&gt;&lt;/font&gt;&lt;/font&gt;&lt;/font&gt;&lt;/li&gt;&lt;/ul&gt;&lt;/ul&gt;&lt;/ul&gt;&lt;/ul&gt;&lt;/h1&gt;" style="text;html=1;strokeColor=none;fillColor=none;spacing=5;spacingTop=-20;whiteSpace=wrap;overflow=hidden;rounded=0;" vertex="1" parent="WsJfksAHPEQ8GySzMIpd-1">
                    <mxGeometry x="20" y="60" width="540" height="920" as="geometry"/>
                </mxCell>
                <mxCell id="KCPhY7Nb-fB3KdTNQiqF-0" value="&lt;h1&gt;Бизнес - требования приложения&lt;/h1&gt;&lt;div&gt;&lt;h2&gt;&lt;/h2&gt;&lt;h1&gt;&lt;/h1&gt;&lt;h3&gt;&lt;/h3&gt;&lt;h6&gt;&lt;/h6&gt;&lt;h4&gt;&lt;/h4&gt;&lt;h3&gt;&lt;/h3&gt;&lt;h2&gt;&lt;/h2&gt;&lt;h2&gt;&lt;ul&gt;&lt;li&gt;&lt;span&gt;Пользовательский интерфейс состоит из следующих основных разделов:&lt;/span&gt;&lt;/li&gt;&lt;ul&gt;&lt;li style=&quot;font-size: 19px&quot;&gt;Главаная&amp;nbsp;&lt;/li&gt;&lt;ul&gt;&lt;li style=&quot;font-size: 19px&quot;&gt;&lt;span style=&quot;font-weight: normal&quot;&gt;Разделом выбора (фильтрации) статьей по котегоряим&lt;/span&gt;&lt;/li&gt;&lt;li style=&quot;font-size: 19px&quot;&gt;&lt;span style=&quot;font-weight: normal&quot;&gt;Списком всех постов(краткое описание статьей) по категориям&lt;/span&gt;&lt;/li&gt;&lt;/ul&gt;&lt;li&gt;&lt;span style=&quot;font-size: 19px ; font-weight: 400&quot;&gt;Элементы списка постов должны иметь заголовок, изображение под заголовком, краткое описание статьи,&amp;nbsp; дата публикации, тэг категории, ссылка на полную статью&lt;/span&gt;&lt;/li&gt;&lt;li&gt;&lt;span style=&quot;font-size: 19px ; font-weight: 400&quot;&gt;В списке должен быь способ фильтрации постов&lt;/span&gt;&lt;/li&gt;&lt;ul&gt;&lt;li&gt;&lt;span style=&quot;font-size: 19px ; font-weight: 400&quot;&gt;Фильтрация на основе тэга категории постов&lt;/span&gt;&lt;br&gt;&lt;/li&gt;&lt;/ul&gt;&lt;/ul&gt;&lt;/ul&gt;&lt;/h2&gt;&lt;/div&gt;" style="text;html=1;strokeColor=none;fillColor=none;spacing=5;spacingTop=-20;whiteSpace=wrap;overflow=hidden;rounded=0;strokeWidth=1;" vertex="1" parent="WsJfksAHPEQ8GySzMIpd-1">
                    <mxGeometry x="880" y="60" width="550" height="400" as="geometry"/>
                </mxCell>
                <mxCell id="KCPhY7Nb-fB3KdTNQiqF-2" value="&lt;h1&gt;Действия&amp;nbsp;&lt;/h1&gt;&lt;div&gt;&lt;h2&gt;&lt;/h2&gt;&lt;h1&gt;&lt;/h1&gt;&lt;h3&gt;&lt;/h3&gt;&lt;h6&gt;&lt;/h6&gt;&lt;h4&gt;&lt;/h4&gt;&lt;h3&gt;&lt;/h3&gt;&lt;h2&gt;&lt;/h2&gt;&lt;h2&gt;&lt;ul&gt;&lt;li&gt;Выбрать категорию статьей {type: &quot;posts/postsSelected&quot;, payload: itemCategory}&lt;/li&gt;&lt;li&gt;Отобразить все статьи по данной категории&amp;nbsp;{type: &quot;posts/postsFilter&quot;, payload: postsCategory}&lt;/li&gt;&lt;/ul&gt;&lt;/h2&gt;&lt;/div&gt;" style="text;html=1;strokeColor=none;fillColor=none;spacing=5;spacingTop=-20;whiteSpace=wrap;overflow=hidden;rounded=0;strokeWidth=1;" vertex="1" parent="WsJfksAHPEQ8GySzMIpd-1">
                    <mxGeometry x="1820" y="30" width="550" height="400" as="geometry"/>
                </mxCell>
            </root>
        </mxGraphModel>
    </diagram>
</mxfile>